SplineFontDB: 3.0
FontName: unscii-8-thin
FullName: unscii-8-thin
FamilyName: unscii
Weight: Thin
Version: 1.0
ItalicAngle: 0
UnderlinePosition: 0
UnderlineWidth: 0
Ascent: 51
Descent: 13
InvalidEm: 0
sfntRevision: 0x00010000
woffMajor: 1
woffMinor: 0
LayerCount: 2
Layer: 0 0 "Back" 1
Layer: 1 0 "Fore" 0
XUID: [1021 625 963893922 5106465]
StyleMap: 0x0000
FSType: 8
OS2Version: 3
OS2_WeightWidthSlopeOnly: 0
OS2_UseTypoMetrics: 0
CreationTime: 1455307165
ModificationTime: 1562805931
PfmFamily: 17
TTFWeight: 0
TTFWidth: 5
LineGap: 6
VLineGap: 0
Panose: 2 0 2 3 0 0 0 0 0 0
OS2TypoAscent: 51
OS2TypoAOffset: 0
OS2TypoDescent: -13
OS2TypoDOffset: 0
OS2TypoLinegap: 6
OS2WinAscent: 51
OS2WinAOffset: 0
OS2WinDescent: -19
OS2WinDOffset: 0
HheadAscent: 51
HheadAOffset: 0
HheadDescent: 0
HheadDOffset: 0
OS2SubXSize: 41
OS2SubYSize: 44
OS2SubXOff: 0
OS2SubYOff: 8
OS2SupXSize: 41
OS2SupYSize: 44
OS2SupXOff: 0
OS2SupYOff: 30
OS2StrikeYSize: 3
OS2StrikeYPos: 16
OS2CapHeight: 51
OS2XHeight: 43
OS2Vendor: 'PfEd'
OS2CodePages: 400000f7.effe0000
OS2UnicodeRanges: a0002aff.1200f8eb.0004a018.00002008
DEI: 91125
LangName: 1033 "" "" "" "FontForge 2.0 : unscii-8-thin : 12-2-2016" "" "Version 1.0"
Encoding: UnicodeFull
UnicodeInterp: none
NameList: AGL For New Fonts
DisplaySize: -48
AntiAlias: 1
FitToEm: 0
WinInfo: 0 30 28
BeginPrivate: 3
BlueValues 19 [23 23 43 43 51 51]
OtherBlues 7 [19 19]
BlueShift 1 0
EndPrivate
BeginChars: 1114114 2362

StartChar: .notdef
Encoding: 1114112 -1 0
Width: 32
Flags: HMW
HStem: -23 3<6 26 6 29> 8 3<6 26 6 6>
VStem: 3 3<-20 -20 -20 8> 26 3<-20 8 8 8>
LayerCount: 2
Fore
SplineSet
3 -23 m 1
 3 11 l 1
 29 11 l 1
 29 -23 l 1
 3 -23 l 1
6 -20 m 1
 26 -20 l 1
 26 8 l 1
 6 8 l 1
 6 -20 l 1
EndSplineSet
Validated: 1
EndChar

StartChar: space
Encoding: 32 32 1
Width: 8
Flags: W
LayerCount: 2
Fore
SplineSet
0 28 m 1024,0,-1
EndSplineSet
Validated: 1
EndChar

StartChar: exclam
Encoding: 33 33 2
Width: 12
Flags: W
HStem: 0 4<0 4>
VStem: 0 4<0 4 12 28>
LayerCount: 2
Fore
SplineSet
0 4 m 1
 4 4 l 1
 4 0 l 1
 0 0 l 1
 0 4 l 1
0 28 m 1
 4 28 l 1
 4 12 l 1
 0 12 l 1
 0 28 l 1
EndSplineSet
Validated: 1
EndChar

StartChar: quotedbl
Encoding: 34 34 3
Width: 24
Flags: W
HStem: 16 12<0 4 12 16>
VStem: 0 4<16 28> 12 4<16 28>
LayerCount: 2
Fore
SplineSet
12 28 m 1
 16 28 l 1
 16 16 l 1
 12 16 l 1
 12 28 l 1
0 28 m 1
 4 28 l 1
 4 16 l 1
 0 16 l 1
 0 28 l 1
EndSplineSet
Validated: 1
EndChar

StartChar: numbersign
Encoding: 35 35 4
Width: 32
Flags: W
HStem: 8 4<0 4 8 16 20 24> 16 4<0 4 8 16 20 24>
VStem: 4 4<0 8 12 16 20 28> 16 4<0 8 12 16 20 28>
LayerCount: 2
Fore
SplineSet
16 28 m 1
 20 28 l 1
 20 20 l 1
 24 20 l 1
 24 16 l 1
 20 16 l 1
 20 12 l 1
 24 12 l 1
 24 8 l 1
 20 8 l 1
 20 0 l 1
 16 0 l 1
 16 8 l 1
 8 8 l 1
 8 0 l 1
 4 0 l 1
 4 8 l 1
 0 8 l 1
 0 12 l 1
 4 12 l 1
 4 16 l 1
 0 16 l 1
 0 20 l 1
 4 20 l 1
 4 28 l 1
 8 28 l 1
 8 20 l 1
 16 20 l 1
 16 28 l 1
16 12 m 1
 16 16 l 1
 8 16 l 1
 8 12 l 1
 16 12 l 1
EndSplineSet
Validated: 1
EndChar

StartChar: dollar
Encoding: 36 36 5
Width: 28
Flags: W
HStem: 4 4<0 8 12 16> 12 4<4 8 12 16> 20 4<4 8 12 20>
VStem: 0 4<16 20> 8 4<0 4 8 12 16 20 24 28> 16 4<8 12>
CounterMasks: 1 fc
LayerCount: 2
Fore
SplineSet
8 28 m 1
 12 28 l 1
 12 24 l 1
 20 24 l 1
 20 20 l 1
 12 20 l 1
 12 16 l 1
 16 16 l 1
 16 12 l 1
 20 12 l 1
 20 8 l 1
 16 8 l 1
 16 12 l 1
 12 12 l 1
 12 8 l 1
 16 8 l 1
 16 4 l 1
 12 4 l 1
 12 0 l 1
 8 0 l 1
 8 4 l 1
 0 4 l 1
 0 8 l 1
 8 8 l 1
 8 12 l 1
 4 12 l 1
 4 16 l 1
 0 16 l 1
 0 20 l 1
 4 20 l 1
 4 16 l 1
 8 16 l 1
 8 20 l 1
 4 20 l 1
 4 24 l 1
 8 24 l 1
 8 28 l 1
EndSplineSet
Validated: 5
EndChar

StartChar: percent
Encoding: 37 37 6
Width: 32
Flags: W
HStem: 0 4<0 4> 4 4<4 8> 8 4<8 12> 12 4<12 16> 16 4<16 20> 20 4<20 24>
VStem: 0 4<0 4> 4 4<4 8> 8 4<8 12> 12 4<12 16> 16 4<16 20> 20 4<20 24>
LayerCount: 2
Fore
SplineSet
16 8 m 1x2020
 24 8 l 1x2010
 24 4 l 1x4010
 24 0 l 1x8010
 16 0 l 1x8020
 16 4 l 1x4020
 16 8 l 1x2020
20 24 m 1x0410
 24 24 l 1
 24 20 l 1x0410
 20 20 l 1
 20 16 l 1x0820
 16 16 l 1
 16 12 l 1x1040
 12 12 l 1
 12 8 l 1x2080
 8 8 l 1
 8 4 l 1x41
 4 4 l 1
 4 0 l 1
 0 0 l 1
 0 4 l 1
 4 4 l 1x82
 4 8 l 1
 8 8 l 1x41
 8 12 l 1
 12 12 l 1x2080
 12 16 l 1
 16 16 l 1x1040
 16 20 l 1
 20 20 l 1x0820
 20 24 l 1x0410
0 24 m 1x0680
 8 24 l 1x0680
 8 16 l 1
 0 16 l 1x0a80
 0 24 l 1x0680
EndSplineSet
Validated: 5
EndChar

StartChar: ampersand
Encoding: 38 38 7
Width: 32
Flags: W
HStem: 0 4<4 16 20 24> 8 4<12 16 20 24> 16 8<0 4 12 16> 24 4<4 12>
VStem: 0 4<4 12 16 24> 4 8<12 16 24 28> 12 4<8 12 16 24> 20 4<0 4 8 12>
LayerCount: 2
Fore
SplineSet
20 12 m 1xc1
 24 12 l 1
 24 8 l 1
 20 8 l 1
 20 12 l 1xc1
4 28 m 1xd5
 12 28 l 1xd5
 12 24 l 1xe5
 16 24 l 1
 16 16 l 1xe3
 12 16 l 1
 12 24 l 1xe5
 4 24 l 1
 4 16 l 1
 0 16 l 1
 0 24 l 1
 4 24 l 1xe9
 4 28 l 1xd5
20 4 m 1
 16 4 l 1
 16 8 l 1
 12 8 l 1xc3
 12 12 l 1xc5
 16 12 l 1
 16 8 l 1xc3
 20 8 l 1
 20 4 l 1
20 4 m 1
 24 4 l 1
 24 0 l 1
 20 0 l 1
 20 4 l 1
16 4 m 1
 16 0 l 1xcb
 4 0 l 1xc5
 4 4 l 1
 0 4 l 1
 0 12 l 1
 4 12 l 1
 4 4 l 1xc9
 16 4 l 1
4 12 m 1
 4 16 l 1xe9
 12 16 l 1
 12 12 l 1xe5
 4 12 l 1
EndSplineSet
Validated: 5
EndChar

StartChar: quotesingle
Encoding: 39 39 8
Width: 20
Flags: W
HStem: 16 4<0 4> 20 4<4 8> 24 4<8 12>
VStem: 0 4<16 20> 4 4<20 24> 8 4<24 28>
LayerCount: 2
Fore
SplineSet
8 28 m 1x24
 12 28 l 1
 12 24 l 1x24
 8 24 l 1
 8 20 l 1x48
 4 20 l 1
 4 16 l 1
 0 16 l 1
 0 20 l 1
 4 20 l 1x90
 4 24 l 1
 8 24 l 1x48
 8 28 l 1x24
EndSplineSet
Validated: 5
EndChar

StartChar: parenleft
Encoding: 40 40 9
Width: 20
Flags: W
HStem: 0 4<8 12> 4 4<4 8> 20 4<4 8> 24 4<8 12>
VStem: 0 4<8 20> 4 4<4 8 20 24> 8 4<0 4 24 28>
LayerCount: 2
Fore
SplineSet
8 28 m 1x12
 12 28 l 1
 12 24 l 1x12
 8 24 l 1
 8 20 l 1x24
 4 20 l 1
 4 8 l 1
 0 8 l 1
 0 20 l 1
 4 20 l 1x68
 4 24 l 1
 8 24 l 1x64
 8 28 l 1x12
8 4 m 1x84
 4 4 l 1x44
 4 8 l 1x48
 8 8 l 1x44
 8 4 l 1x84
8 4 m 1x84
 12 4 l 1
 12 0 l 1
 8 0 l 1x82
 8 4 l 1x84
EndSplineSet
Validated: 5
EndChar

StartChar: parenright
Encoding: 41 41 10
Width: 20
Flags: W
HStem: 0 4<0 4> 4 4<4 8> 20 4<4 8> 24 4<0 4>
VStem: 0 4<0 4 24 28> 4 4<4 8 20 24>
LayerCount: 2
Fore
SplineSet
0 28 m 1x18
 4 28 l 1x18
 4 24 l 1x28
 0 24 l 1
 0 28 l 1x18
4 4 m 1x88
 4 0 l 1
 0 0 l 1
 0 4 l 1
 4 4 l 1x88
4 4 m 1
 4 8 l 1
 8 8 l 1
 8 4 l 1x44
 4 4 l 1
8 8 m 1
 8 20 l 1
 4 20 l 1x64
 4 24 l 1x68
 8 24 l 1
 8 20 l 1
 12 20 l 1x64
 12 8 l 1
 8 8 l 1
EndSplineSet
Validated: 5
EndChar

StartChar: asterisk
Encoding: 42 42 11
Width: 28
Flags: W
HStem: 4 4<0 4 16 20> 8 4<4 8 12 16> 16 4<4 8 12 16> 20 4<0 4 16 20>
VStem: 0 4<4 8 20 24> 4 12<8 12 16 20> 8 4<0 8 12 16 20 28> 16 4<4 8 20 24>
LayerCount: 2
Fore
SplineSet
16 24 m 1x11
 20 24 l 1
 20 20 l 1x11
 16 20 l 1x24
 16 24 l 1x11
0 24 m 1x18
 4 24 l 1x18
 4 20 l 1x28
 0 20 l 1
 0 24 l 1x18
8 28 m 1x1a
 12 28 l 1
 12 24 l 1x1a
 12 20 l 1x2a
 16 20 l 1
 16 16 l 1x24
 12 16 l 1
 12 12 l 1x62
 16 12 l 1x64
 16 8 l 1x84
 20 8 l 1
 20 4 l 1
 16 4 l 1x81
 16 8 l 1x84
 12 8 l 1
 12 0 l 1
 8 0 l 1
 8 8 l 1x42
 4 8 l 1
 4 4 l 1
 0 4 l 1
 0 8 l 1
 4 8 l 1x8a
 4 12 l 1x44
 8 12 l 1
 8 16 l 1x62
 4 16 l 1x64
 4 20 l 1
 8 20 l 1x6a
 8 24 l 1
 8 28 l 1x1a
EndSplineSet
Validated: 5
EndChar

StartChar: plus
Encoding: 43 43 12
Width: 28
Flags: W
HStem: 4 20G<8 12> 12 4<0 8 12 20>
VStem: 8 4<4 12 16 24>
LayerCount: 2
Fore
SplineSet
8 24 m 1xa0
 12 24 l 1xa0
 12 16 l 1
 20 16 l 1
 20 12 l 1
 12 12 l 1x60
 12 4 l 1
 8 4 l 1xa0
 8 12 l 1
 0 12 l 1
 0 16 l 1
 8 16 l 1x60
 8 24 l 1xa0
EndSplineSet
Validated: 1
EndChar

StartChar: comma
Encoding: 44 44 13
Width: 16
Flags: W
HStem: -4 4<0 4> 0 8<4 8>
VStem: 0 4<-4 0> 4 4<0 8>
LayerCount: 2
Fore
SplineSet
4 8 m 1x50
 8 8 l 1
 8 0 l 1x50
 4 0 l 1
 4 -4 l 1
 0 -4 l 1
 0 0 l 1
 4 0 l 1xa0
 4 8 l 1x50
EndSplineSet
Validated: 5
EndChar

StartChar: hyphen
Encoding: 45 45 14
Width: 28
Flags: W
HStem: 8 4<0 20>
VStem: 0 20<8 12>
LayerCount: 2
Fore
SplineSet
0 12 m 1
 20 12 l 1
 20 8 l 1
 0 8 l 1
 0 12 l 1
EndSplineSet
Validated: 1
EndChar

StartChar: period
Encoding: 46 46 15
Width: 12
Flags: W
HStem: 0 4<0 4>
VStem: 0 4<0 4>
LayerCount: 2
Fore
SplineSet
0 4 m 1
 4 4 l 1
 4 0 l 1
 0 0 l 1
 0 4 l 1
EndSplineSet
Validated: 1
EndChar

StartChar: slash
Encoding: 47 47 16
Width: 36
Flags: W
HStem: 0 4<0 4> 4 4<4 8> 8 4<8 12> 12 4<12 16> 16 4<16 20> 20 4<20 24> 24 4<24 28>
VStem: 0 4<0 4> 4 4<4 8> 8 4<8 12> 12 4<12 16> 16 4<16 20> 20 4<20 24> 24 4<24 28>
LayerCount: 2
Fore
SplineSet
24 28 m 1x0204
 28 28 l 1
 28 24 l 1x0204
 24 24 l 1
 24 20 l 1x0408
 20 20 l 1
 20 16 l 1x0810
 16 16 l 1
 16 12 l 1x1020
 12 12 l 1
 12 8 l 1x2040
 8 8 l 1
 8 4 l 1x4080
 4 4 l 1
 4 0 l 1
 0 0 l 1
 0 4 l 1
 4 4 l 1x81
 4 8 l 1
 8 8 l 1x4080
 8 12 l 1
 12 12 l 1x2040
 12 16 l 1
 16 16 l 1x1020
 16 20 l 1
 20 20 l 1x0810
 20 24 l 1
 24 24 l 1x0408
 24 28 l 1x0204
EndSplineSet
Validated: 5
EndChar

StartChar: zero
Encoding: 48 48 17
Width: 28
Flags: W
HStem: 0 4<4 16> 12 4<8 12> 16 4<12 16> 24 4<4 16>
VStem: 0 8<8 12> 0 4<4 8 12 24> 4 12<0 4 24 28> 12 8<16 20> 16 4<4 16 20 24>
LayerCount: 2
Fore
SplineSet
4 28 m 1xd2
 16 28 l 1
 16 24 l 1xd2
 20 24 l 1xd080
 20 16 l 1xb1
 20 8 l 1
 20 4 l 1xb080
 16 4 l 1xb2
 16 8 l 1
 16 16 l 1xb080
 12 16 l 1
 12 12 l 1
 8 12 l 1
 8 16 l 1
 12 16 l 1xd9
 12 20 l 1xb9
 16 20 l 1xb080
 16 24 l 1xb2
 4 24 l 1
 4 12 l 1xd4
 8 12 l 1
 8 8 l 1xd8
 4 8 l 1
 4 4 l 1
 0 4 l 1xd4
 0 8 l 1xd8
 0 24 l 1
 4 24 l 1xd4
 4 28 l 1xd2
16 4 m 1
 16 0 l 1
 4 0 l 1x92
 4 4 l 1x94
 16 4 l 1
EndSplineSet
Validated: 5
EndChar

StartChar: one
Encoding: 49 49 18
Width: 28
Flags: W
HStem: 0 4<0 8 12 20> 16 4<0 4> 20 4<4 8>
VStem: 0 4<16 20> 4 8<20 24> 8 4<4 20 24 28>
LayerCount: 2
Fore
SplineSet
8 28 m 1xa4
 12 28 l 1xa4
 12 20 l 1xa8
 12 4 l 1
 20 4 l 1
 20 0 l 1
 0 0 l 1
 0 4 l 1
 8 4 l 1
 8 20 l 1xb4
 4 20 l 1
 4 16 l 1
 0 16 l 1
 0 20 l 1
 4 20 l 1xd4
 4 24 l 1xa8
 8 24 l 1
 8 28 l 1xa4
EndSplineSet
Validated: 5
EndChar

StartChar: two
Encoding: 50 50 19
Width: 28
Flags: W
HStem: 0 8<0 4> 0 4<4 20> 8 4<4 12> 12 4<12 16> 16 8<16 20> 20 4<0 4> 24 4<4 16>
VStem: 0 4<4 8 20 24> 4 8<8 12> 12 4<12 16> 16 4<16 24>
LayerCount: 2
Fore
SplineSet
4 28 m 1x0280
 16 28 l 1x02a0
 16 24 l 1
 20 24 l 1
 20 16 l 1x08a0
 16 16 l 1
 16 12 l 1x1040
 12 12 l 1
 12 8 l 1x2080
 4 8 l 1x81
 4 4 l 1
 20 4 l 1
 20 0 l 1x4120
 0 0 l 1
 0 8 l 1
 4 8 l 1x8120
 4 12 l 1
 12 12 l 1x2080
 12 16 l 1
 16 16 l 1x1040
 16 24 l 1x0820
 4 24 l 1
 4 20 l 1
 0 20 l 1
 0 24 l 1
 4 24 l 1x0520
 4 28 l 1x0280
EndSplineSet
Validated: 5
EndChar

StartChar: three
Encoding: 51 51 20
Width: 28
Flags: W
HStem: 0 4<4 16> 4 8<16 20> 4 4<0 4> 12 4<8 16> 16 8<16 20> 20 4<0 4> 24 4<4 16>
VStem: 0 4<4 8 20 24> 4 12<0 4 24 28> 16 4<4 12 16 24>
LayerCount: 2
Fore
SplineSet
0 8 m 1x21
 4 8 l 1x21
 4 4 l 1x81
 0 4 l 1
 0 8 l 1x21
4 28 m 1x0280
 16 28 l 1x0280
 16 24 l 1x0880
 20 24 l 1
 20 16 l 1x0840
 16 16 l 1x1040
 16 12 l 1x4040
 8 12 l 1
 8 16 l 1
 16 16 l 1x1040
 16 24 l 1x0880
 4 24 l 1
 4 20 l 1
 0 20 l 1
 0 24 l 1
 4 24 l 1x05
 4 28 l 1x0280
16 4 m 1x8080
 16 8 l 1x2040
 16 12 l 1
 20 12 l 1x4040
 20 8 l 1x2040
 20 4 l 1x4040
 16 4 l 1x8080
16 4 m 1x8080
 16 0 l 1
 4 0 l 1x8080
 4 4 l 1x81
 16 4 l 1x8080
EndSplineSet
Validated: 5
EndChar

StartChar: four
Encoding: 52 52 21
Width: 28
Flags: W
HStem: 8 8<0 4> 8 4<4 12 16 20> 16 4<4 8> 20 4<8 12>
VStem: 0 4<12 16> 4 4<16 20> 8 8<20 24> 12 4<0 8 12 20 24 28>
LayerCount: 2
Fore
SplineSet
12 28 m 1x11
 16 28 l 1x11
 16 20 l 1x12
 16 16 l 1
 16 12 l 1
 20 12 l 1
 20 8 l 1
 16 8 l 1
 16 0 l 1
 12 0 l 1
 12 8 l 1x61
 0 8 l 1
 0 16 l 1
 4 16 l 1x89
 4 12 l 1
 12 12 l 1
 12 16 l 1x69
 12 20 l 1x19
 8 20 l 1
 8 16 l 1x25
 4 16 l 1x88
 4 20 l 1
 8 20 l 1x24
 8 24 l 1x12
 12 24 l 1
 12 28 l 1x11
EndSplineSet
Validated: 5
EndChar

StartChar: five
Encoding: 53 53 22
Width: 28
Flags: W
HStem: 0 4<4 16> 4 4<0 4> 16 4<4 16> 24 4<4 20>
VStem: 0 4<4 8 20 24> 16 4<4 16>
LayerCount: 2
Fore
SplineSet
0 8 m 1x7c
 4 8 l 1x7c
 4 4 l 1xbc
 0 4 l 1
 0 8 l 1x7c
0 28 m 1
 20 28 l 1
 20 24 l 1
 4 24 l 1
 4 20 l 1
 16 20 l 1
 16 16 l 1
 0 16 l 1
 0 24 l 1
 0 28 l 1
16 4 m 1xbc
 16 8 l 1
 16 16 l 1
 20 16 l 1
 20 8 l 1
 20 4 l 1x7c
 16 4 l 1xbc
16 4 m 1xbc
 16 0 l 1
 4 0 l 1
 4 4 l 1
 16 4 l 1xbc
EndSplineSet
Validated: 5
EndChar

StartChar: six
Encoding: 54 54 23
Width: 28
Flags: W
HStem: 0 4<4 16> 4 8<16 20> 12 4<4 16> 20 4<4 8> 24 4<8 20>
VStem: 0 4<4 12 16 20> 16 4<4 12>
LayerCount: 2
Fore
SplineSet
8 28 m 1x0e
 20 28 l 1
 20 24 l 1x0e
 8 24 l 1
 8 20 l 1
 4 20 l 1
 4 16 l 1
 16 16 l 1x36
 16 12 l 1
 20 12 l 1
 20 4 l 1x46
 16 4 l 1x86
 16 12 l 1x46
 4 12 l 1
 4 4 l 1xa6
 0 4 l 1x46
 0 12 l 1
 0 20 l 1
 4 20 l 1
 4 24 l 1
 8 24 l 1x36
 8 28 l 1x0e
16 4 m 1x86
 16 0 l 1
 4 0 l 1
 4 4 l 1
 16 4 l 1x86
EndSplineSet
Validated: 5
EndChar

StartChar: seven
Encoding: 55 55 24
Width: 28
Flags: W
HStem: 12 4<8 12> 16 4<12 16> 20 8<16 20> 24 4<0 16>
VStem: 4 4<0 12> 8 4<12 16> 12 4<16 20> 16 4<20 24>
LayerCount: 2
Fore
SplineSet
0 28 m 1x51
 20 28 l 1
 20 20 l 1x21
 16 20 l 1
 16 16 l 1x42
 12 16 l 1
 12 12 l 1x84
 8 12 l 1
 8 0 l 1
 4 0 l 1
 4 12 l 1
 8 12 l 1x88
 8 16 l 1
 12 16 l 1x84
 12 20 l 1
 16 20 l 1x42
 16 24 l 1
 0 24 l 1
 0 28 l 1x51
EndSplineSet
Validated: 5
EndChar

StartChar: eight
Encoding: 56 56 25
Width: 28
Flags: W
HStem: 0 4<4 16> 4 8<0 4 16 20> 12 4<4 16> 16 8<0 4 16 20> 24 4<4 16>
VStem: 0 4<4 12 16 24> 4 12<0 4 12 16 24 28> 16 4<4 12 16 24>
LayerCount: 2
Fore
SplineSet
4 28 m 5x0a
 16 28 l 5x0a
 16 24 l 5x12
 20 24 l 5
 20 16 l 5x11
 16 16 l 5x22
 16 24 l 5x12
 4 24 l 5x14
 4 16 l 5x24
 0 16 l 5
 0 24 l 5
 4 24 l 5x14
 4 28 l 5x0a
16 4 m 5x82
 16 12 l 5x42
 20 12 l 5
 20 4 l 5x41
 16 4 l 5x82
16 4 m 5x82
 16 0 l 5
 4 0 l 5x82
 4 4 l 5x84
 0 4 l 5
 0 12 l 5
 4 12 l 5x44
 4 4 l 5x84
 16 4 l 5x82
4 12 m 5x44
 4 16 l 5x24
 16 16 l 5x22
 16 12 l 5x42
 4 12 l 5x44
EndSplineSet
Validated: 5
EndChar

StartChar: nine
Encoding: 57 57 26
Width: 28
Flags: W
HStem: 0 4<0 12> 4 4<12 16> 12 4<4 16> 16 8<0 4> 24 4<4 16>
VStem: 0 4<16 24> 12 4<4 8> 16 4<8 12 16 24>
LayerCount: 2
Fore
SplineSet
4 28 m 1x0d
 16 28 l 1
 16 24 l 1
 20 24 l 1x0d
 20 16 l 1
 20 8 l 1x55
 16 8 l 1
 16 4 l 1x56
 12 4 l 1
 12 0 l 1
 0 0 l 1
 0 4 l 1
 12 4 l 1x86
 12 8 l 1
 16 8 l 1x46
 16 12 l 1
 4 12 l 1
 4 16 l 1x65
 0 16 l 1
 0 24 l 1
 4 24 l 1x15
 4 16 l 1
 16 16 l 1
 16 24 l 1x2d
 4 24 l 1x15
 4 28 l 1x0d
EndSplineSet
Validated: 5
EndChar

StartChar: colon
Encoding: 58 58 27
Width: 12
Flags: W
HStem: 4 4<0 4> 16 4<0 4>
VStem: 0 4<4 8 16 20>
LayerCount: 2
Fore
SplineSet
0 8 m 1
 4 8 l 1
 4 4 l 1
 0 4 l 1
 0 8 l 1
0 20 m 1
 4 20 l 1
 4 16 l 1
 0 16 l 1
 0 20 l 1
EndSplineSet
Validated: 1
EndChar

StartChar: semicolon
Encoding: 59 59 28
Width: 16
Flags: W
HStem: -4 4<0 4> 0 8<4 8> 16 4<4 8>
VStem: 0 4<-4 0> 4 4<0 8 16 20>
LayerCount: 2
Fore
SplineSet
4 8 m 1x68
 8 8 l 1
 8 0 l 1x68
 4 0 l 1
 4 -4 l 1
 0 -4 l 1
 0 0 l 1
 4 0 l 1xb0
 4 8 l 1x68
4 20 m 1
 8 20 l 1
 8 16 l 1
 4 16 l 1
 4 20 l 1
EndSplineSet
Validated: 5
EndChar

StartChar: less
Encoding: 60 60 29
Width: 24
Flags: W
HStem: 0 4<12 16> 4 4<8 12> 8 4<4 8> 12 4<0 4> 16 4<4 8> 20 4<8 12> 24 4<12 16>
VStem: 0 4<12 16> 4 4<8 12 16 20> 8 4<4 8 20 24> 12 4<0 4 24 28>
LayerCount: 2
Fore
SplineSet
12 28 m 1x0220
 16 28 l 1
 16 24 l 1x0220
 12 24 l 1
 12 20 l 1x0440
 8 20 l 1
 8 16 l 1x0880
 4 16 l 1x11
 4 12 l 1x21
 0 12 l 1
 0 16 l 1
 4 16 l 1x11
 4 20 l 1
 8 20 l 1x0880
 8 24 l 1
 12 24 l 1x0440
 12 28 l 1x0220
12 4 m 1x8040
 8 4 l 1x4040
 8 8 l 1x4080
 4 8 l 1x2080
 4 12 l 1x21
 8 12 l 1x2080
 8 8 l 1x4080
 12 8 l 1x4040
 12 4 l 1x8040
12 4 m 1x8040
 16 4 l 1
 16 0 l 1
 12 0 l 1x8020
 12 4 l 1x8040
EndSplineSet
Validated: 5
EndChar

StartChar: equal
Encoding: 61 61 30
Width: 28
Flags: W
HStem: 8 4<0 20> 16 4<0 20>
VStem: 0 20<8 12 16 20>
LayerCount: 2
Fore
SplineSet
0 12 m 1
 20 12 l 1
 20 8 l 1
 0 8 l 1
 0 12 l 1
0 20 m 1
 20 20 l 1
 20 16 l 1
 0 16 l 1
 0 20 l 1
EndSplineSet
Validated: 1
EndChar

StartChar: greater
Encoding: 62 62 31
Width: 24
Flags: W
HStem: 0 4<0 4> 4 4<4 8> 8 4<8 12> 12 4<12 16> 16 4<8 12> 20 4<4 8> 24 4<0 4>
VStem: 0 4<0 4 24 28> 4 4<4 8 20 24> 8 4<8 12 16 20>
LayerCount: 2
Fore
SplineSet
0 28 m 1x03
 4 28 l 1x03
 4 24 l 1x05
 0 24 l 1
 0 28 l 1x03
4 4 m 1x81
 4 0 l 1
 0 0 l 1
 0 4 l 1
 4 4 l 1x81
4 4 m 1
 4 8 l 1
 8 8 l 1
 8 4 l 1x4080
 4 4 l 1
8 8 m 1
 8 12 l 1
 12 12 l 1
 12 8 l 1x2040
 8 8 l 1
12 12 m 1
 12 16 l 1x1040
 8 16 l 1x0840
 8 20 l 1x0880
 4 20 l 1x0480
 4 24 l 1x05
 8 24 l 1x0480
 8 20 l 1x0880
 12 20 l 1x0840
 12 16 l 1
 16 16 l 1
 16 12 l 1x1040
 12 12 l 1
EndSplineSet
Validated: 5
EndChar

StartChar: question
Encoding: 63 63 32
Width: 32
Flags: W
HStem: 0 4<12 16> 8 8<12 16> 16 4<16 20> 20 4<0 4 20 24>
VStem: 0 4<20 24> 12 4<0 4 8 16> 20 4<20 24>
LayerCount: 2
Fore
SplineSet
12 4 m 1x8e
 16 4 l 1
 16 0 l 1
 12 0 l 1
 12 4 l 1x8e
4 28 m 1
 20 28 l 1
 20 24 l 1
 24 24 l 1
 24 20 l 1x9e
 20 20 l 1
 20 16 l 1xae
 16 16 l 1
 16 8 l 1
 12 8 l 1
 12 16 l 1
 16 16 l 1xce
 16 20 l 1
 20 20 l 1xae
 20 24 l 1
 4 24 l 1
 4 20 l 1
 0 20 l 1
 0 24 l 1
 4 24 l 1x9e
 4 28 l 1
EndSplineSet
Validated: 5
EndChar

StartChar: at
Encoding: 64 64 33
Width: 32
Flags: W
HStem: 0 4<4 20> 4 20G<20 24> 8 4<12 16> 12 4<8 12> 16 4<12 16> 24 4<4 20>
VStem: 0 4<4 24> 8 4<12 16> 12 8<8 12> 12 4<16 20> 16 8<12 16> 20 4<16 24>
LayerCount: 2
Fore
SplineSet
12 20 m 1x0a40
 16 20 l 1
 16 16 l 1
 20 16 l 1
 20 20 l 1x0a50
 20 24 l 1
 24 24 l 1x4250
 24 20 l 1x0a50
 24 16 l 1x0a20
 24 12 l 1x1220
 20 12 l 1x1280
 20 8 l 1
 12 8 l 1x2280
 12 12 l 1x23
 8 12 l 1
 8 16 l 1
 12 16 l 1x13
 12 12 l 1
 16 12 l 1x2320
 16 16 l 1x2a40
 12 16 l 1x13
 12 20 l 1x0a40
4 28 m 1x0610
 20 28 l 1x0610
 20 24 l 1x4210
 4 24 l 1
 4 4 l 1x8610
 0 4 l 1x4210
 0 24 l 1
 4 24 l 1
 4 28 l 1x0610
4 4 m 1x8210
 20 4 l 1
 20 0 l 1
 4 0 l 1
 4 4 l 1x8210
EndSplineSet
Validated: 5
EndChar

StartChar: A
Encoding: 65 65 34
Width: 32
Flags: W
HStem: 0 20G<0 4> 12 4<4 20> 20 4<4 8 16 20>
VStem: 0 4<0 12 16 20> 16 4<20 24> 20 4<0 12 16 20>
LayerCount: 2
Fore
SplineSet
8 28 m 1x38
 16 28 l 1
 16 24 l 1
 20 24 l 1
 20 20 l 1x38
 24 20 l 1
 24 16 l 1
 24 12 l 1x74
 24 0 l 1
 20 0 l 1x94
 20 12 l 1
 4 12 l 1x54
 4 0 l 1
 0 0 l 1x94
 0 12 l 1x54
 0 20 l 1
 4 20 l 1x94
 4 16 l 1
 20 16 l 1x54
 20 20 l 1
 16 20 l 1
 16 24 l 1
 8 24 l 1
 8 20 l 1x78
 4 20 l 1x98
 4 24 l 1
 8 24 l 1
 8 28 l 1x38
EndSplineSet
Validated: 5
EndChar

StartChar: B
Encoding: 66 66 35
Width: 32
Flags: W
HStem: 0 4<4 20> 4 8<20 24> 12 4<4 20> 16 8<20 24> 24 4<4 20>
VStem: 0 4<4 12 16 24> 20 4<4 12 16 24>
LayerCount: 2
Fore
SplineSet
0 28 m 1xae
 20 28 l 1xae
 20 24 l 1
 24 24 l 1
 24 16 l 1x16
 20 16 l 1x26
 20 24 l 1x16
 4 24 l 1
 4 16 l 1
 20 16 l 1x2e
 20 12 l 1
 24 12 l 1
 24 4 l 1x46
 20 4 l 1x86
 20 12 l 1x46
 4 12 l 1
 4 4 l 1
 20 4 l 1
 20 0 l 1
 0 0 l 1
 0 12 l 1
 0 24 l 1
 0 28 l 1xae
EndSplineSet
Validated: 5
EndChar

StartChar: C
Encoding: 67 67 36
Width: 32
Flags: W
HStem: 0 4<4 20> 4 4<20 24> 20 4<20 24> 24 4<4 20>
VStem: 0 4<4 24> 20 4<4 8 20 24>
LayerCount: 2
Fore
SplineSet
20 8 m 1x4c
 24 8 l 1
 24 4 l 1x4c
 20 4 l 1x8c
 20 8 l 1x4c
4 28 m 1x5c
 20 28 l 1x5c
 20 24 l 1
 24 24 l 1
 24 20 l 1
 20 20 l 1
 20 24 l 1x2c
 4 24 l 1
 4 4 l 1x9c
 0 4 l 1
 0 24 l 1
 4 24 l 1
 4 28 l 1x5c
20 4 m 1x8c
 20 0 l 1
 4 0 l 1
 4 4 l 1
 20 4 l 1x8c
EndSplineSet
Validated: 5
EndChar

StartChar: D
Encoding: 68 68 37
Width: 32
Flags: W
HStem: 0 20G<20 24> 0 4<4 16> 4 4<16 20> 20 4<16 20> 24 4<4 16>
VStem: 0 4<4 24> 16 4<4 8 20 24>
LayerCount: 2
Fore
SplineSet
0 28 m 1x4e
 16 28 l 1x4e
 16 24 l 1
 20 24 l 1x16
 20 20 l 1x86
 16 20 l 1
 16 24 l 1x16
 4 24 l 1
 4 4 l 1
 16 4 l 1x4e
 16 8 l 1
 20 8 l 1
 20 4 l 1x26
 16 4 l 1
 16 0 l 1
 0 0 l 1
 0 24 l 1
 0 28 l 1x4e
20 8 m 1x26
 20 20 l 1
 24 20 l 1x86
 24 8 l 1
 20 8 l 1x26
EndSplineSet
Validated: 5
EndChar

StartChar: E
Encoding: 69 69 38
Width: 32
Flags: W
HStem: 0 4<4 24> 12 4<4 16> 24 4<4 24>
VStem: 0 4<4 12 16 24>
CounterMasks: 1 e0
LayerCount: 2
Fore
SplineSet
0 28 m 1
 24 28 l 1
 24 24 l 1
 4 24 l 1
 4 16 l 1
 16 16 l 1
 16 12 l 1
 4 12 l 1
 4 4 l 1
 24 4 l 1
 24 0 l 1
 0 0 l 1
 0 12 l 1
 0 24 l 1
 0 28 l 1
EndSplineSet
Validated: 1
EndChar

StartChar: F
Encoding: 70 70 39
Width: 32
Flags: W
HStem: 12 4<4 16> 24 4<4 24>
VStem: 0 4<0 12 16 24>
LayerCount: 2
Fore
SplineSet
0 28 m 1
 24 28 l 1
 24 24 l 1
 4 24 l 1
 4 16 l 1
 16 16 l 1
 16 12 l 1
 4 12 l 1
 4 0 l 1
 0 0 l 1
 0 12 l 1
 0 24 l 1
 0 28 l 1
EndSplineSet
Validated: 1
EndChar

StartChar: G
Encoding: 71 71 40
Width: 32
Flags: W
HStem: 0 4<4 20> 12 4<12 20> 20 4<20 24> 24 4<4 20>
VStem: 0 4<4 24> 20 4<4 12 20 24>
LayerCount: 2
Fore
SplineSet
12 16 m 1xcc
 24 16 l 1
 24 4 l 1
 20 4 l 1
 20 12 l 1
 12 12 l 1
 12 16 l 1xcc
4 28 m 1xdc
 20 28 l 1xdc
 20 24 l 1
 24 24 l 1
 24 20 l 1
 20 20 l 1
 20 24 l 1xec
 4 24 l 1
 4 4 l 1
 0 4 l 1
 0 24 l 1
 4 24 l 1
 4 28 l 1xdc
20 4 m 1
 20 0 l 1
 4 0 l 1
 4 4 l 1
 20 4 l 1
EndSplineSet
Validated: 5
EndChar

StartChar: H
Encoding: 72 72 41
Width: 32
Flags: W
HStem: 12 4<4 20>
VStem: 0 4<0 12 16 28> 20 4<0 12 16 28>
LayerCount: 2
Fore
SplineSet
20 28 m 1
 24 28 l 1
 24 16 l 1
 24 12 l 1
 24 0 l 1
 20 0 l 1
 20 12 l 1
 4 12 l 1
 4 0 l 1
 0 0 l 1
 0 12 l 1
 0 28 l 1
 4 28 l 1
 4 16 l 1
 20 16 l 1
 20 28 l 1
EndSplineSet
Validated: 1
EndChar

StartChar: I
Encoding: 73 73 42
Width: 20
Flags: W
HStem: 0 4<0 4 8 12> 24 4<0 4 8 12>
VStem: 0 12<0 4 24 28>
LayerCount: 2
Fore
SplineSet
0 28 m 1
 12 28 l 1
 12 24 l 1
 8 24 l 1
 8 4 l 1
 12 4 l 1
 12 0 l 1
 0 0 l 1
 0 4 l 1
 4 4 l 1
 4 24 l 1
 0 24 l 1
 0 28 l 1
EndSplineSet
Validated: 1
EndChar

StartChar: J
Encoding: 74 74 43
Width: 28
Flags: W
HStem: 0 4<4 16> 4 4<0 4>
VStem: 0 4<4 8> 16 4<4 28>
LayerCount: 2
Fore
SplineSet
0 8 m 1x70
 4 8 l 1x70
 4 4 l 1xb0
 0 4 l 1
 0 8 l 1x70
16 28 m 1
 20 28 l 1
 20 8 l 1
 20 4 l 1x70
 16 4 l 1xb0
 16 8 l 1
 16 28 l 1
16 4 m 1xb0
 16 0 l 1
 4 0 l 1
 4 4 l 1
 16 4 l 1xb0
EndSplineSet
Validated: 5
EndChar

StartChar: K
Encoding: 75 75 44
Width: 32
Flags: W
HStem: 0 4<20 24> 4 4<16 20> 8 4<12 16> 12 4<4 12> 16 4<12 16> 20 4<16 20> 24 4<20 24>
VStem: 0 4<0 12 16 28> 12 4<8 12 16 20> 16 4<4 8 20 24> 20 4<0 4 24 28>
LayerCount: 2
Fore
SplineSet
20 28 m 1x0320
 24 28 l 1
 24 24 l 1x0320
 20 24 l 1
 20 20 l 1x0540
 16 20 l 1
 16 16 l 1x0980
 12 16 l 1x1180
 12 20 l 1
 16 20 l 1x0980
 16 24 l 1
 20 24 l 1x0540
 20 28 l 1x0320
0 28 m 1
 4 28 l 1
 4 16 l 1
 12 16 l 1x9380
 12 12 l 1
 16 12 l 1x2180
 16 8 l 1x4180
 12 8 l 1
 12 12 l 1x2180
 4 12 l 1
 4 0 l 1
 0 0 l 1
 0 12 l 1x9180
 0 28 l 1
20 4 m 1x8140
 16 4 l 1x4140
 16 8 l 1x4180
 20 8 l 1x4140
 20 4 l 1x8140
20 4 m 1x8140
 24 4 l 1
 24 0 l 1
 20 0 l 1x8120
 20 4 l 1x8140
EndSplineSet
Validated: 5
EndChar

StartChar: L
Encoding: 76 76 45
Width: 32
Flags: W
HStem: 0 4<4 24>
VStem: 0 4<4 28>
LayerCount: 2
Fore
SplineSet
0 28 m 1
 4 28 l 1
 4 4 l 1
 24 4 l 1
 24 0 l 1
 0 0 l 1
 0 28 l 1
EndSplineSet
Validated: 1
EndChar

StartChar: M
Encoding: 77 77 46
Width: 32
Flags: W
HStem: 16 4<8 16> 20 4<4 8 16 20>
VStem: 0 8<20 24> 0 4<0 20 24 28> 8 8<16 20> 16 8<20 24> 20 4<0 20 24 28>
LayerCount: 2
Fore
SplineSet
20 28 m 1x42
 24 28 l 1x42
 24 20 l 1x44
 24 0 l 1
 20 0 l 1
 20 20 l 1x42
 16 20 l 1
 16 16 l 1
 8 16 l 1x8a
 8 20 l 1xa0
 16 20 l 1x88
 16 24 l 1x44
 20 24 l 1
 20 28 l 1x42
0 28 m 1x50
 4 28 l 1
 4 24 l 1x50
 8 24 l 1x60
 8 20 l 1xa0
 4 20 l 1
 4 0 l 1
 0 0 l 1x50
 0 20 l 1x60
 0 28 l 1x50
EndSplineSet
Validated: 5
EndChar

StartChar: N
Encoding: 78 78 47
Width: 32
Flags: W
HStem: 8 4<16 20> 12 4<12 16> 16 4<8 12>
VStem: 0 8<20 24> 0 4<0 20 24 28> 8 4<16 20> 12 4<12 16> 16 8<8 12> 20 4<0 8 12 28>
LayerCount: 2
Fore
SplineSet
20 28 m 1xa280
 24 28 l 1
 24 20 l 1xa280
 24 12 l 1x41
 24 0 l 1
 20 0 l 1
 20 8 l 1x8080
 16 8 l 1x81
 16 12 l 1x82
 12 12 l 1x42
 12 16 l 1x44
 8 16 l 1x24
 8 20 l 1x30
 12 20 l 1x24
 12 16 l 1x44
 16 16 l 1x42
 16 12 l 1
 20 12 l 1
 20 20 l 1
 20 28 l 1xa280
0 28 m 1x28
 4 28 l 1
 4 24 l 1x28
 8 24 l 1
 8 20 l 1x30
 4 20 l 1
 4 0 l 1
 0 0 l 1x28
 0 20 l 1x30
 0 28 l 1x28
EndSplineSet
Validated: 5
EndChar

StartChar: O
Encoding: 79 79 48
Width: 32
Flags: W
HStem: 0 4<4 20> 24 4<4 20>
VStem: 0 4<4 24> 20 4<4 24>
LayerCount: 2
Fore
SplineSet
4 28 m 1
 20 28 l 1
 20 24 l 1
 24 24 l 1
 24 4 l 1
 20 4 l 1
 20 24 l 1
 4 24 l 1
 4 4 l 1
 0 4 l 1
 0 24 l 1
 4 24 l 1
 4 28 l 1
20 4 m 1
 20 0 l 1
 4 0 l 1
 4 4 l 1
 20 4 l 1
EndSplineSet
Validated: 5
EndChar

StartChar: P
Encoding: 80 80 49
Width: 32
Flags: W
HStem: 12 4<4 20> 16 8<20 24> 24 4<4 20>
VStem: 0 4<0 12 16 24> 20 4<16 24>
LayerCount: 2
Fore
SplineSet
0 28 m 1xb8
 20 28 l 1xb8
 20 24 l 1
 24 24 l 1
 24 16 l 1x58
 20 16 l 1x98
 20 24 l 1x58
 4 24 l 1
 4 16 l 1
 20 16 l 1
 20 12 l 1
 4 12 l 1
 4 0 l 1
 0 0 l 1
 0 12 l 1
 0 24 l 1
 0 28 l 1xb8
EndSplineSet
Validated: 5
EndChar

StartChar: Q
Encoding: 81 81 50
Width: 32
Flags: W
HStem: 0 4<4 16 20 24> 8 4<12 16> 24 4<4 20>
VStem: 0 4<4 24> 12 4<8 12> 16 4<4 8> 20 4<0 4 8 24>
LayerCount: 2
Fore
SplineSet
12 12 m 1xf8
 16 12 l 1
 16 8 l 1
 12 8 l 1
 12 12 l 1xf8
4 28 m 1
 20 28 l 1
 20 24 l 1
 24 24 l 1
 24 12 l 1
 24 8 l 1xf2
 20 8 l 1xf4
 20 12 l 1
 20 24 l 1xf2
 4 24 l 1
 4 4 l 1
 0 4 l 1
 0 24 l 1
 4 24 l 1
 4 28 l 1
20 4 m 1xf4
 16 4 l 1xf4
 16 8 l 1xf8
 20 8 l 1
 20 4 l 1xf4
20 4 m 1
 24 4 l 1
 24 0 l 1
 20 0 l 1xf2
 20 4 l 1
16 4 m 1xf4
 16 0 l 1
 4 0 l 1
 4 4 l 1
 16 4 l 1xf4
EndSplineSet
Validated: 5
EndChar

StartChar: R
Encoding: 82 82 51
Width: 32
Flags: W
HStem: 0 4<20 24> 4 4<16 20> 8 8<12 16> 12 4<4 12 16 20> 16 8<20 24> 24 4<4 20>
VStem: 0 4<0 12 16 24> 16 4<4 8> 20 4<0 4 16 24>
LayerCount: 2
Fore
SplineSet
0 28 m 1x97
 20 28 l 1x9680
 20 24 l 1
 24 24 l 1
 24 16 l 1x0a80
 20 16 l 1x1280
 20 24 l 1x0a80
 4 24 l 1
 4 16 l 1
 20 16 l 1
 20 12 l 1x1680
 16 12 l 1
 16 8 l 1x57
 12 8 l 1x23
 12 12 l 1
 4 12 l 1
 4 0 l 1
 0 0 l 1
 0 12 l 1
 0 24 l 1
 0 28 l 1x97
20 4 m 1x83
 16 4 l 1
 16 8 l 1
 20 8 l 1x43
 20 4 l 1x83
20 4 m 1x83
 24 4 l 1
 24 0 l 1
 20 0 l 1x8280
 20 4 l 1x83
EndSplineSet
Validated: 5
EndChar

StartChar: S
Encoding: 83 83 52
Width: 32
Flags: W
HStem: 0 4<4 20> 4 8<20 24> 4 4<0 4> 12 4<4 20> 16 8<0 4> 20 4<20 24> 24 4<4 20>
VStem: 0 4<4 8 16 24> 4 16<0 4 12 16 24 28> 20 4<4 12 20 24>
LayerCount: 2
Fore
SplineSet
0 8 m 1x21
 4 8 l 1x21
 4 4 l 1x81
 0 4 l 1
 0 8 l 1x21
4 28 m 1x0280
 20 28 l 1x0280
 20 24 l 1x0480
 24 24 l 1
 24 20 l 1
 20 20 l 1x0440
 20 24 l 1x0480
 4 24 l 1x09
 4 16 l 1x11
 0 16 l 1
 0 24 l 1
 4 24 l 1x09
 4 28 l 1x0280
20 4 m 1x8080
 20 8 l 1x2040
 20 12 l 1x4080
 4 12 l 1x1080
 4 16 l 1x11
 20 16 l 1x1080
 20 12 l 1x4080
 24 12 l 1x4040
 24 8 l 1x2040
 24 4 l 1x4040
 20 4 l 1x8080
20 4 m 1x8080
 20 0 l 1
 4 0 l 1x8080
 4 4 l 1x81
 20 4 l 1x8080
EndSplineSet
Validated: 5
EndChar

StartChar: T
Encoding: 84 84 53
Width: 28
Flags: W
HStem: 24 4<0 8 12 20>
VStem: 8 4<0 24>
LayerCount: 2
Fore
SplineSet
0 28 m 1
 20 28 l 1
 20 24 l 1
 12 24 l 1
 12 0 l 1
 8 0 l 1
 8 24 l 1
 0 24 l 1
 0 28 l 1
EndSplineSet
Validated: 1
EndChar

StartChar: U
Encoding: 85 85 54
Width: 32
Flags: W
HStem: 0 4<4 20>
VStem: 0 4<4 28> 20 4<4 28>
LayerCount: 2
Fore
SplineSet
20 28 m 1
 24 28 l 1
 24 4 l 1
 20 4 l 1
 20 28 l 1
0 28 m 1
 4 28 l 1
 4 4 l 1
 0 4 l 1
 0 28 l 1
20 4 m 1
 20 0 l 1
 4 0 l 1
 4 4 l 1
 20 4 l 1
EndSplineSet
Validated: 5
EndChar

StartChar: V
Encoding: 86 86 55
Width: 32
Flags: W
HStem: 0 4<8 16> 4 4<4 8 16 20>
VStem: 0 4<8 28> 4 4<4 8> 8 8<0 4> 16 4<4 8> 20 4<8 28>
LayerCount: 2
Fore
SplineSet
20 28 m 1x42
 24 28 l 1
 24 8 l 1x42
 20 8 l 1
 20 4 l 1x44
 16 4 l 1x88
 16 8 l 1
 20 8 l 1x44
 20 28 l 1x42
0 28 m 1x60
 4 28 l 1
 4 8 l 1
 0 8 l 1
 0 28 l 1x60
16 4 m 1x88
 16 0 l 1
 8 0 l 1x88
 8 4 l 1x90
 4 4 l 1x50
 4 8 l 1x60
 8 8 l 1x50
 8 4 l 1x90
 16 4 l 1x88
EndSplineSet
Validated: 5
EndChar

StartChar: W
Encoding: 87 87 56
Width: 32
Flags: W
HStem: 4 4<4 8 16 20>
VStem: 0 8<4 8> 0 4<0 4 8 28> 8 8<8 12> 16 8<4 8> 20 4<0 4 8 28>
LayerCount: 2
Fore
SplineSet
8 12 m 1x90
 16 12 l 1
 16 8 l 1x90
 8 8 l 1xc0
 8 12 l 1x90
20 28 m 1x94
 24 28 l 1
 24 12 l 1x94
 24 8 l 1
 24 4 l 1x88
 24 0 l 1
 20 0 l 1
 20 4 l 1x84
 16 4 l 1x88
 16 8 l 1
 20 8 l 1
 20 12 l 1
 20 28 l 1x94
0 28 m 1xa0
 4 28 l 1
 4 8 l 1xa0
 8 8 l 1
 8 4 l 1xc0
 4 4 l 1
 4 0 l 1
 0 0 l 1xa0
 0 4 l 1xc0
 0 28 l 1xa0
EndSplineSet
Validated: 5
EndChar

StartChar: X
Encoding: 88 88 57
Width: 32
Flags: W
HStem: 0 8<0 4 20 24> 8 4<4 8 16 20> 16 4<4 8 16 20> 20 8<0 4 20 24>
VStem: 0 4<0 8 20 28> 4 4<8 12 16 20> 8 8<12 16> 16 4<8 12 16 20> 20 4<0 8 20 28>
LayerCount: 2
Fore
SplineSet
20 28 m 1x1080
 24 28 l 1
 24 20 l 1x1080
 20 20 l 1
 20 16 l 1x21
 16 16 l 1x22
 16 20 l 1
 20 20 l 1x21
 20 28 l 1x1080
0 28 m 1x18
 4 28 l 1x18
 4 20 l 1x28
 0 20 l 1
 0 28 l 1x18
20 8 m 1x81
 24 8 l 1
 24 0 l 1
 20 0 l 1x8080
 20 8 l 1x81
20 8 m 1x81
 16 8 l 1x41
 16 12 l 1x42
 20 12 l 1x41
 20 8 l 1x81
4 8 m 1x88
 4 0 l 1
 0 0 l 1
 0 8 l 1
 4 8 l 1x88
4 8 m 1
 4 12 l 1
 8 12 l 1
 8 8 l 1x44
 4 8 l 1
8 12 m 1
 8 16 l 1
 4 16 l 1x64
 4 20 l 1x68
 8 20 l 1
 8 16 l 1x64
 16 16 l 1
 16 12 l 1x62
 8 12 l 1
EndSplineSet
Validated: 5
EndChar

StartChar: Y
Encoding: 89 89 58
Width: 28
Flags: W
HStem: 12 4<4 8 12 16> 16 12<0 4 16 20>
VStem: 0 4<16 28> 8 4<0 12> 16 4<16 28>
CounterMasks: 1 38
LayerCount: 2
Fore
SplineSet
16 28 m 1x78
 20 28 l 1
 20 16 l 1x78
 16 16 l 1xb8
 16 28 l 1x78
0 28 m 1
 4 28 l 1x78
 4 16 l 1xb8
 0 16 l 1
 0 28 l 1
12 12 m 1xb8
 12 0 l 1
 8 0 l 1
 8 12 l 1
 4 12 l 1
 4 16 l 1
 16 16 l 1
 16 12 l 1
 12 12 l 1xb8
EndSplineSet
Validated: 5
EndChar

StartChar: Z
Encoding: 90 90 59
Width: 28
Flags: W
HStem: 0 8<0 4> 0 4<4 20> 8 4<4 8> 12 4<8 12> 16 4<12 16> 20 8<16 20> 24 4<0 16>
VStem: 0 4<4 8> 4 4<8 12> 8 4<12 16> 12 4<16 20> 16 4<20 24>
LayerCount: 2
Fore
SplineSet
0 28 m 1x0b10
 20 28 l 1
 20 20 l 1x0510
 16 20 l 1
 16 16 l 1x0820
 12 16 l 1
 12 12 l 1x1040
 8 12 l 1
 8 8 l 1x2080
 4 8 l 1x81
 4 4 l 1
 20 4 l 1
 20 0 l 1x4110
 0 0 l 1
 0 8 l 1
 4 8 l 1x8110
 4 12 l 1
 8 12 l 1x2080
 8 16 l 1
 12 16 l 1x1040
 12 20 l 1
 16 20 l 1x0820
 16 24 l 1
 0 24 l 1
 0 28 l 1x0b10
EndSplineSet
Validated: 5
EndChar

StartChar: bracketleft
Encoding: 91 91 60
Width: 20
Flags: W
HStem: 0 4<4 12> 24 4<4 12>
VStem: 0 12<0 4 24 28> 0 4<4 24>
LayerCount: 2
Fore
SplineSet
0 28 m 1xe0
 12 28 l 1
 12 24 l 1xe0
 4 24 l 1
 4 4 l 1xd0
 12 4 l 1
 12 0 l 1
 0 0 l 1
 0 24 l 1
 0 28 l 1xe0
EndSplineSet
Validated: 1
EndChar

StartChar: backslash
Encoding: 92 92 61
Width: 36
Flags: W
HStem: 0 4<24 28> 4 4<20 24> 8 4<16 20> 12 4<12 16> 16 4<8 12> 20 4<4 8> 24 4<0 4>
VStem: 0 4<24 28> 4 4<20 24> 8 4<16 20> 12 4<12 16> 16 4<8 12> 20 4<4 8> 24 4<0 4>
LayerCount: 2
Fore
SplineSet
0 28 m 1x03
 4 28 l 1x03
 4 24 l 1x05
 0 24 l 1
 0 28 l 1x03
24 4 m 1x8008
 20 4 l 1x4008
 20 8 l 1x4010
 16 8 l 1x2010
 16 12 l 1x2020
 12 12 l 1x1020
 12 16 l 1x1040
 8 16 l 1x0840
 8 20 l 1x0880
 4 20 l 1x0480
 4 24 l 1x05
 8 24 l 1x0480
 8 20 l 1x0880
 12 20 l 1x0840
 12 16 l 1x1040
 16 16 l 1x1020
 16 12 l 1x2020
 20 12 l 1x2010
 20 8 l 1x4010
 24 8 l 1x4008
 24 4 l 1x8008
24 4 m 1x8008
 28 4 l 1
 28 0 l 1
 24 0 l 1x8004
 24 4 l 1x8008
EndSplineSet
Validated: 5
EndChar

StartChar: bracketright
Encoding: 93 93 62
Width: 20
Flags: W
HStem: 0 4<0 8> 24 4<0 8>
VStem: 0 12<0 4 24 28> 8 4<4 24>
LayerCount: 2
Fore
SplineSet
0 28 m 1xe0
 12 28 l 1
 12 0 l 1
 0 0 l 1
 0 4 l 1xe0
 8 4 l 1
 8 24 l 1xd0
 0 24 l 1
 0 28 l 1xe0
EndSplineSet
Validated: 1
EndChar

StartChar: asciicircum
Encoding: 94 94 63
Width: 28
Flags: W
HStem: 16 4<0 4 16 20> 20 4<4 8 12 16>
VStem: 0 4<16 20> 4 4<20 24> 12 4<20 24> 16 4<16 20>
LayerCount: 2
Fore
SplineSet
8 28 m 1x50
 12 28 l 1
 12 24 l 1
 16 24 l 1x58
 16 20 l 1x98
 20 20 l 1
 20 16 l 1
 16 16 l 1x84
 16 20 l 1x88
 12 20 l 1
 12 24 l 1
 8 24 l 1
 8 20 l 1x58
 4 20 l 1
 4 16 l 1
 0 16 l 1
 0 20 l 1
 4 20 l 1xa0
 4 24 l 1
 8 24 l 1
 8 28 l 1x50
EndSplineSet
Validated: 5
EndChar

StartChar: underscore
Encoding: 95 95 64
Width: 28
Flags: W
HStem: -4 4<0 20>
VStem: 0 20<-4 0>
LayerCount: 2
Fore
SplineSet
0 0 m 1
 20 0 l 1
 20 -4 l 1
 0 -4 l 1
 0 0 l 1
EndSplineSet
Validated: 1
EndChar

StartChar: grave
Encoding: 96 96 65
Width: 20
Flags: W
HStem: 16 4<8 12> 20 4<4 8> 24 4<0 4>
VStem: 0 4<24 28> 4 4<20 24> 8 4<16 20>
LayerCount: 2
Fore
SplineSet
0 28 m 1x30
 4 28 l 1x30
 4 24 l 1x50
 0 24 l 1
 0 28 l 1x30
8 20 m 1x88
 4 20 l 1x48
 4 24 l 1x50
 8 24 l 1x48
 8 20 l 1x88
8 20 m 1x88
 12 20 l 1
 12 16 l 1
 8 16 l 1x84
 8 20 l 1x88
EndSplineSet
Validated: 5
EndChar

StartChar: a
Encoding: 97 97 66
Width: 28
Flags: W
HStem: 0 4<4 16> 4 4<0 4> 16 4<4 16>
VStem: 0 4<4 8> 16 4<4 8 12 16>
LayerCount: 2
Fore
SplineSet
4 20 m 1x38
 16 20 l 1
 16 16 l 1
 4 16 l 1
 4 20 l 1x38
20 4 m 1x78
 20 0 l 1
 4 0 l 1
 4 4 l 1xb8
 0 4 l 1
 0 8 l 1
 4 8 l 1x78
 4 4 l 1
 16 4 l 1xb8
 16 8 l 1
 4 8 l 1
 4 12 l 1
 16 12 l 1
 16 16 l 1
 20 16 l 1
 20 8 l 1
 20 4 l 1x78
EndSplineSet
Validated: 5
EndChar

StartChar: b
Encoding: 98 98 67
Width: 28
Flags: W
HStem: 0 4<4 16> 16 4<4 16>
VStem: 0 4<4 16 20 28> 16 4<4 16>
LayerCount: 2
Fore
SplineSet
0 28 m 1
 4 28 l 1
 4 20 l 1
 16 20 l 1
 16 16 l 1
 20 16 l 1
 20 4 l 1
 16 4 l 1
 16 16 l 1
 4 16 l 1
 4 4 l 1
 16 4 l 1
 16 0 l 1
 0 0 l 1
 0 16 l 1
 0 28 l 1
EndSplineSet
Validated: 5
EndChar

StartChar: c
Encoding: 99 99 68
Width: 28
Flags: W
HStem: 0 4<4 16> 4 4<16 20> 12 4<16 20> 16 4<4 16>
VStem: 0 4<4 16> 4 12<0 4 16 20> 16 4<4 8 12 16>
LayerCount: 2
Fore
SplineSet
16 8 m 1x42
 20 8 l 1
 20 4 l 1x42
 16 4 l 1x84
 16 8 l 1x42
4 20 m 1x54
 16 20 l 1x54
 16 16 l 1x24
 20 16 l 1
 20 12 l 1
 16 12 l 1x22
 16 16 l 1x24
 4 16 l 1
 4 4 l 1x98
 0 4 l 1
 0 16 l 1
 4 16 l 1x58
 4 20 l 1x54
16 4 m 1x84
 16 0 l 1
 4 0 l 1x84
 4 4 l 1x88
 16 4 l 1x84
EndSplineSet
Validated: 5
EndChar

StartChar: d
Encoding: 100 100 69
Width: 28
Flags: W
HStem: 0 4<4 16> 16 4<4 16>
VStem: 0 4<4 16> 16 4<4 16 20 28>
LayerCount: 2
Fore
SplineSet
16 28 m 1
 20 28 l 1
 20 16 l 1
 20 4 l 1
 20 0 l 1
 4 0 l 1
 4 4 l 1
 0 4 l 1
 0 16 l 1
 4 16 l 1
 4 4 l 1
 16 4 l 1
 16 16 l 1
 4 16 l 1
 4 20 l 1
 16 20 l 1
 16 28 l 1
EndSplineSet
Validated: 5
EndChar

StartChar: e
Encoding: 101 101 70
Width: 28
Flags: W
HStem: 0 4<4 16> 8 8<16 20> 8 4<4 16> 16 4<4 16>
VStem: 0 4<4 8 12 16> 4 12<0 4 16 20> 16 4<12 16>
LayerCount: 2
Fore
SplineSet
4 20 m 1x94
 16 20 l 1x94
 16 16 l 1xc4
 20 16 l 1xc2
 20 12 l 1xa2
 20 8 l 1xc2
 4 8 l 1
 4 4 l 1
 0 4 l 1
 0 8 l 1
 0 16 l 1
 4 16 l 1
 4 12 l 1
 16 12 l 1xba
 16 16 l 1xc4
 4 16 l 1x98
 4 20 l 1x94
4 4 m 1x88
 16 4 l 1
 16 0 l 1
 4 0 l 1x84
 4 4 l 1x88
EndSplineSet
Validated: 5
EndChar

StartChar: f
Encoding: 102 102 71
Width: 32
Flags: W
HStem: 12 4<0 8 12 20> 20 4<20 24> 24 4<12 20>
VStem: 8 4<0 12 16 24> 12 8<24 28> 20 4<20 24>
LayerCount: 2
Fore
SplineSet
12 28 m 1xa8
 20 28 l 1xa8
 20 24 l 1xc8
 24 24 l 1
 24 20 l 1
 20 20 l 1xc4
 20 24 l 1xc8
 12 24 l 1
 12 16 l 1
 20 16 l 1
 20 12 l 1
 12 12 l 1
 12 0 l 1
 8 0 l 1
 8 12 l 1
 0 12 l 1
 0 16 l 1
 8 16 l 1
 8 24 l 1
 12 24 l 1xb4
 12 28 l 1xa8
EndSplineSet
Validated: 5
EndChar

StartChar: g
Encoding: 103 103 72
Width: 28
Flags: W
HStem: -4 4<4 16> 4 4<4 16> 8 8<0 4> 16 4<4 16>
VStem: 0 4<8 16> 16 4<0 4 8 16>
LayerCount: 2
Fore
SplineSet
4 20 m 1x9c
 20 20 l 1
 20 16 l 1x9c
 20 8 l 1xac
 20 0 l 1
 16 0 l 1
 16 -4 l 1
 4 -4 l 1
 4 0 l 1
 16 0 l 1
 16 4 l 1
 4 4 l 1
 4 8 l 1xcc
 0 8 l 1
 0 16 l 1
 4 16 l 1xac
 4 8 l 1
 16 8 l 1
 16 16 l 1xdc
 4 16 l 1xac
 4 20 l 1x9c
EndSplineSet
Validated: 5
EndChar

StartChar: h
Encoding: 104 104 73
Width: 28
Flags: W
HStem: 16 4<4 16>
VStem: 0 4<0 16 20 28> 16 4<0 16>
LayerCount: 2
Fore
SplineSet
0 28 m 1
 4 28 l 1
 4 20 l 1
 16 20 l 1
 16 16 l 1
 20 16 l 1
 20 0 l 1
 16 0 l 1
 16 16 l 1
 4 16 l 1
 4 0 l 1
 0 0 l 1
 0 16 l 1
 0 28 l 1
EndSplineSet
Validated: 5
EndChar

StartChar: i
Encoding: 105 105 74
Width: 20
Flags: W
HStem: 0 4<0 4 8 12> 16 4<0 4> 24 4<4 8>
VStem: 0 8<16 20> 4 4<4 16 24 28>
LayerCount: 2
Fore
SplineSet
0 20 m 1xf0
 8 20 l 1xf0
 8 4 l 1xe8
 12 4 l 1
 12 0 l 1
 0 0 l 1
 0 4 l 1xf0
 4 4 l 1
 4 16 l 1xe8
 0 16 l 1
 0 20 l 1xf0
4 28 m 1xe8
 8 28 l 1
 8 24 l 1
 4 24 l 1
 4 28 l 1xe8
EndSplineSet
Validated: 1
EndChar

StartChar: j
Encoding: 106 106 75
Width: 24
Flags: W
HStem: -4 4<4 12> 0 4<0 4> 16 4<8 12> 24 4<12 16>
VStem: 0 4<0 4> 4 8<-4 0> 8 8<16 20> 12 4<0 16 24 28>
LayerCount: 2
Fore
SplineSet
0 4 m 1x78
 4 4 l 1x78
 4 0 l 1xb8
 0 0 l 1
 0 4 l 1x78
8 20 m 1x72
 16 20 l 1x72
 16 4 l 1
 16 0 l 1x71
 12 0 l 1xb4
 12 4 l 1
 12 16 l 1x71
 8 16 l 1
 8 20 l 1x72
12 28 m 1x31
 16 28 l 1
 16 24 l 1
 12 24 l 1
 12 28 l 1x31
12 0 m 1xb4
 12 -4 l 1
 4 -4 l 1xb4
 4 0 l 1xb8
 12 0 l 1xb4
EndSplineSet
Validated: 5
EndChar

StartChar: k
Encoding: 107 107 76
Width: 28
Flags: W
HStem: 0 4<16 20> 4 4<12 16> 8 4<4 12> 12 4<12 16> 16 4<16 20>
VStem: 0 4<0 8 12 28> 12 4<4 8 12 16> 16 4<0 4 16 20>
LayerCount: 2
Fore
SplineSet
16 20 m 1x0d
 20 20 l 1
 20 16 l 1x0d
 16 16 l 1
 16 12 l 1x16
 12 12 l 1x26
 12 16 l 1
 16 16 l 1x16
 16 20 l 1x0d
0 28 m 1
 4 28 l 1
 4 12 l 1
 12 12 l 1xa6
 12 8 l 1
 16 8 l 1x46
 16 4 l 1x86
 12 4 l 1
 12 8 l 1x46
 4 8 l 1
 4 0 l 1
 0 0 l 1
 0 8 l 1xa6
 0 28 l 1
16 4 m 1
 20 4 l 1
 20 0 l 1
 16 0 l 1x85
 16 4 l 1
EndSplineSet
Validated: 5
EndChar

StartChar: l
Encoding: 108 108 77
Width: 20
Flags: W
HStem: 0 4<0 4 8 12> 24 4<0 4>
VStem: 0 8<24 28> 4 4<4 24>
LayerCount: 2
Fore
SplineSet
0 28 m 1xe0
 8 28 l 1xe0
 8 4 l 1xd0
 12 4 l 1
 12 0 l 1
 0 0 l 1
 0 4 l 1xe0
 4 4 l 1
 4 24 l 1xd0
 0 24 l 1
 0 28 l 1xe0
EndSplineSet
Validated: 1
EndChar

StartChar: m
Encoding: 109 109 78
Width: 28
Flags: W
HStem: 16 4<4 8 12 16>
VStem: 0 8<16 20> 0 4<0 16> 8 4<0 16> 16 4<0 16>
LayerCount: 2
Fore
SplineSet
12 20 m 1x98
 16 20 l 1
 16 16 l 1
 20 16 l 1
 20 0 l 1
 16 0 l 1
 16 16 l 1
 12 16 l 1
 12 0 l 1
 8 0 l 1x98
 8 16 l 1xc8
 12 16 l 1
 12 20 l 1x98
0 20 m 1xc8
 8 20 l 1
 8 16 l 1xc8
 4 16 l 1
 4 0 l 1
 0 0 l 1xa8
 0 16 l 1
 0 20 l 1xc8
EndSplineSet
Validated: 5
EndChar

StartChar: n
Encoding: 110 110 79
Width: 28
Flags: W
HStem: 16 4<4 16>
VStem: 0 4<0 16> 16 4<0 16>
LayerCount: 2
Fore
SplineSet
0 20 m 1
 16 20 l 1
 16 16 l 1
 20 16 l 1
 20 0 l 1
 16 0 l 1
 16 16 l 1
 4 16 l 1
 4 0 l 1
 0 0 l 1
 0 16 l 1
 0 20 l 1
EndSplineSet
Validated: 5
EndChar

StartChar: o
Encoding: 111 111 80
Width: 28
Flags: W
HStem: 0 4<4 16> 4 12<0 4 16 20> 16 4<4 16>
VStem: 0 4<4 16> 4 12<0 4 16 20> 16 4<4 16>
LayerCount: 2
Fore
SplineSet
4 20 m 1x28
 16 20 l 1x28
 16 16 l 1x48
 20 16 l 1
 20 4 l 1x44
 16 4 l 1x88
 16 16 l 1x48
 4 16 l 1x50
 4 4 l 1x90
 0 4 l 1
 0 16 l 1
 4 16 l 1x50
 4 20 l 1x28
16 4 m 1x88
 16 0 l 1
 4 0 l 1x88
 4 4 l 1x90
 16 4 l 1x88
EndSplineSet
Validated: 5
EndChar

StartChar: p
Encoding: 112 112 81
Width: 28
Flags: W
HStem: 4 4<4 16> 8 8<16 20> 16 4<4 16>
VStem: 0 4<-4 4 8 16> 16 4<8 16>
LayerCount: 2
Fore
SplineSet
0 20 m 1xb8
 16 20 l 1xb8
 16 16 l 1
 20 16 l 1
 20 8 l 1x58
 16 8 l 1x98
 16 16 l 1x58
 4 16 l 1
 4 8 l 1
 16 8 l 1
 16 4 l 1
 4 4 l 1
 4 -4 l 1
 0 -4 l 1
 0 4 l 1
 0 16 l 1
 0 20 l 1xb8
EndSplineSet
Validated: 5
EndChar

StartChar: q
Encoding: 113 113 82
Width: 28
Flags: W
HStem: 4 4<4 16> 8 8<0 4> 16 4<4 16>
VStem: 0 4<8 16> 16 4<-4 4 8 16>
LayerCount: 2
Fore
SplineSet
4 20 m 1x38
 20 20 l 1
 20 16 l 1x38
 20 8 l 1x58
 20 -4 l 1
 16 -4 l 1
 16 4 l 1
 4 4 l 1
 4 8 l 1x98
 0 8 l 1
 0 16 l 1
 4 16 l 1x58
 4 8 l 1
 16 8 l 1
 16 16 l 1xb8
 4 16 l 1x58
 4 20 l 1x38
EndSplineSet
Validated: 5
EndChar

StartChar: r
Encoding: 114 114 83
Width: 28
Flags: W
HStem: 16 4<8 20>
VStem: 0 8<12 16> 0 4<0 12 16 20>
LayerCount: 2
Fore
SplineSet
8 20 m 1xc0
 20 20 l 1
 20 16 l 1
 8 16 l 1
 8 20 l 1xc0
0 20 m 1xa0
 4 20 l 1
 4 16 l 1xa0
 8 16 l 1
 8 12 l 1xc0
 4 12 l 1
 4 0 l 1
 0 0 l 1xa0
 0 12 l 1xc0
 0 20 l 1xa0
EndSplineSet
Validated: 5
EndChar

StartChar: s
Encoding: 115 115 84
Width: 28
Flags: W
HStem: 0 4<0 16> 4 4<16 20> 8 4<4 16> 12 4<0 4> 16 4<4 20>
VStem: 0 4<12 16> 16 4<4 8>
LayerCount: 2
Fore
SplineSet
4 20 m 1x0e
 20 20 l 1
 20 16 l 1x0e
 4 16 l 1x16
 4 12 l 1x26
 0 12 l 1
 0 16 l 1
 4 16 l 1x16
 4 20 l 1x0e
16 4 m 1x86
 16 0 l 1
 0 0 l 1
 0 4 l 1
 16 4 l 1x86
16 4 m 1
 16 8 l 1x46
 4 8 l 1
 4 12 l 1
 16 12 l 1x26
 16 8 l 1
 20 8 l 1
 20 4 l 1x46
 16 4 l 1
EndSplineSet
Validated: 5
EndChar

StartChar: t
Encoding: 116 116 85
Width: 28
Flags: W
HStem: 0 4<8 16> 4 4<16 20> 16 4<0 4 8 16>
VStem: 4 4<4 16 20 28> 8 8<0 4> 16 4<4 8>
LayerCount: 2
Fore
SplineSet
16 8 m 1x64
 20 8 l 1
 20 4 l 1x64
 16 4 l 1xa8
 16 8 l 1x64
4 28 m 1x74
 8 28 l 1
 8 20 l 1
 16 20 l 1
 16 16 l 1
 8 16 l 1
 8 4 l 1xb4
 4 4 l 1
 4 16 l 1
 0 16 l 1
 0 20 l 1
 4 20 l 1
 4 28 l 1x74
16 4 m 1xa8
 16 0 l 1
 8 0 l 1xa8
 8 4 l 1xb0
 16 4 l 1xa8
EndSplineSet
Validated: 5
EndChar

StartChar: u
Encoding: 117 117 86
Width: 28
Flags: W
HStem: 0 20G<0 4 16 20> 0 4<4 16>
VStem: 0 4<4 20> 16 4<4 20>
LayerCount: 2
Fore
SplineSet
16 20 m 1xb0
 20 20 l 1xb0
 20 4 l 1
 16 4 l 1x70
 16 20 l 1xb0
0 20 m 1
 4 20 l 1xb0
 4 4 l 1
 0 4 l 1x70
 0 20 l 1
16 4 m 1x70
 16 0 l 1
 4 0 l 1xb0
 4 4 l 1
 16 4 l 1x70
EndSplineSet
Validated: 5
EndChar

StartChar: v
Encoding: 118 118 87
Width: 28
Flags: W
HStem: 0 4<8 12> 4 4<4 8 12 16> 8 12<0 4 16 20>
VStem: 0 4<8 20> 4 4<4 8> 8 4<0 4> 12 4<4 8> 16 4<8 20>
LayerCount: 2
Fore
SplineSet
16 20 m 1x21
 20 20 l 1
 20 8 l 1x21
 16 8 l 1
 16 4 l 1x42
 12 4 l 1x84
 12 8 l 1
 16 8 l 1x42
 16 20 l 1x21
0 20 m 1x30
 4 20 l 1x30
 4 8 l 1x50
 0 8 l 1
 0 20 l 1x30
12 4 m 1x84
 12 0 l 1
 8 0 l 1x84
 8 4 l 1x88
 4 4 l 1x48
 4 8 l 1x50
 8 8 l 1x48
 8 4 l 1x88
 12 4 l 1x84
EndSplineSet
Validated: 5
EndChar

StartChar: w
Encoding: 119 119 88
Width: 28
Flags: W
HStem: 0 20G<0 4 16 20> 0 4<4 8 12 16>
VStem: 0 4<4 20> 4 4<0 4> 8 4<4 16> 12 4<0 4> 16 4<4 20>
LayerCount: 2
Fore
SplineSet
8 16 m 1x48
 12 16 l 1
 12 4 l 1x48
 8 4 l 1x50
 8 16 l 1x48
16 20 m 1x82
 20 20 l 1x82
 20 16 l 1
 20 4 l 1x42
 16 4 l 1x44
 16 16 l 1
 16 20 l 1x82
0 20 m 1xa0
 4 20 l 1xa0
 4 4 l 1
 0 4 l 1x60
 0 20 l 1xa0
16 4 m 1x44
 16 0 l 1x84
 12 0 l 1x44
 12 4 l 1x48
 16 4 l 1x44
8 4 m 1x50
 8 0 l 1x50
 4 0 l 1x90
 4 4 l 1x60
 8 4 l 1x50
EndSplineSet
Validated: 5
EndChar

StartChar: x
Encoding: 120 120 89
Width: 28
Flags: W
HStem: 0 4<0 4 16 20> 4 4<4 8 12 16> 12 4<4 8 12 16> 16 4<0 4 16 20>
VStem: 0 4<0 4 16 20> 4 4<4 8 12 16> 12 4<4 8 12 16> 16 4<0 4 16 20>
LayerCount: 2
Fore
SplineSet
16 20 m 1x11
 20 20 l 1
 20 16 l 1x11
 16 16 l 1
 16 12 l 1
 12 12 l 1
 12 16 l 1
 16 16 l 1x22
 16 20 l 1x11
0 20 m 1x18
 4 20 l 1x18
 4 16 l 1x28
 0 16 l 1
 0 20 l 1x18
16 4 m 1x82
 20 4 l 1
 20 0 l 1
 16 0 l 1x81
 16 4 l 1x82
16 4 m 1x82
 12 4 l 1
 12 8 l 1
 16 8 l 1x42
 16 4 l 1x82
4 4 m 1x88
 4 0 l 1
 0 0 l 1
 0 4 l 1
 4 4 l 1x88
4 4 m 1
 4 8 l 1
 8 8 l 1
 8 4 l 1x44
 4 4 l 1
8 8 m 1
 8 12 l 1
 4 12 l 1x66
 4 16 l 1x68
 8 16 l 1
 8 12 l 1
 12 12 l 1
 12 8 l 1x66
 8 8 l 1
EndSplineSet
Validated: 5
EndChar

StartChar: y
Encoding: 121 121 90
Width: 28
Flags: W
HStem: -4 4<4 16> 0 20G<0 4 16 20> 4 4<4 16>
VStem: 0 4<8 20> 16 4<0 4 8 20>
LayerCount: 2
Fore
SplineSet
16 20 m 1x58
 20 20 l 1x58
 20 8 l 1x38
 20 0 l 1x58
 16 0 l 1
 16 -4 l 1
 4 -4 l 1
 4 0 l 1
 16 0 l 1
 16 4 l 1
 4 4 l 1
 4 8 l 1
 0 8 l 1xb8
 0 20 l 1
 4 20 l 1x58
 4 8 l 1
 16 8 l 1x38
 16 20 l 1x58
EndSplineSet
Validated: 5
EndChar

StartChar: z
Encoding: 122 122 91
Width: 28
Flags: W
HStem: 0 8<4 8> 0 4<0 4 8 20> 8 4<8 12> 12 8<12 16> 16 4<0 12 16 20>
VStem: 4 4<4 8> 8 4<8 12> 12 4<12 16>
LayerCount: 2
Fore
SplineSet
0 20 m 1x29
 20 20 l 1
 20 16 l 1
 16 16 l 1x29
 16 12 l 1x11
 12 12 l 1
 12 8 l 1x22
 8 8 l 1x84
 8 4 l 1
 20 4 l 1
 20 0 l 1
 0 0 l 1
 0 4 l 1
 4 4 l 1x44
 4 8 l 1
 8 8 l 1x84
 8 12 l 1
 12 12 l 1x22
 12 16 l 1
 0 16 l 1
 0 20 l 1x29
EndSplineSet
Validated: 5
EndChar

StartChar: braceleft
Encoding: 123 123 92
Width: 24
Flags: W
HStem: 0 4<8 16> 4 8<4 8> 12 4<0 4> 16 8<4 8> 24 4<8 16>
VStem: 0 4<12 16> 4 4<4 12 16 24> 8 8<0 4 24 28>
LayerCount: 2
Fore
SplineSet
8 28 m 1x09
 16 28 l 1
 16 24 l 1x09
 8 24 l 1
 8 16 l 1x12
 4 16 l 1x24
 4 12 l 1x44
 0 12 l 1
 0 16 l 1
 4 16 l 1x24
 4 24 l 1
 8 24 l 1x12
 8 28 l 1x09
8 4 m 1x82
 4 4 l 1x42
 4 12 l 1x44
 8 12 l 1x42
 8 4 l 1x82
8 4 m 1x82
 16 4 l 1
 16 0 l 1
 8 0 l 1x81
 8 4 l 1x82
EndSplineSet
Validated: 5
EndChar

StartChar: bar
Encoding: 124 124 93
Width: 12
Flags: W
VStem: 0 4<-4 28>
LayerCount: 2
Fore
SplineSet
0 28 m 1
 4 28 l 1
 4 -4 l 1
 0 -4 l 1
 0 28 l 1
EndSplineSet
Validated: 1
EndChar

StartChar: braceright
Encoding: 125 125 94
Width: 24
Flags: W
HStem: 0 4<0 8> 4 8<8 12> 12 4<12 16> 16 8<8 12> 24 4<0 8>
VStem: 0 8<0 4 24 28> 8 4<4 12 16 24>
LayerCount: 2
Fore
SplineSet
0 28 m 1x0c
 8 28 l 1x0c
 8 24 l 1x14
 0 24 l 1
 0 28 l 1x0c
8 4 m 1x84
 8 0 l 1
 0 0 l 1
 0 4 l 1
 8 4 l 1x84
8 4 m 1
 8 12 l 1
 12 12 l 1
 12 4 l 1x42
 8 4 l 1
12 12 m 1
 12 16 l 1x22
 8 16 l 1x12
 8 24 l 1x14
 12 24 l 1x12
 12 16 l 1
 16 16 l 1
 16 12 l 1x22
 12 12 l 1
EndSplineSet
Validated: 5
EndChar

StartChar: asciitilde
Encoding: 126 126 95
Width: 28
Flags: W
HStem: 16 4<12 16> 20 4<0 4 8 12 16 20>
VStem: 0 4<20 24> 8 4<20 24> 12 4<16 20> 16 4<20 24>
LayerCount: 2
Fore
SplineSet
16 24 m 1x64
 20 24 l 1
 20 20 l 1x64
 16 20 l 1xa8
 16 24 l 1x64
4 28 m 1
 8 28 l 1
 8 24 l 1
 12 24 l 1x70
 12 20 l 1xb0
 8 20 l 1
 8 24 l 1x70
 4 24 l 1
 4 20 l 1
 0 20 l 1
 0 24 l 1
 4 24 l 1
 4 28 l 1
16 20 m 1xa8
 16 16 l 1
 12 16 l 1xa8
 12 20 l 1xb0
 16 20 l 1xa8
EndSplineSet
Validated: 5
EndChar

StartChar: uni007F
Encoding: 127 127 96
Width: 36
Flags: W
HStem: 8 4<4 8> 16 4<16 20 24 28> 24 4<4 8>
VStem: 0 8<8 12 24 28> 8 4<12 24> 20 4<0 16>
CounterMasks: 1 e0
LayerCount: 2
Fore
SplineSet
16 20 m 1xe4
 28 20 l 1
 28 16 l 1
 24 16 l 1
 24 0 l 1
 20 0 l 1
 20 16 l 1
 16 16 l 1
 16 20 l 1xe4
0 28 m 1xf4
 8 28 l 1
 8 24 l 1xf4
 12 24 l 1
 12 12 l 1xec
 8 12 l 1
 8 24 l 1
 4 24 l 1
 4 12 l 1
 8 12 l 1
 8 8 l 1
 0 8 l 1
 0 24 l 1
 0 28 l 1xf4
EndSplineSet
Validated: 5
EndChar

StartChar: uni0080
Encoding: 128 128 97
Width: 36
Flags: W
HStem: 0 4<20 24> 8 4<4 8> 16 4<4 8 20 24> 24 4<4 8>
VStem: 0 4<12 16 20 24> 8 4<12 16 20 24> 16 4<4 16> 24 4<4 16>
LayerCount: 2
Fore
SplineSet
16 20 m 1
 28 20 l 1
 28 16 l 1
 28 4 l 1
 28 0 l 1
 16 0 l 1
 16 16 l 1
 16 20 l 1
0 28 m 1
 12 28 l 1
 12 24 l 1
 12 20 l 1
 12 16 l 1
 12 12 l 1
 12 8 l 1
 0 8 l 1
 0 16 l 1
 0 24 l 1
 0 28 l 1
24 4 m 1
 24 16 l 1
 20 16 l 1
 20 4 l 1
 24 4 l 1
8 12 m 1
 8 16 l 1
 4 16 l 1
 4 12 l 1
 8 12 l 1
8 20 m 1
 8 24 l 1
 4 24 l 1
 4 20 l 1
 8 20 l 1
EndSplineSet
Validated: 1
EndChar

StartChar: uni0081
Encoding: 129 129 98
Width: 36
Flags: W
HStem: 0 4<16 20 24 28> 8 4<4 8> 12 4<16 20> 16 4<4 8> 24 4<4 8>
VStem: 0 4<12 16 20 24> 8 4<12 16 20 24> 16 8<12 16> 20 4<4 12 16 20>
LayerCount: 2
Fore
SplineSet
20 20 m 1x9e80
 24 20 l 1x9e80
 24 16 l 1x9f
 24 4 l 1x9e80
 28 4 l 1
 28 0 l 1
 16 0 l 1
 16 4 l 1x9f
 20 4 l 1
 20 12 l 1xae80
 16 12 l 1
 16 16 l 1xaf
 20 16 l 1xae80
 20 20 l 1x9e80
0 28 m 1
 12 28 l 1
 12 24 l 1
 12 20 l 1
 12 16 l 1xde
 12 12 l 1xae
 12 8 l 1
 0 8 l 1xce
 0 16 l 1
 0 24 l 1
 0 28 l 1
8 12 m 1
 8 16 l 1
 4 16 l 1
 4 12 l 1
 8 12 l 1
8 20 m 1
 8 24 l 1
 4 24 l 1
 4 20 l 1
 8 20 l 1
EndSplineSet
Validated: 1
EndChar

StartChar: uni0082
Encoding: 130 130 99
Width: 36
Flags: W
HStem: 0 4<20 28> 8 4<4 8 20 24> 16 4<4 8 16 24> 24 4<4 8>
VStem: 0 4<12 16 20 24> 8 4<12 16 20 24> 16 4<4 8> 24 4<12 16>
LayerCount: 2
Fore
SplineSet
16 20 m 1
 28 20 l 1
 28 16 l 1
 28 8 l 1
 20 8 l 1
 20 4 l 1
 28 4 l 1
 28 0 l 1
 16 0 l 1
 16 8 l 1
 16 12 l 1
 24 12 l 1
 24 16 l 1
 16 16 l 1
 16 20 l 1
0 28 m 1
 12 28 l 1
 12 24 l 1
 12 20 l 1
 12 16 l 1
 12 12 l 1
 12 8 l 1
 0 8 l 1
 0 16 l 1
 0 24 l 1
 0 28 l 1
8 12 m 1
 8 16 l 1
 4 16 l 1
 4 12 l 1
 8 12 l 1
8 20 m 1
 8 24 l 1
 4 24 l 1
 4 20 l 1
 8 20 l 1
EndSplineSet
Validated: 1
EndChar

StartChar: uni0083
Encoding: 131 131 100
Width: 36
Flags: W
HStem: 0 4<16 24> 8 4<4 8 16 24> 16 4<4 8 16 24> 24 4<4 8>
VStem: 0 4<12 16 20 24> 8 4<12 16 20 24> 16 12<0 4 8 12 16 20> 24 4<4 8 12 16>
LayerCount: 2
Fore
SplineSet
16 20 m 1xfe
 28 20 l 1
 28 16 l 1
 28 0 l 1
 16 0 l 1
 16 4 l 1xfe
 24 4 l 1
 24 8 l 1xfd
 16 8 l 1
 16 12 l 1xfe
 24 12 l 1
 24 16 l 1xfd
 16 16 l 1
 16 20 l 1xfe
0 28 m 1
 12 28 l 1
 12 24 l 1
 12 20 l 1
 12 16 l 1
 12 12 l 1
 12 8 l 1
 0 8 l 1
 0 16 l 1
 0 24 l 1
 0 28 l 1
8 12 m 1
 8 16 l 1
 4 16 l 1
 4 12 l 1
 8 12 l 1
8 20 m 1
 8 24 l 1
 4 24 l 1
 4 20 l 1
 8 20 l 1
EndSplineSet
Validated: 1
EndChar

StartChar: uni0084
Encoding: 132 132 101
Width: 36
Flags: W
HStem: 8 4<0 4 8 12> 16 4<20 24> 24 4<0 4 8 12>
VStem: 0 12<8 12 24 28> 16 4<0 16> 24 4<0 16>
CounterMasks: 1 e0
LayerCount: 2
Fore
SplineSet
16 20 m 1
 28 20 l 1
 28 16 l 1
 28 0 l 1
 24 0 l 1
 24 16 l 1
 20 16 l 1
 20 0 l 1
 16 0 l 1
 16 16 l 1
 16 20 l 1
0 28 m 1
 12 28 l 1
 12 24 l 1
 8 24 l 1
 8 12 l 1
 12 12 l 1
 12 8 l 1
 0 8 l 1
 0 12 l 1
 4 12 l 1
 4 24 l 1
 0 24 l 1
 0 28 l 1
EndSplineSet
Validated: 1
EndChar

StartChar: uni0085
Encoding: 133 133 102
Width: 36
Flags: W
HStem: 0 20G<16 20> 0 4<20 28> 24 4<4 8>
VStem: 0 4<8 24> 8 4<8 24> 16 4<4 20>
CounterMasks: 1 1c
LayerCount: 2
Fore
SplineSet
16 20 m 1xbc
 20 20 l 1xbc
 20 4 l 1
 28 4 l 1
 28 0 l 1x7c
 16 0 l 1
 16 20 l 1xbc
0 28 m 1
 12 28 l 1
 12 24 l 1
 12 8 l 1
 8 8 l 1
 8 24 l 1
 4 24 l 1
 4 8 l 1
 0 8 l 1
 0 24 l 1
 0 28 l 1
EndSplineSet
Validated: 1
EndChar

StartChar: uni0086
Encoding: 134 134 103
Width: 36
Flags: W
HStem: 0 4<16 24> 8 4<0 8 20 24> 16 4<4 8 20 28> 24 4<4 12>
VStem: 0 4<20 24> 8 4<12 16> 16 4<12 16> 24 4<4 8>
LayerCount: 2
Fore
SplineSet
16 20 m 1
 28 20 l 1
 28 16 l 1
 20 16 l 1
 20 12 l 1
 28 12 l 1
 28 0 l 1
 16 0 l 1
 16 4 l 1
 24 4 l 1
 24 8 l 1
 16 8 l 1
 16 16 l 1
 16 20 l 1
0 28 m 1
 12 28 l 1
 12 24 l 1
 4 24 l 1
 4 20 l 1
 12 20 l 1
 12 8 l 1
 0 8 l 1
 0 12 l 1
 8 12 l 1
 8 16 l 1
 0 16 l 1
 0 24 l 1
 0 28 l 1
EndSplineSet
Validated: 1
EndChar

StartChar: uni0087
Encoding: 135 135 104
Width: 36
Flags: W
HStem: 0 4<16 24> 8 4<4 12 20 24> 16 4<4 8 20 28> 24 4<4 12>
VStem: 0 12<8 12 24 28> 0 4<12 16 20 24> 16 4<12 16> 24 4<4 8>
LayerCount: 2
Fore
SplineSet
16 20 m 1xf3
 28 20 l 1
 28 16 l 1
 20 16 l 1
 20 12 l 1
 28 12 l 1
 28 0 l 1
 16 0 l 1
 16 4 l 1
 24 4 l 1
 24 8 l 1
 16 8 l 1
 16 16 l 1
 16 20 l 1xf3
0 28 m 1xfb
 12 28 l 1
 12 24 l 1xfb
 4 24 l 1
 4 20 l 1
 8 20 l 1
 8 16 l 1
 4 16 l 1
 4 12 l 1xf7
 12 12 l 1
 12 8 l 1
 0 8 l 1xfb
 0 16 l 1xf7
 0 24 l 1
 0 28 l 1xfb
EndSplineSet
Validated: 1
EndChar

StartChar: uni0088
Encoding: 136 136 105
Width: 36
Flags: W
HStem: 0 4<16 24> 8 4<20 24> 16 4<4 8 20 28>
VStem: 0 4<8 16 20 28> 8 4<8 16 20 28> 16 4<12 16> 24 4<4 8>
CounterMasks: 1 e0
LayerCount: 2
Fore
SplineSet
16 20 m 1
 28 20 l 1
 28 16 l 1
 20 16 l 1
 20 12 l 1
 28 12 l 1
 28 0 l 1
 16 0 l 1
 16 4 l 1
 24 4 l 1
 24 8 l 1
 16 8 l 1
 16 16 l 1
 16 20 l 1
8 28 m 1
 12 28 l 1
 12 20 l 1
 12 16 l 1
 12 8 l 1
 8 8 l 1
 8 16 l 1
 4 16 l 1
 4 8 l 1
 0 8 l 1
 0 16 l 1
 0 28 l 1
 4 28 l 1
 4 20 l 1
 8 20 l 1
 8 28 l 1
EndSplineSet
Validated: 1
EndChar

StartChar: uni0089
Encoding: 137 137 106
Width: 36
Flags: W
HStem: 0 8<16 20> 0 4<20 24> 16 4<4 8>
VStem: 0 4<8 16 20 28> 8 4<8 16 20 28> 16 4<4 8> 24 4<4 20>
LayerCount: 2
Fore
SplineSet
16 8 m 1xbe
 20 8 l 1xbe
 20 4 l 1
 24 4 l 1x7e
 24 8 l 1
 24 16 l 1
 24 20 l 1
 28 20 l 1
 28 16 l 1
 28 8 l 1xbe
 28 4 l 1
 28 0 l 1x7e
 16 0 l 1
 16 8 l 1xbe
8 28 m 1
 12 28 l 1
 12 20 l 1
 12 16 l 1
 12 8 l 1
 8 8 l 1
 8 16 l 1
 4 16 l 1
 4 8 l 1
 0 8 l 1
 0 16 l 1
 0 28 l 1
 4 28 l 1
 4 20 l 1
 8 20 l 1
 8 28 l 1
EndSplineSet
Validated: 1
EndChar

StartChar: uni008A
Encoding: 138 138 107
Width: 36
Flags: W
HStem: 0 4<16 24> 8 4<4 8 20 24> 16 4<20 28>
VStem: 0 4<12 28> 4 4<8 12> 8 4<12 28> 16 4<12 16> 24 4<4 8>
CounterMasks: 1 e0
LayerCount: 2
Fore
SplineSet
16 20 m 1xe3
 28 20 l 1
 28 16 l 1
 20 16 l 1
 20 12 l 1
 28 12 l 1
 28 0 l 1
 16 0 l 1
 16 4 l 1
 24 4 l 1
 24 8 l 1
 16 8 l 1
 16 16 l 1
 16 20 l 1xe3
8 28 m 1xe7
 12 28 l 1
 12 12 l 1xe7
 8 12 l 1xeb
 8 28 l 1xe7
0 28 m 1xf3
 4 28 l 1
 4 12 l 1
 0 12 l 1
 0 28 l 1xf3
8 12 m 1xeb
 8 8 l 1
 4 8 l 1xeb
 4 12 l 1xf3
 8 12 l 1xeb
EndSplineSet
Validated: 5
EndChar

StartChar: uni008B
Encoding: 139 139 108
Width: 36
Flags: W
HStem: 0 4<20 24> 16 4<4 8 20 24> 24 4<4 8>
VStem: 0 4<8 16 20 24> 8 4<20 24> 16 8<0 4 16 20> 24 4<4 16>
LayerCount: 2
Fore
SplineSet
16 20 m 1xfc
 24 20 l 1
 24 16 l 1xfc
 28 16 l 1
 28 4 l 1xfa
 24 4 l 1
 24 16 l 1
 20 16 l 1
 20 4 l 1
 24 4 l 1
 24 0 l 1
 16 0 l 1
 16 16 l 1
 16 20 l 1xfc
0 28 m 1
 12 28 l 1
 12 24 l 1
 12 20 l 1
 12 16 l 1
 4 16 l 1
 4 8 l 1
 0 8 l 1
 0 16 l 1
 0 24 l 1
 0 28 l 1
8 20 m 1
 8 24 l 1
 4 24 l 1
 4 20 l 1
 8 20 l 1
EndSplineSet
Validated: 5
EndChar

StartChar: uni008C
Encoding: 140 140 109
Width: 36
Flags: W
HStem: 0 4<20 24> 16 4<4 8> 24 4<4 8>
VStem: 0 4<8 16 20 24> 8 4<20 24> 16 4<4 20> 24 4<4 20>
LayerCount: 2
Fore
SplineSet
24 20 m 1
 28 20 l 1
 28 16 l 1
 28 4 l 1
 28 0 l 1
 16 0 l 1
 16 16 l 1
 16 20 l 1
 20 20 l 1
 20 16 l 1
 20 4 l 1
 24 4 l 1
 24 16 l 1
 24 20 l 1
0 28 m 1
 12 28 l 1
 12 24 l 1
 12 20 l 1
 12 16 l 1
 4 16 l 1
 4 8 l 1
 0 8 l 1
 0 16 l 1
 0 24 l 1
 0 28 l 1
8 20 m 1
 8 24 l 1
 4 24 l 1
 4 20 l 1
 8 20 l 1
EndSplineSet
Validated: 1
EndChar

StartChar: uni008D
Encoding: 141 141 110
Width: 36
Flags: W
HStem: 0 4<16 20 24 28> 8 8<8 12> 16 4<4 8 16 20 24 28> 24 4<4 8>
VStem: 0 8<16 20 24 28> 0 4<8 16 20 24> 8 4<8 16 20 24> 16 12<0 4 16 20>
LayerCount: 2
Fore
SplineSet
16 20 m 1xb1
 28 20 l 1
 28 16 l 1
 24 16 l 1
 24 4 l 1
 28 4 l 1
 28 0 l 1
 16 0 l 1
 16 4 l 1
 20 4 l 1
 20 16 l 1
 16 16 l 1
 16 20 l 1xb1
0 28 m 1xb9
 8 28 l 1
 8 24 l 1xb9
 12 24 l 1
 12 20 l 1xb3
 8 20 l 1
 8 24 l 1xb9
 4 24 l 1
 4 20 l 1xb5
 8 20 l 1xb9
 8 16 l 1xd9
 12 16 l 1
 12 8 l 1
 8 8 l 1xd3
 8 16 l 1xd9
 4 16 l 1xb5
 4 8 l 1
 0 8 l 1xd5
 0 16 l 1
 0 24 l 1
 0 28 l 1xb9
EndSplineSet
Validated: 5
EndChar

StartChar: uni008E
Encoding: 142 142 111
Width: 36
Flags: W
HStem: 0 4<20 28> 8 4<0 8 20 24> 16 4<4 8 16 24> 24 4<4 12>
VStem: 0 4<20 24> 8 4<12 16> 16 4<4 8> 24 4<12 16>
LayerCount: 2
Fore
SplineSet
16 20 m 1
 28 20 l 1
 28 8 l 1
 20 8 l 1
 20 4 l 1
 28 4 l 1
 28 0 l 1
 16 0 l 1
 16 8 l 1
 16 12 l 1
 24 12 l 1
 24 16 l 1
 16 16 l 1
 16 20 l 1
0 28 m 1
 12 28 l 1
 12 24 l 1
 4 24 l 1
 4 20 l 1
 12 20 l 1
 12 8 l 1
 0 8 l 1
 0 12 l 1
 8 12 l 1
 8 16 l 1
 0 16 l 1
 0 24 l 1
 0 28 l 1
EndSplineSet
Validated: 1
EndChar

StartChar: uni008F
Encoding: 143 143 112
Width: 36
Flags: W
HStem: 0 4<16 24> 8 4<0 8 20 24> 16 4<4 8 16 24> 24 4<4 12>
VStem: 0 4<20 24> 8 4<12 16> 16 12<0 4 16 20> 24 4<4 8 12 16>
LayerCount: 2
Fore
SplineSet
16 20 m 1xfe
 28 20 l 1
 28 0 l 1
 16 0 l 1
 16 4 l 1xfe
 24 4 l 1
 24 8 l 1
 20 8 l 1
 20 12 l 1
 24 12 l 1
 24 16 l 1xfd
 16 16 l 1
 16 20 l 1xfe
0 28 m 1
 12 28 l 1
 12 24 l 1
 4 24 l 1
 4 20 l 1
 12 20 l 1
 12 8 l 1
 0 8 l 1
 0 12 l 1
 8 12 l 1
 8 16 l 1
 0 16 l 1
 0 24 l 1
 0 28 l 1
EndSplineSet
Validated: 1
EndChar

StartChar: uni0090
Encoding: 144 144 113
Width: 36
Flags: W
HStem: 0 4<20 28> 8 4<4 8> 16 4<20 28> 24 4<4 8>
VStem: 0 8<8 12 24 28> 8 4<12 24> 16 12<0 4 16 20> 16 4<4 16>
LayerCount: 2
Fore
SplineSet
16 20 m 1xf2
 28 20 l 1
 28 16 l 1xf2
 20 16 l 1
 20 4 l 1xf1
 28 4 l 1
 28 0 l 1
 16 0 l 1
 16 16 l 1
 16 20 l 1xf2
0 28 m 1xf8
 8 28 l 1
 8 24 l 1xf8
 12 24 l 1
 12 12 l 1xf4
 8 12 l 1
 8 24 l 1
 4 24 l 1
 4 12 l 1
 8 12 l 1
 8 8 l 1
 0 8 l 1
 0 24 l 1
 0 28 l 1xf8
EndSplineSet
Validated: 5
EndChar

StartChar: uni0091
Encoding: 145 145 114
Width: 36
Flags: W
HStem: 0 4<16 20 24 28> 12 4<16 20> 16 4<4 8> 24 4<4 8>
VStem: 0 4<8 16 20 24> 8 4<20 24> 16 8<12 16> 20 4<4 12 16 20>
LayerCount: 2
Fore
SplineSet
20 20 m 1xbd
 24 20 l 1xbd
 24 16 l 1xbe
 24 4 l 1xbd
 28 4 l 1
 28 0 l 1
 16 0 l 1
 16 4 l 1xbe
 20 4 l 1
 20 12 l 1xdd
 16 12 l 1
 16 16 l 1xde
 20 16 l 1xdd
 20 20 l 1xbd
0 28 m 1
 12 28 l 1
 12 24 l 1
 12 20 l 1
 12 16 l 1
 4 16 l 1
 4 8 l 1
 0 8 l 1
 0 16 l 1
 0 24 l 1
 0 28 l 1
8 20 m 1
 8 24 l 1
 4 24 l 1
 4 20 l 1
 8 20 l 1
EndSplineSet
Validated: 1
EndChar

StartChar: uni0092
Encoding: 146 146 115
Width: 36
Flags: W
HStem: 0 4<20 28> 8 4<20 24> 16 4<4 8 16 24> 24 4<4 8>
VStem: 0 4<8 16 20 24> 8 4<20 24> 16 4<4 8> 24 4<12 16>
LayerCount: 2
Fore
SplineSet
16 20 m 1
 28 20 l 1
 28 16 l 1
 28 8 l 1
 20 8 l 1
 20 4 l 1
 28 4 l 1
 28 0 l 1
 16 0 l 1
 16 8 l 1
 16 12 l 1
 24 12 l 1
 24 16 l 1
 16 16 l 1
 16 20 l 1
0 28 m 1
 12 28 l 1
 12 24 l 1
 12 20 l 1
 12 16 l 1
 4 16 l 1
 4 8 l 1
 0 8 l 1
 0 16 l 1
 0 24 l 1
 0 28 l 1
8 20 m 1
 8 24 l 1
 4 24 l 1
 4 20 l 1
 8 20 l 1
EndSplineSet
Validated: 1
EndChar

StartChar: uni0093
Encoding: 147 147 116
Width: 36
Flags: W
HStem: 0 4<20 28> 8 4<0 8 20 24> 16 4<4 8 20 28> 24 4<4 12>
VStem: 0 4<20 24> 8 4<12 16> 16 12<0 4 16 20> 16 4<4 8 12 16>
LayerCount: 2
Fore
SplineSet
16 20 m 1xfe
 28 20 l 1
 28 16 l 1xfe
 20 16 l 1
 20 12 l 1
 24 12 l 1
 24 8 l 1
 20 8 l 1
 20 4 l 1xfd
 28 4 l 1
 28 0 l 1
 16 0 l 1xfe
 16 8 l 1xfd
 16 16 l 1
 16 20 l 1xfe
0 28 m 1
 12 28 l 1
 12 24 l 1
 4 24 l 1
 4 20 l 1
 12 20 l 1
 12 8 l 1
 0 8 l 1
 0 12 l 1
 8 12 l 1
 8 16 l 1
 0 16 l 1
 0 24 l 1
 0 28 l 1
EndSplineSet
Validated: 1
EndChar

StartChar: uni0094
Encoding: 148 148 117
Width: 36
Flags: W
HStem: 0 4<20 28> 8 4<4 12> 16 4<20 28> 24 4<4 12>
VStem: 0 12<8 12 24 28> 0 4<12 24> 16 12<0 4 16 20> 16 4<4 16>
LayerCount: 2
Fore
SplineSet
16 20 m 1xf2
 28 20 l 1
 28 16 l 1xf2
 20 16 l 1
 20 4 l 1xf1
 28 4 l 1
 28 0 l 1
 16 0 l 1
 16 16 l 1
 16 20 l 1xf2
0 28 m 1xf8
 12 28 l 1
 12 24 l 1xf8
 4 24 l 1
 4 12 l 1xf4
 12 12 l 1
 12 8 l 1
 0 8 l 1
 0 24 l 1
 0 28 l 1xf8
EndSplineSet
Validated: 1
EndChar

StartChar: uni0095
Encoding: 149 149 118
Width: 36
Flags: W
HStem: 0 20G<16 20 24 28> 4 8<20 24> 16 8<4 8>
VStem: 0 4<8 16 24 28> 8 4<8 16 24 28> 16 4<0 4 12 20> 24 4<0 4 12 20>
LayerCount: 2
Fore
SplineSet
24 20 m 1x9e
 28 20 l 1x9e
 28 16 l 1
 28 12 l 1
 28 4 l 1x7e
 28 0 l 1
 24 0 l 1x9e
 24 4 l 1
 20 4 l 1x5e
 20 0 l 1
 16 0 l 1x9e
 16 4 l 1
 16 16 l 1x7e
 16 20 l 1
 20 20 l 1x9e
 20 16 l 1
 20 12 l 1
 24 12 l 1
 24 16 l 1x7e
 24 20 l 1x9e
8 28 m 1
 12 28 l 1
 12 24 l 1
 12 16 l 1
 12 8 l 1
 8 8 l 1
 8 16 l 1
 4 16 l 1
 4 8 l 1
 0 8 l 1
 0 16 l 1
 0 28 l 1
 4 28 l 1
 4 24 l 1
 8 24 l 1x3e
 8 28 l 1
EndSplineSet
Validated: 1
EndChar

StartChar: uni0096
Encoding: 150 150 119
Width: 36
Flags: W
HStem: 8 4<0 8 20 24> 16 4<4 8 20 24> 24 4<4 12>
VStem: 0 4<20 24> 8 4<12 16> 16 4<0 8 12 16> 24 4<12 16>
CounterMasks: 1 e0
LayerCount: 2
Fore
SplineSet
16 20 m 1
 28 20 l 1
 28 16 l 1
 28 12 l 1
 28 8 l 1
 20 8 l 1
 20 0 l 1
 16 0 l 1
 16 8 l 1
 16 16 l 1
 16 20 l 1
0 28 m 1
 12 28 l 1
 12 24 l 1
 4 24 l 1
 4 20 l 1
 12 20 l 1
 12 8 l 1
 0 8 l 1
 0 12 l 1
 8 12 l 1
 8 16 l 1
 0 16 l 1
 0 24 l 1
 0 28 l 1
24 12 m 1
 24 16 l 1
 20 16 l 1
 20 12 l 1
 24 12 l 1
EndSplineSet
Validated: 1
EndChar

StartChar: uni0097
Encoding: 151 151 120
Width: 36
Flags: W
HStem: 8 4<4 12 20 24> 16 4<4 8 20 24> 24 4<4 12>
VStem: 0 12<8 12 24 28> 0 4<12 16 20 24> 16 4<0 8 12 16> 24 4<12 16>
CounterMasks: 1 e0
LayerCount: 2
Fore
SplineSet
16 20 m 1xe6
 28 20 l 1
 28 16 l 1
 28 12 l 1
 28 8 l 1
 20 8 l 1
 20 0 l 1
 16 0 l 1
 16 8 l 1
 16 16 l 1
 16 20 l 1xe6
0 28 m 1xf6
 12 28 l 1
 12 24 l 1xf6
 4 24 l 1
 4 20 l 1
 8 20 l 1
 8 16 l 1
 4 16 l 1
 4 12 l 1xee
 12 12 l 1
 12 8 l 1
 0 8 l 1xf6
 0 16 l 1xee
 0 24 l 1
 0 28 l 1xf6
24 12 m 1
 24 16 l 1
 20 16 l 1
 20 12 l 1
 24 12 l 1
EndSplineSet
Validated: 1
EndChar

StartChar: uni0098
Encoding: 152 152 121
Width: 36
Flags: W
HStem: 0 4<20 24> 8 4<0 8 20 24> 16 4<4 8 20 24> 24 4<4 8>
VStem: 0 4<20 24> 8 4<12 16 20 24> 16 4<4 8 12 16> 24 4<4 8 12 16>
LayerCount: 2
Fore
SplineSet
16 20 m 1
 28 20 l 1
 28 16 l 1
 28 12 l 1
 28 8 l 1
 28 4 l 1
 28 0 l 1
 16 0 l 1
 16 8 l 1
 16 16 l 1
 16 20 l 1
0 28 m 1
 12 28 l 1
 12 24 l 1
 12 20 l 1
 12 8 l 1
 0 8 l 1
 0 12 l 1
 8 12 l 1
 8 16 l 1
 0 16 l 1
 0 24 l 1
 0 28 l 1
24 4 m 1
 24 8 l 1
 20 8 l 1
 20 4 l 1
 24 4 l 1
24 12 m 1
 24 16 l 1
 20 16 l 1
 20 12 l 1
 24 12 l 1
8 20 m 1
 8 24 l 1
 4 24 l 1
 4 20 l 1
 8 20 l 1
EndSplineSet
Validated: 1
EndChar

StartChar: uni0099
Encoding: 153 153 122
Width: 36
Flags: W
HStem: 0 4<16 24> 8 4<0 8 20 24> 16 4<4 8 20 24> 24 4<4 8>
VStem: 0 4<20 24> 8 4<12 16 20 24> 16 4<12 16> 24 4<4 8 12 16>
LayerCount: 2
Fore
SplineSet
16 20 m 1
 28 20 l 1
 28 16 l 1
 28 12 l 1
 28 0 l 1
 16 0 l 1
 16 4 l 1
 24 4 l 1
 24 8 l 1
 16 8 l 1
 16 16 l 1
 16 20 l 1
0 28 m 1
 12 28 l 1
 12 24 l 1
 12 20 l 1
 12 8 l 1
 0 8 l 1
 0 12 l 1
 8 12 l 1
 8 16 l 1
 0 16 l 1
 0 24 l 1
 0 28 l 1
24 12 m 1
 24 16 l 1
 20 16 l 1
 20 12 l 1
 24 12 l 1
8 20 m 1
 8 24 l 1
 4 24 l 1
 4 20 l 1
 8 20 l 1
EndSplineSet
Validated: 1
EndChar

StartChar: uni009A
Encoding: 154 154 123
Width: 36
Flags: W
HStem: 8 4<0 8 20 24> 16 4<4 8 20 24> 24 4<4 8>
VStem: 0 4<20 24> 8 4<12 16 20 24> 16 4<0 8 12 16> 24 4<0 8 12 16>
CounterMasks: 1 e0
LayerCount: 2
Fore
SplineSet
16 20 m 1
 28 20 l 1
 28 16 l 1
 28 12 l 1
 28 8 l 1
 28 0 l 1
 24 0 l 1
 24 8 l 1
 20 8 l 1
 20 0 l 1
 16 0 l 1
 16 8 l 1
 16 16 l 1
 16 20 l 1
0 28 m 1
 12 28 l 1
 12 24 l 1
 12 20 l 1
 12 8 l 1
 0 8 l 1
 0 12 l 1
 8 12 l 1
 8 16 l 1
 0 16 l 1
 0 24 l 1
 0 28 l 1
24 12 m 1
 24 16 l 1
 20 16 l 1
 20 12 l 1
 24 12 l 1
8 20 m 1
 8 24 l 1
 4 24 l 1
 4 20 l 1
 8 20 l 1
EndSplineSet
Validated: 1
EndChar

StartChar: uni009B
Encoding: 155 155 124
Width: 36
Flags: W
HStem: 0 4<16 24> 8 4<4 12 20 24> 16 4<20 28> 24 4<4 12>
VStem: 0 12<8 12 24 28> 0 4<12 24> 16 4<12 16> 24 4<4 8>
LayerCount: 2
Fore
SplineSet
16 20 m 1xf3
 28 20 l 1
 28 16 l 1
 20 16 l 1
 20 12 l 1
 28 12 l 1
 28 0 l 1
 16 0 l 1
 16 4 l 1
 24 4 l 1
 24 8 l 1
 16 8 l 1
 16 16 l 1
 16 20 l 1xf3
0 28 m 1xfb
 12 28 l 1
 12 24 l 1xfb
 4 24 l 1
 4 12 l 1xf7
 12 12 l 1
 12 8 l 1
 0 8 l 1
 0 24 l 1
 0 28 l 1xfb
EndSplineSet
Validated: 1
EndChar

StartChar: uni009C
Encoding: 156 156 125
Width: 36
Flags: W
HStem: 8 4<0 8> 16 4<4 8 16 20 24 28> 24 4<4 12>
VStem: 0 4<20 24> 8 4<12 16> 20 4<0 16>
CounterMasks: 1 e0
LayerCount: 2
Fore
SplineSet
16 20 m 1
 28 20 l 1
 28 16 l 1
 24 16 l 1
 24 0 l 1
 20 0 l 1
 20 16 l 1
 16 16 l 1
 16 20 l 1
0 28 m 1
 12 28 l 1
 12 24 l 1
 4 24 l 1
 4 20 l 1
 12 20 l 1
 12 8 l 1
 0 8 l 1
 0 12 l 1
 8 12 l 1
 8 16 l 1
 0 16 l 1
 0 24 l 1
 0 28 l 1
EndSplineSet
Validated: 1
EndChar

StartChar: uni009D
Encoding: 157 157 126
Width: 36
Flags: W
HStem: 0 4<16 24> 8 4<4 8 20 24> 16 4<20 28> 24 4<4 8>
VStem: 0 4<12 24> 8 4<12 24> 16 4<12 16> 24 4<4 8>
LayerCount: 2
Fore
SplineSet
16 20 m 1
 28 20 l 1
 28 16 l 1
 20 16 l 1
 20 12 l 1
 28 12 l 1
 28 0 l 1
 16 0 l 1
 16 4 l 1
 24 4 l 1
 24 8 l 1
 16 8 l 1
 16 16 l 1
 16 20 l 1
0 28 m 1
 12 28 l 1
 12 24 l 1
 12 12 l 1
 12 8 l 1
 0 8 l 1
 0 24 l 1
 0 28 l 1
8 12 m 1
 8 24 l 1
 4 24 l 1
 4 12 l 1
 8 12 l 1
EndSplineSet
Validated: 1
EndChar

StartChar: uni009E
Encoding: 158 158 127
Width: 36
Flags: W
HStem: 8 8<20 24> 16 4<4 8> 24 4<4 8>
VStem: 0 4<8 16 20 24> 8 4<20 24> 16 4<0 8 16 20> 24 4<0 8 16 20>
LayerCount: 2
Fore
SplineSet
24 20 m 1x7e
 28 20 l 1
 28 16 l 1x7e
 28 8 l 1
 28 0 l 1
 24 0 l 1
 24 8 l 1
 20 8 l 1
 20 0 l 1
 16 0 l 1
 16 8 l 1xbe
 16 16 l 1
 16 20 l 1
 20 20 l 1x7e
 20 16 l 1
 24 16 l 1xbe
 24 20 l 1x7e
0 28 m 1
 12 28 l 1
 12 24 l 1
 12 20 l 1
 12 16 l 1
 4 16 l 1x7e
 4 8 l 1
 0 8 l 1xbe
 0 16 l 1
 0 24 l 1
 0 28 l 1
8 20 m 1
 8 24 l 1
 4 24 l 1
 4 20 l 1
 8 20 l 1
EndSplineSet
Validated: 1
EndChar

StartChar: uni009F
Encoding: 159 159 128
Width: 36
Flags: W
HStem: 8 4<20 24> 16 4<4 8 20 24> 24 4<4 8>
VStem: 0 4<8 16 20 24> 8 4<8 16 20 24> 16 4<0 8 12 16> 24 4<12 16>
CounterMasks: 1 e0
LayerCount: 2
Fore
SplineSet
16 20 m 1
 28 20 l 1
 28 16 l 1
 28 12 l 1
 28 8 l 1
 20 8 l 1
 20 0 l 1
 16 0 l 1
 16 8 l 1
 16 16 l 1
 16 20 l 1
0 28 m 1
 12 28 l 1
 12 24 l 1
 12 20 l 1
 12 16 l 1
 12 8 l 1
 8 8 l 1
 8 16 l 1
 4 16 l 1
 4 8 l 1
 0 8 l 1
 0 16 l 1
 0 24 l 1
 0 28 l 1
24 12 m 1
 24 16 l 1
 20 16 l 1
 20 12 l 1
 24 12 l 1
8 20 m 1
 8 24 l 1
 4 24 l 1
 4 20 l 1
 8 20 l 1
EndSplineSet
Validated: 1
EndChar

StartChar: uni00A0
Encoding: 160 160 129
Width: 8
Flags: W
LayerCount: 2
Fore
SplineSet
0 28 m 1024,0,-1
EndSplineSet
Validated: 1
EndChar

StartChar: exclamdown
Encoding: 161 161 130
Width: 16
Flags: W
HStem: 0 20G<0 8> 24 4<0 8>
VStem: 0 8<0 20 24 28>
LayerCount: 2
Fore
SplineSet
0 20 m 1
 8 20 l 1
 8 0 l 1
 0 0 l 1
 0 20 l 1
0 28 m 1
 8 28 l 1
 8 24 l 1
 0 24 l 1
 0 28 l 1
EndSplineSet
Validated: 1
EndChar

StartChar: cent
Encoding: 162 162 131
Width: 36
Flags: W
HStem: 4 20G<12 20> 4 4<8 12 20 28> 8 8<0 4> 16 4<8 12 20 28>
VStem: 0 8<8 16> 12 8<0 4 8 16 20 24>
LayerCount: 2
Fore
SplineSet
12 24 m 1x8c
 20 24 l 1x8c
 20 20 l 1
 28 20 l 1
 28 16 l 1
 20 16 l 1
 20 8 l 1
 28 8 l 1
 28 4 l 1x5c
 20 4 l 1
 20 0 l 1
 12 0 l 1
 12 4 l 1x8c
 4 4 l 1x4c
 4 8 l 1
 0 8 l 1
 0 16 l 1
 4 16 l 1x2c
 4 20 l 1
 12 20 l 1x1c
 12 24 l 1x8c
12 8 m 1x5c
 12 16 l 1
 8 16 l 1
 8 8 l 1
 12 8 l 1x5c
EndSplineSet
Validated: 1
EndChar

StartChar: sterling
Encoding: 163 163 132
Width: 36
Flags: W
HStem: 0 4<0 4 12 20> 12 4<0 4 12 16> 20 4<20 24> 24 4<12 16>
VStem: 4 8<4 12 16 24> 16 8<20 24> 20 8<4 8>
LayerCount: 2
Fore
SplineSet
20 8 m 1xda
 28 8 l 1
 28 4 l 1xda
 24 4 l 1
 24 0 l 1xdc
 0 0 l 1
 0 4 l 1
 4 4 l 1
 4 12 l 1
 0 12 l 1
 0 16 l 1
 4 16 l 1
 4 24 l 1
 8 24 l 1
 8 28 l 1
 20 28 l 1xda
 20 24 l 1xea
 24 24 l 1
 24 20 l 1
 16 20 l 1xec
 16 24 l 1
 12 24 l 1
 12 16 l 1
 16 16 l 1
 16 12 l 1xdc
 12 12 l 1
 12 4 l 1
 20 4 l 1
 20 8 l 1xda
EndSplineSet
Validated: 1
EndChar

StartChar: currency
Encoding: 164 164 133
Width: 32
Flags: W
HStem: 8 4<0 4 20 24> 16 4<0 4 20 24> 24 4<0 4 20 24>
VStem: 0 8<8 12 16 20 24 28> 16 8<8 12 16 20 24 28>
CounterMasks: 1 e0
LayerCount: 2
Fore
SplineSet
16 28 m 1
 24 28 l 1
 24 24 l 1
 20 24 l 1
 20 20 l 1
 24 20 l 1
 24 16 l 1
 20 16 l 1
 20 12 l 1
 24 12 l 1
 24 8 l 1
 16 8 l 1
 16 12 l 1
 8 12 l 1
 8 8 l 1
 0 8 l 1
 0 12 l 1
 4 12 l 1
 4 16 l 1
 0 16 l 1
 0 20 l 1
 4 20 l 1
 4 24 l 1
 0 24 l 1
 0 28 l 1
 8 28 l 1
 8 24 l 1
 16 24 l 1
 16 28 l 1
16 16 m 1
 16 20 l 1
 8 20 l 1
 8 16 l 1
 16 16 l 1
EndSplineSet
Validated: 1
EndChar

StartChar: yen
Encoding: 165 165 134
Width: 40
Flags: W
HStem: 8 4<8 12 20 24> 16 8<8 12 20 24> 20 8<4 8 24 28> 24 4<0 4 28 32>
VStem: 0 8<24 28> 4 8<20 24> 12 8<0 8 12 16> 20 8<20 24> 24 8<24 28>
LayerCount: 2
Fore
SplineSet
24 28 m 1xa080
 32 28 l 1
 32 24 l 1x9080
 28 24 l 1x91
 28 20 l 1xa1
 24 20 l 1xa080
 24 16 l 1
 20 16 l 1
 20 12 l 1
 24 12 l 1
 24 8 l 1
 20 8 l 1
 20 0 l 1
 12 0 l 1
 12 8 l 1
 8 8 l 1
 8 12 l 1
 12 12 l 1
 12 16 l 1
 8 16 l 1xca80
 8 20 l 1xaa80
 4 20 l 1xa4
 4 24 l 1x94
 0 24 l 1
 0 28 l 1x98
 8 28 l 1xa8
 8 24 l 1xc8
 12 24 l 1xc4
 12 20 l 1
 20 20 l 1xa5
 20 24 l 1xc5
 24 24 l 1xc080
 24 28 l 1xa080
EndSplineSet
Validated: 1
EndChar

StartChar: brokenbar
Encoding: 166 166 135
Width: 16
Flags: W
HStem: 0 12<0 8> 16 12<0 8>
VStem: 0 8<0 12 16 28>
LayerCount: 2
Fore
SplineSet
0 12 m 1
 8 12 l 1
 8 0 l 1
 0 0 l 1
 0 12 l 1
0 28 m 1
 8 28 l 1
 8 16 l 1
 0 16 l 1
 0 28 l 1
EndSplineSet
Validated: 1
EndChar

StartChar: section
Encoding: 167 167 136
Width: 32
Flags: W
HStem: -4 4<4 16> 0 4<20 24> 4 4<8 16> 8 8<0 4 20 24> 16 4<8 16> 20 4<0 4> 24 4<8 20>
VStem: 0 8<8 16 20 24> 4 16<-4 0 4 8 16 20 24 28> 16 8<0 4 8 16>
LayerCount: 2
Fore
SplineSet
4 28 m 1x0280
 20 28 l 1
 20 24 l 1x0280
 8 24 l 1
 8 20 l 1x0b
 20 20 l 1
 20 16 l 1x1480
 24 16 l 1
 24 8 l 1x1440
 20 8 l 1
 20 4 l 1x5480
 24 4 l 1
 24 0 l 1x5440
 20 0 l 1x5480
 20 -4 l 1
 4 -4 l 1
 4 0 l 1x8080
 16 0 l 1
 16 4 l 1xa040
 4 4 l 1xa080
 4 8 l 1x1080
 0 8 l 1
 0 16 l 1x11
 4 16 l 1
 4 20 l 1x1480
 0 20 l 1
 0 24 l 1x15
 4 24 l 1x1480
 4 28 l 1x0280
16 8 m 1x2940
 16 16 l 1
 8 16 l 1
 8 8 l 1
 16 8 l 1x2940
EndSplineSet
Validated: 1
EndChar

StartChar: dieresis
Encoding: 168 168 137
Width: 24
Flags: W
HStem: 24 4<0 4 12 16>
VStem: 0 4<24 28> 12 4<24 28>
LayerCount: 2
Fore
SplineSet
12 28 m 1
 16 28 l 1
 16 24 l 1
 12 24 l 1
 12 28 l 1
0 28 m 1
 4 28 l 1
 4 24 l 1
 0 24 l 1
 0 28 l 1
EndSplineSet
Validated: 1
EndChar

StartChar: copyright
Encoding: 169 169 138
Width: 40
Flags: W
HStem: -4 4<4 28> 4 4<16 24> 8 8<8 12> 16 4<16 24> 24 4<4 28>
VStem: 0 4<0 24> 8 8<8 16> 12 12<4 8 16 20> 28 4<0 24>
LayerCount: 2
Fore
SplineSet
12 20 m 1x9d80
 24 20 l 1
 24 16 l 1x9d80
 16 16 l 1
 16 8 l 1xde80
 24 8 l 1
 24 4 l 1
 12 4 l 1xdd80
 12 8 l 1xad80
 8 8 l 1
 8 16 l 1xae80
 12 16 l 1xad80
 12 20 l 1x9d80
4 28 m 1
 28 28 l 1
 28 24 l 1
 32 24 l 1
 32 20 l 1
 32 16 l 1
 32 0 l 1
 28 0 l 1
 28 16 l 1
 28 20 l 1
 28 24 l 1
 4 24 l 1
 4 0 l 1
 0 0 l 1
 0 24 l 1
 4 24 l 1
 4 28 l 1
28 0 m 1
 28 -4 l 1
 4 -4 l 1
 4 0 l 1
 28 0 l 1
EndSplineSet
Validated: 5
EndChar

StartChar: ordfeminine
Encoding: 170 170 139
Width: 32
Flags: W
HStem: 4 4<0 24> 12 4<8 12 20 24> 24 4<8 12>
VStem: 0 8<16 24> 12 8<16 24>
LayerCount: 2
Fore
SplineSet
0 8 m 1
 24 8 l 1
 24 4 l 1
 0 4 l 1
 0 8 l 1
4 28 m 1
 20 28 l 1
 20 24 l 1
 20 16 l 1
 24 16 l 1
 24 12 l 1
 4 12 l 1
 4 16 l 1
 0 16 l 1
 0 24 l 1
 4 24 l 1
 4 28 l 1
12 16 m 1
 12 24 l 1
 8 24 l 1
 8 16 l 1
 12 16 l 1
EndSplineSet
Validated: 1
EndChar

StartChar: guillemotleft
Encoding: 171 171 140
Width: 40
Flags: W
HStem: 4 8<8 12 24 28> 4 4<12 16 28 32> 8 12<4 8 20 24> 12 4<0 4 16 20> 16 8<8 12 24 28> 20 4<12 16 28 32>
VStem: 0 8<12 16> 4 8<8 12 16 20> 8 8<4 8 20 24> 16 8<12 16> 20 8<8 12 16 20> 24 8<4 8 20 24>
LayerCount: 2
Fore
SplineSet
24 24 m 1x0810
 32 24 l 1
 32 20 l 1x0410
 28 20 l 1x0420
 28 16 l 1x0820
 24 16 l 1
 24 12 l 1x8840
 28 12 l 1x8820
 28 8 l 1x4020
 32 8 l 1
 32 4 l 1x4010
 24 4 l 1x8010
 24 8 l 1x2010
 20 8 l 1x2020
 20 12 l 1x1020
 16 12 l 1
 16 16 l 1x1040
 20 16 l 1x1020
 20 20 l 1x2020
 24 20 l 1x2010
 24 24 l 1x0810
8 24 m 1x0880
 16 24 l 1
 16 20 l 1x0480
 12 20 l 1x05
 12 16 l 1x09
 8 16 l 1
 8 12 l 1x8a
 12 12 l 1x89
 12 8 l 1x41
 16 8 l 1
 16 4 l 1x4080
 8 4 l 1x8080
 8 8 l 1x2080
 4 8 l 1x21
 4 12 l 1x11
 0 12 l 1
 0 16 l 1x12
 4 16 l 1x11
 4 20 l 1x21
 8 20 l 1x2080
 8 24 l 1x0880
EndSplineSet
Validated: 1
EndChar

StartChar: logicalnot
Encoding: 172 172 141
Width: 32
Flags: W
HStem: 12 12<16 24> 20 4<0 16>
VStem: 16 8<12 20>
LayerCount: 2
Fore
SplineSet
0 24 m 1x60
 24 24 l 1
 24 12 l 1
 16 12 l 1xa0
 16 20 l 1
 0 20 l 1
 0 24 l 1x60
EndSplineSet
Validated: 1
EndChar

StartChar: uni00AD
Encoding: 173 173 142
Width: 24
Flags: W
HStem: 12 4<0 16>
VStem: 0 16<12 16>
LayerCount: 2
Fore
SplineSet
0 16 m 1
 16 16 l 1
 16 12 l 1
 0 12 l 1
 0 16 l 1
EndSplineSet
Validated: 1
EndChar

StartChar: registered
Encoding: 174 174 143
Width: 40
Flags: W
HStem: -4 4<4 28> 4 4<20 24> 8 4<12 20> 12 4<20 24> 16 4<12 20> 24 4<4 28>
VStem: 0 4<0 24> 8 12<8 12 16 20> 8 4<4 8 12 16> 20 4<4 8 12 16> 28 4<0 24>
LayerCount: 2
Fore
SplineSet
8 20 m 1xaf20
 20 20 l 1xaf20
 20 16 l 1x9720
 24 16 l 1
 24 12 l 1x9660
 20 12 l 1xa720
 20 16 l 1x9720
 12 16 l 1
 12 12 l 1xaea0
 20 12 l 1xaf20
 20 8 l 1xc720
 24 8 l 1
 24 4 l 1
 20 4 l 1xc660
 20 8 l 1xc720
 12 8 l 1xa6a0
 12 4 l 1
 8 4 l 1xc6a0
 8 8 l 1
 8 16 l 1
 8 20 l 1xaf20
4 28 m 1
 28 28 l 1
 28 24 l 1
 32 24 l 1
 32 20 l 1
 32 16 l 1
 32 8 l 1
 32 0 l 1
 28 0 l 1
 28 8 l 1
 28 16 l 1
 28 20 l 1
 28 24 l 1
 4 24 l 1
 4 0 l 1
 0 0 l 1
 0 24 l 1
 4 24 l 1
 4 28 l 1
28 0 m 1
 28 -4 l 1
 4 -4 l 1
 4 0 l 1
 28 0 l 1
EndSplineSet
Validated: 5
EndChar

StartChar: macron
Encoding: 175 175 144
Width: 32
Flags: W
HStem: 24 4<0 24>
LayerCount: 2
Fore
SplineSet
0 28 m 1
 24 28 l 1
 24 24 l 1
 0 24 l 1
 0 28 l 1
EndSplineSet
Validated: 1
EndChar

StartChar: degree
Encoding: 176 176 145
Width: 32
Flags: W
HStem: 16 4<8 16> 20 4<0 4 20 24>
VStem: 0 8<20 24> 16 8<20 24>
LayerCount: 2
Fore
SplineSet
4 28 m 1x70
 20 28 l 1
 20 24 l 1
 24 24 l 1
 24 20 l 1
 20 20 l 1x70
 20 16 l 1
 4 16 l 1xb0
 4 20 l 1
 0 20 l 1
 0 24 l 1
 4 24 l 1
 4 28 l 1x70
16 20 m 1xb0
 16 24 l 1
 8 24 l 1x70
 8 20 l 1
 16 20 l 1xb0
EndSplineSet
Validated: 1
EndChar

StartChar: plusminus
Encoding: 177 177 146
Width: 32
Flags: W
HStem: 0 4<0 24> 16 4<0 8 16 24>
VStem: 8 8<8 16 20 28>
LayerCount: 2
Fore
SplineSet
0 4 m 1
 24 4 l 1
 24 0 l 1
 0 0 l 1
 0 4 l 1
8 28 m 1
 16 28 l 1
 16 20 l 1
 24 20 l 1
 24 16 l 1
 16 16 l 1
 16 8 l 1
 8 8 l 1
 8 16 l 1
 0 16 l 1
 0 20 l 1
 8 20 l 1
 8 28 l 1
EndSplineSet
Validated: 1
EndChar

StartChar: uni00B2
Encoding: 178 178 147
Width: 24
Flags: W
HStem: 8 8<0 4> 8 4<8 16> 20 4<12 16> 24 4<0 8>
VStem: 0 8<12 16> 4 8<16 20> 8 8<20 24>
LayerCount: 2
Fore
SplineSet
0 28 m 1x18
 12 28 l 1x14
 12 24 l 1x24
 16 24 l 1
 16 20 l 1x22
 12 20 l 1
 12 16 l 1xa4
 8 16 l 1xa8
 8 12 l 1x48
 16 12 l 1
 16 8 l 1x42
 0 8 l 1
 0 16 l 1x88
 4 16 l 1
 4 20 l 1xa4
 8 20 l 1xa2
 8 24 l 1x12
 0 24 l 1
 0 28 l 1x18
EndSplineSet
Validated: 1
EndChar

StartChar: uni00B3
Encoding: 179 179 148
Width: 28
Flags: W
HStem: 8 4<0 12> 12 4<16 20> 16 4<8 12> 20 4<16 20> 24 4<0 12>
VStem: 8 8<16 20> 12 8<12 16 20 24>
LayerCount: 2
Fore
SplineSet
0 28 m 1xaa
 16 28 l 1xac
 16 24 l 1x14
 20 24 l 1
 20 20 l 1x12
 16 20 l 1
 16 16 l 1x54
 20 16 l 1
 20 12 l 1x52
 16 12 l 1x54
 16 8 l 1x84
 0 8 l 1
 0 12 l 1
 12 12 l 1
 12 16 l 1xa2
 8 16 l 1
 8 20 l 1xa4
 12 20 l 1
 12 24 l 1
 0 24 l 1
 0 28 l 1xaa
EndSplineSet
Validated: 1
EndChar

StartChar: acute
Encoding: 180 180 149
Width: 24
Flags: W
HStem: 16 8<4 8> 16 4<0 4> 20 8<8 12> 24 4<12 16>
VStem: 0 8<16 20> 4 8<20 24> 8 8<24 28>
LayerCount: 2
Fore
SplineSet
8 28 m 1x22
 16 28 l 1
 16 24 l 1x12
 12 24 l 1x14
 12 20 l 1x24
 8 20 l 1x28
 8 16 l 1x88
 0 16 l 1
 0 20 l 1x48
 4 20 l 1x44
 4 24 l 1x84
 8 24 l 1x82
 8 28 l 1x22
EndSplineSet
Validated: 1
EndChar

StartChar: mu
Encoding: 181 181 150
Width: 36
Flags: W
HStem: -4 4<0 4> 0 20G<4 12 20 28> 4 4<12 20>
VStem: 0 8<-4 0> 4 8<0 4 8 20> 20 8<8 20>
LayerCount: 2
Fore
SplineSet
20 20 m 1x4c
 28 20 l 1x4c
 28 8 l 1
 24 8 l 1
 24 4 l 1
 12 4 l 1x2c
 12 0 l 1x4c
 8 0 l 1x54
 8 -4 l 1
 0 -4 l 1
 0 0 l 1x94
 4 0 l 1
 4 4 l 1xac
 4 20 l 1
 12 20 l 1x4c
 12 8 l 1
 20 8 l 1x2c
 20 20 l 1x4c
EndSplineSet
Validated: 1
EndChar

StartChar: paragraph
Encoding: 182 182 151
Width: 32
Flags: W
HStem: 16 8<0 4> 24 4<16 20>
VStem: 8 8<0 12> 20 4<0 24>
LayerCount: 2
Fore
SplineSet
4 28 m 1x70
 24 28 l 1
 24 24 l 1
 24 0 l 1
 20 0 l 1
 20 24 l 1
 16 24 l 1x70
 16 0 l 1
 8 0 l 1
 8 12 l 1
 4 12 l 1
 4 16 l 1
 0 16 l 1
 0 24 l 1
 4 24 l 1xb0
 4 28 l 1x70
EndSplineSet
Validated: 1
EndChar

StartChar: periodcentered
Encoding: 183 183 152
Width: 16
Flags: W
HStem: 12 4<0 8>
VStem: 0 8<12 16>
LayerCount: 2
Fore
SplineSet
0 16 m 1
 8 16 l 1
 8 12 l 1
 0 12 l 1
 0 16 l 1
EndSplineSet
Validated: 1
EndChar

StartChar: cedilla
Encoding: 184 184 153
Width: 16
Flags: W
HStem: -4 8<4 8> -4 4<0 4>
VStem: 0 8<-4 0> 4 4<0 4>
LayerCount: 2
Fore
SplineSet
4 4 m 1x90
 8 4 l 1x90
 8 -4 l 1xa0
 0 -4 l 1
 0 0 l 1x60
 4 0 l 1x50
 4 4 l 1x90
EndSplineSet
Validated: 1
EndChar

StartChar: uni00B9
Encoding: 185 185 154
Width: 20
Flags: W
HStem: 20 4<0 4>
VStem: 4 8<8 20 24 28>
LayerCount: 2
Fore
SplineSet
4 28 m 1
 12 28 l 1
 12 8 l 1
 4 8 l 1
 4 20 l 1
 0 20 l 1
 0 24 l 1
 4 24 l 1
 4 28 l 1
EndSplineSet
Validated: 1
EndChar

StartChar: ordmasculine
Encoding: 186 186 155
Width: 28
Flags: W
HStem: 4 4<0 20> 12 4<8 12> 16 8<0 4 16 20> 24 4<8 12>
VStem: 0 8<16 24> 4 12<12 16 24 28> 12 8<16 24>
LayerCount: 2
Fore
SplineSet
0 8 m 1x8a
 20 8 l 1
 20 4 l 1
 0 4 l 1
 0 8 l 1x8a
4 28 m 1x94
 16 28 l 1x94
 16 24 l 1xa4
 20 24 l 1
 20 16 l 1xa2
 16 16 l 1xa4
 16 12 l 1
 4 12 l 1xc4
 4 16 l 1xa4
 0 16 l 1
 0 24 l 1xa8
 4 24 l 1xa4
 4 28 l 1x94
12 16 m 1xda
 12 24 l 1
 8 24 l 1
 8 16 l 1
 12 16 l 1xda
EndSplineSet
Validated: 1
EndChar

StartChar: guillemotright
Encoding: 187 187 156
Width: 40
Flags: W
HStem: 4 8<4 8 20 24> 4 4<0 4 16 20> 8 12<8 12 24 28> 12 4<12 16 28 32> 16 8<4 8 20 24> 20 4<0 4 16 20>
VStem: 0 8<4 8 20 24> 4 8<8 12 16 20> 16 8<4 8 20 24> 20 8<8 12 16 20>
LayerCount: 2
Fore
SplineSet
16 24 m 1x0480
 24 24 l 1x0880
 24 20 l 1x2080
 28 20 l 1x2040
 28 16 l 1
 32 16 l 1
 32 12 l 1
 28 12 l 1x1040
 28 8 l 1x2040
 24 8 l 1x2080
 24 4 l 1x8080
 16 4 l 1
 16 8 l 1x4080
 20 8 l 1x4040
 20 12 l 1x8040
 24 12 l 1
 24 16 l 1x8880
 20 16 l 1x8840
 20 20 l 1x0440
 16 20 l 1
 16 24 l 1x0480
0 24 m 1x06
 8 24 l 1x0a
 8 20 l 1x22
 12 20 l 1x21
 12 16 l 1
 16 16 l 1
 16 12 l 1
 12 12 l 1x1180
 12 8 l 1x2180
 8 8 l 1x22
 8 4 l 1x82
 0 4 l 1
 0 8 l 1x42
 4 8 l 1x41
 4 12 l 1x81
 8 12 l 1
 8 16 l 1x8a
 4 16 l 1x89
 4 20 l 1x05
 0 20 l 1
 0 24 l 1x06
EndSplineSet
Validated: 1
EndChar

StartChar: onequarter
Encoding: 188 188 157
Width: 40
Flags: W
HStem: 0 8<4 8 16 20> 0 4<0 4 20 24 28 32> 4 8<8 12> 8 8<12 16> 8 4<20 24> 12 8<16 20> 16 8<20 24> 20 4<0 4> 24 4<28 32>
VStem: 0 8<0 4 20 24> 4 4<12 20 24 28> 8 8<8 12> 12 8<12 16> 16 8<16 20> 16 4<4 8> 20 8<8 12 20 24> 24 4<-4 0 4 8 12 16>
LayerCount: 2
Fore
SplineSet
24 28 m 1x008080
 32 28 l 1
 32 24 l 1
 28 24 l 1x0081
 28 20 l 1x0101
 24 20 l 1x0104
 24 16 l 1x0204
 28 16 l 1x020080
 28 12 l 1x0401
 28 8 l 1x0801
 28 4 l 1
 32 4 l 1
 32 0 l 1
 28 0 l 1
 28 -4 l 1
 24 -4 l 1
 24 0 l 1x480080
 16 0 l 1x800280
 16 4 l 1x200280
 16 8 l 1x8010
 20 8 l 1x8002
 20 4 l 1
 24 4 l 1
 24 8 l 1x480280
 20 8 l 1x800280
 20 12 l 1x0808
 16 12 l 1
 16 8 l 1x8410
 12 8 l 1x1008
 12 4 l 1
 8 4 l 1x2048
 8 0 l 1x8048
 0 0 l 1
 0 4 l 1x4048
 4 4 l 1x4020
 4 8 l 1x8020
 8 8 l 1x8010
 8 12 l 1x2020
 4 12 l 1x0420
 4 20 l 1x0120
 0 20 l 1
 0 24 l 1x0140
 4 24 l 1x0120
 4 28 l 1
 8 28 l 1
 8 12 l 1
 12 12 l 1x20a8
 12 16 l 1x1028
 16 16 l 1x1004
 16 20 l 1x0404
 20 20 l 1x0401
 20 24 l 1x0201
 24 24 l 1x020080
 24 28 l 1x008080
24 12 m 1x0a0880
 24 16 l 1x0a04
 20 16 l 1
 20 12 l 1
 24 12 l 1x0a0880
EndSplineSet
Validated: 5
EndChar

StartChar: onehalf
Encoding: 189 189 158
Width: 40
Flags: W
HStem: -4 4<24 32> 0 8<4 8> 0 4<0 4> 4 8<8 12> 8 8<12 16> 8 4<28 32> 12 8<16 20> 20 4<0 4 24 28>
VStem: 0 8<0 4 20 24> 4 4<12 20 24 28> 8 8<8 12> 16 8<0 4 16 20> 20 8<4 8 20 24>
LayerCount: 2
Fore
SplineSet
20 24 m 1x0108
 28 24 l 1
 28 20 l 1x0108
 24 20 l 1
 24 16 l 1x0910
 28 16 l 1x0908
 28 12 l 1
 32 12 l 1
 32 8 l 1
 28 8 l 1x0408
 28 4 l 1x1008
 24 4 l 1
 24 0 l 1
 32 0 l 1
 32 -4 l 1
 16 -4 l 1
 16 4 l 1x9010
 20 4 l 1x9008
 20 8 l 1x0408
 24 8 l 1x0410
 24 12 l 1x0210
 16 12 l 1x0220
 16 8 l 1
 12 8 l 1x0820
 12 4 l 1
 8 4 l 1x1080
 8 0 l 1x4080
 0 0 l 1
 0 4 l 1x2080
 4 4 l 1x2040
 4 8 l 1x4040
 8 8 l 1x4020
 8 12 l 1x1040
 4 12 l 1x0240
 4 20 l 1x0140
 0 20 l 1
 0 24 l 1x0180
 4 24 l 1
 4 28 l 1
 8 28 l 1
 8 12 l 1
 12 12 l 1x1140
 12 16 l 1
 16 16 l 1x0850
 16 20 l 1x0250
 20 20 l 1x0208
 20 24 l 1x0108
EndSplineSet
Validated: 5
EndChar

StartChar: threequarters
Encoding: 190 190 159
Width: 40
Flags: W
HStem: 0 8<8 12 20 24> 0 4<4 8 24 28> 4 8<12 16> 8 8<16 20> 8 4<0 8 24 28> 12 8<20 24> 16 4<4 8> 20 4<28 32> 24 4<0 8>
VStem: 0 8<8 12 24 28> 4 8<0 4 16 20> 8 4<12 16 20 24> 12 8<8 12> 16 8<12 16> 20 8<16 20> 20 4<4 8> 24 8<8 12 20 24> 28 4<-4 0 4 8 12 16>
LayerCount: 2
Fore
SplineSet
24 24 m 1x048080
 32 24 l 1
 32 20 l 1x010080
 28 20 l 1x0102
 28 16 l 1x0202
 32 16 l 1x020040
 32 12 l 1x040080
 32 4 l 1x200040
 32 -4 l 1
 28 -4 l 1
 28 0 l 1x400040
 20 0 l 1x800140
 20 4 l 1x200140
 20 8 l 1x8008
 16 8 l 1x1004
 16 4 l 1
 12 4 l 1x2024
 12 0 l 1x8024
 4 0 l 1
 4 4 l 1x4024
 8 4 l 1x4010
 8 8 l 1x8040
 0 8 l 1
 0 12 l 1
 8 12 l 1x0840
 8 8 l 1
 12 8 l 1x8048
 12 12 l 1
 16 12 l 1x2014
 16 16 l 1x1014
 20 16 l 1x1002
 20 20 l 1x0402
 24 20 l 1
 24 24 l 1x048080
0 28 m 1x00c0
 8 28 l 1
 8 24 l 1
 0 24 l 1
 0 28 l 1x00c0
28 4 m 1x400140
 28 8 l 1x480140
 24 8 l 1x800140
 24 12 l 1
 28 12 l 1x080440
 28 16 l 1x0a02
 24 16 l 1
 24 12 l 1x0a04
 20 12 l 1
 20 8 l 1x8408
 24 8 l 1x8401
 24 4 l 1
 28 4 l 1x400140
8 12 m 1x0840
 8 16 l 1x0a10
 4 16 l 1
 4 20 l 1x0a20
 8 20 l 1x0a10
 8 24 l 1x0ac0
 12 24 l 1
 12 12 l 1x2290
 8 12 l 1x0840
EndSplineSet
Validated: 5
EndChar

StartChar: questiondown
Encoding: 191 191 160
Width: 32
Flags: W
HStem: 0 4<8 16> 4 8<0 4> 4 4<20 24> 12 8<8 12> 16 4<12 16> 24 4<8 16>
VStem: 0 8<4 12> 4 8<12 16> 8 8<16 20 24 28> 16 8<4 8>
LayerCount: 2
Fore
SplineSet
16 8 m 1x2640
 24 8 l 1
 24 4 l 1
 20 4 l 1x2640
 20 0 l 1
 4 0 l 1x8540
 4 4 l 1x4540
 0 4 l 1
 0 12 l 1x46
 4 12 l 1
 4 16 l 1x4d
 8 16 l 1x4c80
 8 20 l 1x1480
 16 20 l 1
 16 16 l 1x0c80
 12 16 l 1x0d
 12 12 l 1x15
 8 12 l 1
 8 4 l 1
 16 4 l 1x9640
 16 8 l 1x2640
8 28 m 1x0480
 16 28 l 1
 16 24 l 1
 8 24 l 1
 8 28 l 1x0480
EndSplineSet
Validated: 1
EndChar

StartChar: Agrave
Encoding: 192 192 161
Width: 32
Flags: W
HStem: 8 4<4 20> 16 4<4 20> 24 4<0 12>
VStem: 0 4<0 8 12 16> 20 4<0 8 12 16>
CounterMasks: 1 e0
LayerCount: 2
Fore
SplineSet
4 20 m 1
 20 20 l 1
 20 16 l 1
 24 16 l 1
 24 12 l 1
 24 8 l 1
 24 0 l 1
 20 0 l 1
 20 8 l 1
 4 8 l 1
 4 0 l 1
 0 0 l 1
 0 8 l 1
 0 16 l 1
 4 16 l 1
 4 12 l 1
 20 12 l 1
 20 16 l 1
 4 16 l 1
 4 20 l 1
0 28 m 1
 12 28 l 1
 12 24 l 1
 0 24 l 1
 0 28 l 1
EndSplineSet
Validated: 5
EndChar

StartChar: Aacute
Encoding: 193 193 162
Width: 32
Flags: W
HStem: 8 4<4 20> 16 4<4 20> 24 4<12 24>
VStem: 0 4<0 8 12 16> 20 4<0 8 12 16>
CounterMasks: 1 e0
LayerCount: 2
Fore
SplineSet
4 20 m 1
 20 20 l 1
 20 16 l 1
 24 16 l 1
 24 12 l 1
 24 8 l 1
 24 0 l 1
 20 0 l 1
 20 8 l 1
 4 8 l 1
 4 0 l 1
 0 0 l 1
 0 8 l 1
 0 16 l 1
 4 16 l 1
 4 12 l 1
 20 12 l 1
 20 16 l 1
 4 16 l 1
 4 20 l 1
12 28 m 1
 24 28 l 1
 24 24 l 1
 12 24 l 1
 12 28 l 1
EndSplineSet
Validated: 5
EndChar

StartChar: Acircumflex
Encoding: 194 194 163
Width: 32
Flags: W
HStem: 0 12<0 4 20 24> 12 4<4 20> 20 4<4 8 12 16>
VStem: 0 4<0 4 8 12> 12 4<20 24> 20 4<0 4 8 12>
LayerCount: 2
Fore
SplineSet
4 16 m 1x7c
 20 16 l 1x7c
 20 12 l 1
 24 12 l 1
 24 8 l 1
 24 4 l 1
 24 0 l 1
 20 0 l 1
 20 4 l 1
 4 4 l 1
 4 0 l 1
 0 0 l 1
 0 4 l 1
 0 12 l 1
 4 12 l 1
 4 8 l 1
 20 8 l 1
 20 12 l 1
 4 12 l 1xbc
 4 16 l 1x7c
8 28 m 1
 12 28 l 1
 12 24 l 1
 16 24 l 1
 16 20 l 1
 12 20 l 1
 12 24 l 1
 8 24 l 1
 8 20 l 1
 4 20 l 1
 4 24 l 1
 8 24 l 1
 8 28 l 1
EndSplineSet
Validated: 5
EndChar

StartChar: Atilde
Encoding: 195 195 164
Width: 36
Flags: W
HStem: 0 12<4 8 24 28> 12 4<8 24> 20 4<0 4 12 24> 24 4<4 12 24 28>
VStem: 0 4<20 24> 4 8<24 28> 4 4<0 4 8 12> 24 4<0 4 8 12 24 28>
LayerCount: 2
Fore
SplineSet
8 16 m 1x43
 24 16 l 1x43
 24 12 l 1
 28 12 l 1
 28 8 l 1
 28 4 l 1
 28 0 l 1
 24 0 l 1
 24 4 l 1
 8 4 l 1
 8 0 l 1
 4 0 l 1
 4 4 l 1
 4 12 l 1
 8 12 l 1
 8 8 l 1
 24 8 l 1
 24 12 l 1
 8 12 l 1x83
 8 16 l 1x43
24 28 m 1x15
 28 28 l 1
 28 24 l 1x15
 24 24 l 1
 24 20 l 1
 12 20 l 1
 12 24 l 1
 24 24 l 1x25
 24 28 l 1x15
4 28 m 1
 12 28 l 1x15
 12 24 l 1x25
 4 24 l 1
 4 20 l 1
 0 20 l 1
 0 24 l 1
 4 24 l 1x29
 4 28 l 1
EndSplineSet
Validated: 5
EndChar

StartChar: Adieresis
Encoding: 196 196 165
Width: 32
Flags: W
HStem: 8 4<4 20> 16 4<4 20> 24 4<4 8 16 20>
VStem: 0 4<0 8 12 16> 16 4<24 28> 20 4<0 8 12 16>
CounterMasks: 1 e0
LayerCount: 2
Fore
SplineSet
4 20 m 1xf4
 20 20 l 1
 20 16 l 1
 24 16 l 1
 24 12 l 1
 24 8 l 1
 24 0 l 1
 20 0 l 1
 20 8 l 1
 4 8 l 1
 4 0 l 1
 0 0 l 1
 0 8 l 1
 0 16 l 1
 4 16 l 1
 4 12 l 1
 20 12 l 1
 20 16 l 1
 4 16 l 1
 4 20 l 1xf4
16 28 m 1xf8
 20 28 l 1
 20 24 l 1
 16 24 l 1
 16 28 l 1xf8
4 28 m 1
 8 28 l 1
 8 24 l 1
 4 24 l 1
 4 28 l 1
EndSplineSet
Validated: 5
EndChar

StartChar: Aring
Encoding: 197 197 166
Width: 32
Flags: W
HStem: 0 12<0 4 20 24> 12 4<8 16> 20 8<8 16>
VStem: 0 8<0 4 8 12> 8 8<20 28> 16 8<0 4 8 12>
LayerCount: 2
Fore
SplineSet
4 16 m 1x74
 20 16 l 1x74
 20 12 l 1
 24 12 l 1
 24 8 l 1
 24 4 l 1
 24 0 l 1
 16 0 l 1
 16 4 l 1
 8 4 l 1
 8 0 l 1
 0 0 l 1
 0 4 l 1
 0 12 l 1
 4 12 l 1xb4
 4 16 l 1x74
8 28 m 1x28
 16 28 l 1
 16 20 l 1
 8 20 l 1
 8 28 l 1x28
16 8 m 1x74
 16 12 l 1
 8 12 l 1
 8 8 l 1
 16 8 l 1x74
EndSplineSet
Validated: 1
EndChar

StartChar: AE
Encoding: 198 198 167
Width: 40
Flags: W
HStem: 0 4<24 32> 12 4<8 16 24 28> 20 8<8 12> 24 4<12 16 24 32>
VStem: 0 8<0 12 16 20> 16 8<4 12 16 24>
LayerCount: 2
Fore
SplineSet
8 28 m 1xec
 32 28 l 1
 32 24 l 1
 24 24 l 1xdc
 24 20 l 1
 24 16 l 1
 28 16 l 1
 28 12 l 1
 24 12 l 1
 24 4 l 1
 32 4 l 1
 32 0 l 1
 16 0 l 1
 16 12 l 1
 8 12 l 1
 8 0 l 1
 0 0 l 1
 0 12 l 1
 0 20 l 1
 4 20 l 1xec
 4 24 l 1
 8 24 l 1xdc
 8 28 l 1xec
16 16 m 1
 16 20 l 1xec
 16 24 l 1
 12 24 l 1xdc
 12 20 l 1
 8 20 l 1xec
 8 16 l 1
 16 16 l 1
EndSplineSet
Validated: 1
EndChar

StartChar: Ccedilla
Encoding: 199 199 168
Width: 32
Flags: W
HStem: -4 8<8 16> 0 4<4 8 16 20> 20 4<20 24> 24 4<4 20>
VStem: 0 4<4 24> 8 8<-4 0> 20 4<4 8 20 24>
CounterMasks: 1 0e
LayerCount: 2
Fore
SplineSet
20 8 m 1x4e
 24 8 l 1
 24 4 l 1
 20 4 l 1
 20 8 l 1x4e
4 28 m 1x5e
 20 28 l 1x5e
 20 24 l 1
 24 24 l 1
 24 20 l 1
 20 20 l 1
 20 24 l 1x2e
 4 24 l 1
 4 4 l 1
 0 4 l 1
 0 24 l 1
 4 24 l 1
 4 28 l 1x5e
16 0 m 1
 16 -4 l 1
 8 -4 l 1x8e
 8 0 l 1
 4 0 l 1
 4 4 l 1
 20 4 l 1
 20 0 l 1
 16 0 l 1
EndSplineSet
Validated: 5
EndChar

StartChar: Egrave
Encoding: 200 200 169
Width: 32
Flags: W
HStem: 8 4<8 16> 16 4<8 16> 24 4<0 12>
VStem: 0 8<0 8 12 16> 16 8<0 8 12 16>
CounterMasks: 1 e0
LayerCount: 2
Fore
SplineSet
4 20 m 1
 20 20 l 1
 20 16 l 1
 24 16 l 1
 24 12 l 1
 24 8 l 1
 24 0 l 1
 16 0 l 1
 16 8 l 1
 8 8 l 1
 8 0 l 1
 0 0 l 1
 0 8 l 1
 0 16 l 1
 4 16 l 1
 4 20 l 1
0 28 m 1
 12 28 l 1
 12 24 l 1
 0 24 l 1
 0 28 l 1
16 12 m 1
 16 16 l 1
 8 16 l 1
 8 12 l 1
 16 12 l 1
EndSplineSet
Validated: 1
EndChar

StartChar: Eacute
Encoding: 201 201 170
Width: 32
Flags: W
HStem: 8 4<8 16> 16 4<8 16> 24 4<12 24>
VStem: 0 8<0 8 12 16> 16 8<0 8 12 16>
CounterMasks: 1 e0
LayerCount: 2
Fore
SplineSet
4 20 m 1
 20 20 l 1
 20 16 l 1
 24 16 l 1
 24 12 l 1
 24 8 l 1
 24 0 l 1
 16 0 l 1
 16 8 l 1
 8 8 l 1
 8 0 l 1
 0 0 l 1
 0 8 l 1
 0 16 l 1
 4 16 l 1
 4 20 l 1
12 28 m 1
 24 28 l 1
 24 24 l 1
 12 24 l 1
 12 28 l 1
16 12 m 1
 16 16 l 1
 8 16 l 1
 8 12 l 1
 16 12 l 1
EndSplineSet
Validated: 1
EndChar

StartChar: Ecircumflex
Encoding: 202 202 171
Width: 36
Flags: W
HStem: 0 4<8 28> 8 8<8 16> 12 4<16 28> 20 4<8 12 16 20>
VStem: 0 8<4 8> 8 4<20 24> 12 4<24 28> 16 4<20 24>
LayerCount: 2
Fore
SplineSet
0 16 m 1xb9
 28 16 l 1
 28 12 l 1
 16 12 l 1xb9
 16 8 l 1
 8 8 l 1
 8 4 l 1
 28 4 l 1
 28 0 l 1
 0 0 l 1
 0 8 l 1xd9
 0 12 l 1
 0 16 l 1xb9
12 28 m 1x92
 16 28 l 1
 16 24 l 1x92
 20 24 l 1
 20 20 l 1
 16 20 l 1x91
 16 24 l 1x92
 12 24 l 1
 12 20 l 1
 8 20 l 1
 8 24 l 1
 12 24 l 1x94
 12 28 l 1x92
EndSplineSet
Validated: 5
EndChar

StartChar: Edieresis
Encoding: 203 203 172
Width: 32
Flags: W
HStem: 8 4<8 16> 16 4<8 16> 24 4<4 8 16 20>
VStem: 0 8<0 8 12 16> 16 8<0 8 12 16>
CounterMasks: 1 e0
LayerCount: 2
Fore
SplineSet
4 20 m 1
 20 20 l 1
 20 16 l 1
 24 16 l 1
 24 12 l 1
 24 8 l 1
 24 0 l 1
 16 0 l 1
 16 8 l 1
 8 8 l 1
 8 0 l 1
 0 0 l 1
 0 8 l 1
 0 16 l 1
 4 16 l 1
 4 20 l 1
16 28 m 1
 20 28 l 1
 20 24 l 1
 16 24 l 1
 16 28 l 1
4 28 m 1
 8 28 l 1
 8 24 l 1
 4 24 l 1
 4 28 l 1
16 12 m 1
 16 16 l 1
 8 16 l 1
 8 12 l 1
 16 12 l 1
EndSplineSet
Validated: 1
EndChar

StartChar: Igrave
Encoding: 204 204 173
Width: 24
Flags: W
HStem: 0 4<4 8 12 16> 16 4<4 8 12 16> 24 4<0 12>
VStem: 4 12<0 4 16 20>
LayerCount: 2
Fore
SplineSet
4 20 m 1
 16 20 l 1
 16 16 l 1
 12 16 l 1
 12 4 l 1
 16 4 l 1
 16 0 l 1
 4 0 l 1
 4 4 l 1
 8 4 l 1
 8 16 l 1
 4 16 l 1
 4 20 l 1
0 28 m 1
 12 28 l 1
 12 24 l 1
 0 24 l 1
 0 28 l 1
EndSplineSet
Validated: 1
EndChar

StartChar: Iacute
Encoding: 205 205 174
Width: 28
Flags: W
HStem: 0 4<0 4 8 12> 16 4<0 4 8 12> 24 4<8 20>
VStem: 0 12<0 4 16 20>
LayerCount: 2
Fore
SplineSet
0 20 m 1
 12 20 l 1
 12 16 l 1
 8 16 l 1
 8 4 l 1
 12 4 l 1
 12 0 l 1
 0 0 l 1
 0 4 l 1
 4 4 l 1
 4 16 l 1
 0 16 l 1
 0 20 l 1
8 28 m 1
 20 28 l 1
 20 24 l 1
 8 24 l 1
 8 28 l 1
EndSplineSet
Validated: 1
EndChar

StartChar: Icircumflex
Encoding: 206 206 175
Width: 20
Flags: W
HStem: 0 4<0 4 8 12> 12 4<0 4 8 12> 20 4<0 4 8 12>
VStem: 0 4<20 24> 4 4<4 12 24 28>
LayerCount: 2
Fore
SplineSet
0 16 m 1xf0
 12 16 l 1
 12 12 l 1
 8 12 l 1
 8 4 l 1xe8
 12 4 l 1
 12 0 l 1
 0 0 l 1
 0 4 l 1xf0
 4 4 l 1
 4 12 l 1xe8
 0 12 l 1
 0 16 l 1xf0
4 28 m 1
 8 28 l 1
 8 24 l 1
 12 24 l 1
 12 20 l 1
 8 20 l 1
 8 24 l 1xe8
 4 24 l 1
 4 20 l 1
 0 20 l 1
 0 24 l 1
 4 24 l 1xf0
 4 28 l 1
EndSplineSet
Validated: 5
EndChar

StartChar: Idieresis
Encoding: 207 207 176
Width: 24
Flags: W
HStem: 0 4<0 4 8 12> 16 4<0 4 8 12> 24 4<0 4 12 16>
VStem: 0 12<0 4 16 20> 0 4<24 28> 12 4<24 28>
LayerCount: 2
Fore
SplineSet
0 20 m 1xf0
 12 20 l 1
 12 16 l 1
 8 16 l 1
 8 4 l 1
 12 4 l 1
 12 0 l 1
 0 0 l 1
 0 4 l 1xf0
 4 4 l 1
 4 16 l 1xe8
 0 16 l 1
 0 20 l 1xf0
12 28 m 1xe4
 16 28 l 1
 16 24 l 1
 12 24 l 1
 12 28 l 1xe4
0 28 m 1xe8
 4 28 l 1
 4 24 l 1
 0 24 l 1
 0 28 l 1xe8
EndSplineSet
Validated: 1
EndChar

StartChar: Eth
Encoding: 208 208 177
Width: 36
Flags: W
HStem: 0 8<16 20> 0 4<12 16> 12 4<0 4 12 16> 20 8<16 20> 24 4<12 16>
VStem: 4 8<4 12 16 24> 16 8<4 8 20 24>
LayerCount: 2
Fore
SplineSet
4 28 m 1x6e
 20 28 l 1x36
 20 24 l 1
 24 24 l 1x2e
 24 20 l 1
 28 20 l 1
 28 12 l 1
 28 8 l 1
 24 8 l 1xb6
 24 4 l 1
 20 4 l 1x66
 20 0 l 1xa6
 4 0 l 1
 4 12 l 1
 0 12 l 1
 0 16 l 1
 4 16 l 1
 4 24 l 1
 4 28 l 1x6e
20 8 m 1xa6
 20 12 l 1
 20 20 l 1
 16 20 l 1xb6
 16 24 l 1
 12 24 l 1
 12 16 l 1
 16 16 l 1
 16 12 l 1
 12 12 l 1
 12 4 l 1
 16 4 l 1x6e
 16 8 l 1
 20 8 l 1xa6
EndSplineSet
Validated: 1
EndChar

StartChar: Ntilde
Encoding: 209 209 178
Width: 36
Flags: W
HStem: 4 4<16 20> 8 4<8 12> 20 4<0 4 12 24> 24 4<4 12 24 28>
VStem: 0 4<20 24> 4 8<24 28> 4 4<0 8 12 16> 12 12<4 8 20 24> 20 4<0 4 8 16>
LayerCount: 2
Fore
SplineSet
20 16 m 1x8280
 24 16 l 1x8280
 24 8 l 1x41
 24 0 l 1
 20 0 l 1
 20 4 l 1x8080
 12 4 l 1x81
 12 8 l 1
 8 8 l 1
 8 0 l 1
 4 0 l 1
 4 8 l 1
 4 16 l 1
 8 16 l 1
 8 12 l 1
 16 12 l 1x43
 16 8 l 1
 20 8 l 1
 20 16 l 1x8280
24 28 m 1x1080
 28 28 l 1
 28 24 l 1x1080
 24 24 l 1
 24 20 l 1
 12 20 l 1x21
 12 24 l 1x24
 24 24 l 1x21
 24 28 l 1x1080
4 28 m 1x14
 12 28 l 1x14
 12 24 l 1x24
 4 24 l 1
 4 20 l 1
 0 20 l 1
 0 24 l 1
 4 24 l 1x28
 4 28 l 1x14
EndSplineSet
Validated: 5
EndChar

StartChar: Ograve
Encoding: 210 210 179
Width: 32
Flags: W
HStem: 0 4<4 20> 4 12<0 4 20 24> 16 4<4 20> 24 4<0 12>
VStem: 0 4<4 16> 20 4<4 16>
LayerCount: 2
Fore
SplineSet
4 20 m 1x3c
 20 20 l 1x3c
 20 16 l 1
 24 16 l 1
 24 4 l 1x5c
 20 4 l 1x9c
 20 16 l 1
 4 16 l 1x5c
 4 4 l 1x9c
 0 4 l 1
 0 16 l 1
 4 16 l 1x5c
 4 20 l 1x3c
0 28 m 1
 12 28 l 1
 12 24 l 1
 0 24 l 1
 0 28 l 1
20 4 m 1x9c
 20 0 l 1
 4 0 l 1
 4 4 l 1
 20 4 l 1x9c
EndSplineSet
Validated: 5
EndChar

StartChar: Oacute
Encoding: 211 211 180
Width: 32
Flags: W
HStem: 0 4<4 20> 4 12<0 4 20 24> 16 4<4 20> 24 4<12 24>
VStem: 0 4<4 16> 20 4<4 16>
LayerCount: 2
Fore
SplineSet
4 20 m 1x3c
 20 20 l 1x3c
 20 16 l 1
 24 16 l 1
 24 4 l 1x5c
 20 4 l 1x9c
 20 16 l 1
 4 16 l 1x5c
 4 4 l 1x9c
 0 4 l 1
 0 16 l 1
 4 16 l 1x5c
 4 20 l 1x3c
12 28 m 1
 24 28 l 1
 24 24 l 1
 12 24 l 1
 12 28 l 1
20 4 m 1x9c
 20 0 l 1
 4 0 l 1
 4 4 l 1
 20 4 l 1x9c
EndSplineSet
Validated: 5
EndChar

StartChar: Ocircumflex
Encoding: 212 212 181
Width: 32
Flags: W
HStem: 0 4<4 20> 4 8<0 4 20 24> 12 4<4 20> 20 4<4 8 12 16>
VStem: 0 4<4 12> 4 4<20 24> 12 4<20 24> 20 4<4 12>
LayerCount: 2
Fore
SplineSet
4 16 m 1x37
 20 16 l 1x37
 20 12 l 1
 24 12 l 1
 24 4 l 1x57
 20 4 l 1x97
 20 12 l 1
 4 12 l 1x5b
 4 4 l 1x9b
 0 4 l 1
 0 12 l 1
 4 12 l 1x5b
 4 16 l 1x37
8 28 m 1
 12 28 l 1
 12 24 l 1
 16 24 l 1
 16 20 l 1
 12 20 l 1
 12 24 l 1
 8 24 l 1
 8 20 l 1
 4 20 l 1
 4 24 l 1
 8 24 l 1
 8 28 l 1
20 4 m 1x9b
 20 0 l 1
 4 0 l 1x97
 4 4 l 1
 20 4 l 1x9b
EndSplineSet
Validated: 5
EndChar

StartChar: Otilde
Encoding: 213 213 182
Width: 36
Flags: W
HStem: 0 4<8 24> 4 8<4 8 24 28> 12 4<8 24> 20 4<0 4 12 24> 24 4<4 12 24 28>
VStem: 0 4<20 24> 4 8<24 28> 4 4<4 12> 24 4<4 12 24 28>
LayerCount: 2
Fore
SplineSet
8 16 m 1x2180
 24 16 l 1x2180
 24 12 l 1
 28 12 l 1
 28 4 l 1x4180
 24 4 l 1x8180
 24 12 l 1
 8 12 l 1x4180
 8 4 l 1x8180
 4 4 l 1
 4 12 l 1
 8 12 l 1x4180
 8 16 l 1x2180
24 28 m 1x0a80
 28 28 l 1
 28 24 l 1x0a80
 24 24 l 1
 24 20 l 1
 12 20 l 1
 12 24 l 1
 24 24 l 1x1280
 24 28 l 1x0a80
4 28 m 1
 12 28 l 1x0a80
 12 24 l 1x1280
 4 24 l 1
 4 20 l 1
 0 20 l 1
 0 24 l 1
 4 24 l 1x1480
 4 28 l 1
24 4 m 1x8180
 24 0 l 1
 8 0 l 1
 8 4 l 1
 24 4 l 1x8180
EndSplineSet
Validated: 5
EndChar

StartChar: Odieresis
Encoding: 214 214 183
Width: 32
Flags: W
HStem: 0 4<4 20> 4 12<0 4 20 24> 16 4<4 20> 24 4<4 8 16 20>
VStem: 0 4<4 16> 4 4<24 28> 16 4<24 28> 20 4<4 16>
LayerCount: 2
Fore
SplineSet
4 20 m 1x34
 20 20 l 1x35
 20 16 l 1
 24 16 l 1
 24 4 l 1x55
 20 4 l 1x95
 20 16 l 1
 4 16 l 1x59
 4 4 l 1x99
 0 4 l 1
 0 16 l 1
 4 16 l 1x59
 4 20 l 1x34
16 28 m 1x12
 20 28 l 1
 20 24 l 1
 16 24 l 1
 16 28 l 1x12
4 28 m 1x14
 8 28 l 1
 8 24 l 1
 4 24 l 1
 4 28 l 1x14
20 4 m 1x99
 20 0 l 1
 4 0 l 1x95
 4 4 l 1
 20 4 l 1x99
EndSplineSet
Validated: 5
EndChar

StartChar: multiply
Encoding: 215 215 184
Width: 36
Flags: W
HStem: 4 8<4 8 20 24> 4 4<0 4 24 28> 8 12<8 12 16 20> 16 8<4 8 20 24> 20 4<0 4 24 28>
VStem: 0 8<4 8 20 24> 4 8<8 12 16 20> 16 8<8 12 16 20> 20 8<4 8 20 24>
LayerCount: 2
Fore
SplineSet
20 24 m 1x1080
 28 24 l 1
 28 20 l 1x0880
 24 20 l 1x09
 24 16 l 1x11
 20 16 l 1
 20 12 l 1x9080
 24 12 l 1x91
 24 8 l 1x41
 28 8 l 1
 28 4 l 1x4080
 20 4 l 1x8080
 20 8 l 1x2080
 16 8 l 1x21
 16 12 l 1
 12 12 l 1x83
 12 8 l 1x23
 8 8 l 1x24
 8 4 l 1x84
 0 4 l 1
 0 8 l 1x44
 4 8 l 1x42
 4 12 l 1x82
 8 12 l 1
 8 16 l 1x94
 4 16 l 1x92
 4 20 l 1x0a
 0 20 l 1
 0 24 l 1x0c
 8 24 l 1x14
 8 20 l 1x24
 12 20 l 1x22
 12 16 l 1
 16 16 l 1x13
 16 20 l 1x23
 20 20 l 1x2080
 20 24 l 1x1080
EndSplineSet
Validated: 1
EndChar

StartChar: Oslash
Encoding: 216 216 185
Width: 32
Flags: W
HStem: 0 4<8 16> 8 8<8 12> 12 8<12 16> 24 4<8 16>
VStem: 0 8<4 8 16 24> 16 8<4 12 20 24>
LayerCount: 2
Fore
SplineSet
4 28 m 1xbc
 24 28 l 1
 24 24 l 1
 24 16 l 1xdc
 24 12 l 1xbc
 24 8 l 1
 24 4 l 1
 20 4 l 1
 20 0 l 1
 0 0 l 1
 0 8 l 1xdc
 0 12 l 1
 0 24 l 1
 4 24 l 1
 4 28 l 1xbc
16 4 m 1
 16 8 l 1xdc
 16 12 l 1
 12 12 l 1xbc
 12 8 l 1
 8 8 l 1
 8 4 l 1
 16 4 l 1
12 16 m 1
 12 20 l 1
 16 20 l 1xbc
 16 24 l 1
 8 24 l 1
 8 16 l 1
 12 16 l 1
EndSplineSet
Validated: 1
EndChar

StartChar: Ugrave
Encoding: 217 217 186
Width: 36
Flags: W
HStem: 0 20G<0 4 24 28> 0 4<4 24> 24 4<4 16>
VStem: 0 4<4 20> 24 4<4 20>
LayerCount: 2
Fore
SplineSet
24 20 m 1xb8
 28 20 l 1xb8
 28 4 l 1
 24 4 l 1x78
 24 20 l 1xb8
0 20 m 1
 4 20 l 1xb8
 4 4 l 1
 0 4 l 1x78
 0 20 l 1
4 28 m 1
 16 28 l 1
 16 24 l 1
 4 24 l 1
 4 28 l 1
24 4 m 1x78
 24 0 l 1
 4 0 l 1xb8
 4 4 l 1
 24 4 l 1x78
EndSplineSet
Validated: 5
EndChar

StartChar: Uacute
Encoding: 218 218 187
Width: 36
Flags: W
HStem: 0 20G<0 4 24 28> 0 4<4 24> 24 4<16 28>
VStem: 0 4<4 20> 24 4<4 20>
LayerCount: 2
Fore
SplineSet
24 20 m 1xb8
 28 20 l 1xb8
 28 4 l 1
 24 4 l 1x78
 24 20 l 1xb8
0 20 m 1
 4 20 l 1xb8
 4 4 l 1
 0 4 l 1x78
 0 20 l 1
16 28 m 1
 28 28 l 1
 28 24 l 1
 16 24 l 1
 16 28 l 1
24 4 m 1x78
 24 0 l 1
 4 0 l 1xb8
 4 4 l 1
 24 4 l 1x78
EndSplineSet
Validated: 5
EndChar

StartChar: Ucircumflex
Encoding: 219 219 188
Width: 36
Flags: W
HStem: 0 4<4 24> 4 12<0 4 24 28> 20 4<8 12 16 20>
VStem: 0 4<4 16> 8 4<20 24> 16 4<20 24> 24 4<4 16>
LayerCount: 2
Fore
SplineSet
24 16 m 1x7e
 28 16 l 1
 28 4 l 1x7e
 24 4 l 1xbe
 24 16 l 1x7e
0 16 m 1
 4 16 l 1x7e
 4 4 l 1xbe
 0 4 l 1
 0 16 l 1
12 28 m 1
 16 28 l 1
 16 24 l 1
 20 24 l 1
 20 20 l 1
 16 20 l 1
 16 24 l 1
 12 24 l 1
 12 20 l 1
 8 20 l 1
 8 24 l 1
 12 24 l 1
 12 28 l 1
24 4 m 1xbe
 24 0 l 1
 4 0 l 1
 4 4 l 1
 24 4 l 1xbe
EndSplineSet
Validated: 5
EndChar

StartChar: Udieresis
Encoding: 220 220 189
Width: 36
Flags: W
HStem: 0 20G<0 4 24 28> 0 4<4 24> 24 4<8 12 20 24>
VStem: 0 4<4 20> 8 4<24 28> 20 4<24 28> 24 4<4 20>
LayerCount: 2
Fore
SplineSet
24 20 m 1xba
 28 20 l 1xba
 28 4 l 1
 24 4 l 1x7a
 24 20 l 1xba
0 20 m 1
 4 20 l 1xb8
 4 4 l 1
 0 4 l 1x78
 0 20 l 1
20 28 m 1x3c
 24 28 l 1
 24 24 l 1
 20 24 l 1
 20 28 l 1x3c
8 28 m 1
 12 28 l 1
 12 24 l 1
 8 24 l 1
 8 28 l 1
24 4 m 1x7a
 24 0 l 1
 4 0 l 1xba
 4 4 l 1
 24 4 l 1x7a
EndSplineSet
Validated: 5
EndChar

StartChar: Yacute
Encoding: 221 221 190
Width: 32
Flags: W
HStem: 8 4<4 8 12 16> 12 8<0 4 16 20> 24 4<12 24>
VStem: 0 4<12 20> 8 4<0 8> 16 4<12 20>
CounterMasks: 1 1c
LayerCount: 2
Fore
SplineSet
16 20 m 1x7c
 20 20 l 1
 20 12 l 1x7c
 16 12 l 1xbc
 16 20 l 1x7c
0 20 m 1
 4 20 l 1x7c
 4 12 l 1xbc
 0 12 l 1
 0 20 l 1
12 28 m 1
 24 28 l 1
 24 24 l 1
 12 24 l 1
 12 28 l 1
12 8 m 1xbc
 12 0 l 1
 8 0 l 1
 8 8 l 1
 4 8 l 1
 4 12 l 1
 16 12 l 1
 16 8 l 1
 12 8 l 1xbc
EndSplineSet
Validated: 5
EndChar

StartChar: Thorn
Encoding: 222 222 191
Width: 36
Flags: W
HStem: 8 4<8 20> 12 4<24 28> 16 4<8 20>
VStem: 0 8<0 8 12 16 20 28> 20 8<12 16>
LayerCount: 2
Fore
SplineSet
0 28 m 1xb8
 8 28 l 1
 8 20 l 1
 24 20 l 1xb8
 24 16 l 1
 28 16 l 1
 28 12 l 1
 24 12 l 1x58
 24 8 l 1
 8 8 l 1
 8 0 l 1
 0 0 l 1
 0 8 l 1
 0 16 l 1
 0 28 l 1xb8
20 12 m 1
 20 16 l 1
 8 16 l 1
 8 12 l 1
 20 12 l 1
EndSplineSet
Validated: 1
EndChar

StartChar: germandbls
Encoding: 223 223 192
Width: 32
Flags: W
HStem: 0 4<12 16> 4 8<20 24> 12 4<12 16> 16 8<20 24> 24 4<8 16>
VStem: 0 8<0 24> 12 8<0 4 12 16> 16 8<4 12 16 24>
LayerCount: 2
Fore
SplineSet
4 28 m 1xad
 20 28 l 1xae
 20 24 l 1x16
 24 24 l 1
 24 16 l 1x15
 20 16 l 1
 20 12 l 1x56
 24 12 l 1
 24 4 l 1x55
 20 4 l 1x56
 20 0 l 1
 12 0 l 1
 12 4 l 1x86
 16 4 l 1
 16 12 l 1xa5
 12 12 l 1
 12 16 l 1xa6
 16 16 l 1
 16 24 l 1
 8 24 l 1
 8 0 l 1
 0 0 l 1
 0 24 l 1
 4 24 l 1
 4 28 l 1xad
EndSplineSet
Validated: 1
EndChar

StartChar: agrave
Encoding: 224 224 193
Width: 28
Flags: W
HStem: 0 4<4 16> 4 4<0 4> 16 4<4 16> 24 4<0 12>
VStem: 0 4<4 8> 16 4<4 8 12 16>
LayerCount: 2
Fore
SplineSet
4 20 m 1x3c
 16 20 l 1
 16 16 l 1
 4 16 l 1
 4 20 l 1x3c
0 28 m 1
 12 28 l 1
 12 24 l 1
 0 24 l 1
 0 28 l 1
20 4 m 1x7c
 20 0 l 1
 4 0 l 1
 4 4 l 1xbc
 0 4 l 1
 0 8 l 1
 4 8 l 1x7c
 4 4 l 1
 16 4 l 1xbc
 16 8 l 1
 4 8 l 1
 4 12 l 1
 16 12 l 1
 16 16 l 1
 20 16 l 1
 20 8 l 1
 20 4 l 1x7c
EndSplineSet
Validated: 5
EndChar

StartChar: aacute
Encoding: 225 225 194
Width: 32
Flags: W
HStem: 0 4<4 16> 4 4<0 4> 16 4<4 16> 24 4<12 24>
VStem: 0 4<4 8> 16 4<4 8 12 16>
LayerCount: 2
Fore
SplineSet
4 20 m 1x3c
 16 20 l 1
 16 16 l 1
 4 16 l 1
 4 20 l 1x3c
12 28 m 1
 24 28 l 1
 24 24 l 1
 12 24 l 1
 12 28 l 1
20 4 m 1x7c
 20 0 l 1
 4 0 l 1
 4 4 l 1xbc
 0 4 l 1
 0 8 l 1
 4 8 l 1x7c
 4 4 l 1
 16 4 l 1xbc
 16 8 l 1
 4 8 l 1
 4 12 l 1
 16 12 l 1
 16 16 l 1
 20 16 l 1
 20 8 l 1
 20 4 l 1x7c
EndSplineSet
Validated: 5
EndChar

StartChar: acircumflex
Encoding: 226 226 195
Width: 36
Flags: W
HStem: 0 4<4 24> 4 4<0 4> 8 4<4 8> 12 4<8 24> 20 4<8 12 16 20>
VStem: 0 4<4 8> 4 4<8 12> 8 4<20 24> 16 4<20 24> 24 4<4 12>
LayerCount: 2
Fore
SplineSet
8 16 m 1x19c0
 28 16 l 1
 28 12 l 1x19c0
 28 8 l 1x29c0
 28 4 l 1x49c0
 28 0 l 1
 4 0 l 1x8ac0
 4 4 l 1x8cc0
 0 4 l 1
 0 8 l 1
 4 8 l 1x4cc0
 4 4 l 1
 24 4 l 1
 24 8 l 1xacc0
 24 12 l 1x1cc0
 8 12 l 1
 8 8 l 1x2ac0
 4 8 l 1x4cc0
 4 12 l 1
 8 12 l 1x2ac0
 8 16 l 1x19c0
12 28 m 1
 16 28 l 1
 16 24 l 1
 20 24 l 1
 20 20 l 1
 16 20 l 1
 16 24 l 1
 12 24 l 1
 12 20 l 1
 8 20 l 1
 8 24 l 1
 12 24 l 1
 12 28 l 1
EndSplineSet
Validated: 5
EndChar

StartChar: atilde
Encoding: 227 227 196
Width: 36
Flags: W
HStem: 0 4<4 24> 4 4<0 4> 8 4<4 8> 12 4<8 24> 20 4<0 4 12 24> 24 4<4 12 24 28>
VStem: 0 4<4 8 20 24> 4 8<24 28> 4 4<8 12> 24 4<4 12 24 28>
LayerCount: 2
Fore
SplineSet
8 16 m 1x10c0
 28 16 l 1
 28 12 l 1x10c0
 28 8 l 1x20c0
 28 4 l 1x40c0
 28 0 l 1
 4 0 l 1x80c0
 4 4 l 1x8240
 0 4 l 1
 0 8 l 1
 4 8 l 1x4240
 4 4 l 1
 24 4 l 1
 24 8 l 1xa240
 24 12 l 1x1240
 8 12 l 1
 8 8 l 1x20c0
 4 8 l 1x4240
 4 12 l 1
 8 12 l 1x20c0
 8 16 l 1x10c0
24 28 m 1x0540
 28 28 l 1
 28 24 l 1x0540
 24 24 l 1
 24 20 l 1
 12 20 l 1
 12 24 l 1
 24 24 l 1x0940
 24 28 l 1x0540
4 28 m 1
 12 28 l 1x0540
 12 24 l 1x0940
 4 24 l 1
 4 20 l 1
 0 20 l 1
 0 24 l 1
 4 24 l 1x0a40
 4 28 l 1
EndSplineSet
Validated: 5
EndChar

StartChar: adieresis
Encoding: 228 228 197
Width: 28
Flags: W
HStem: 0 4<4 16> 4 4<0 4> 16 4<4 16> 24 4<4 8 16 20>
VStem: 0 4<4 8> 4 4<24 28> 16 4<4 8 12 16 24 28>
LayerCount: 2
Fore
SplineSet
4 20 m 1x36
 16 20 l 1
 16 16 l 1
 4 16 l 1
 4 20 l 1x36
16 28 m 1
 20 28 l 1
 20 24 l 1
 16 24 l 1
 16 28 l 1
4 28 m 1
 8 28 l 1
 8 24 l 1
 4 24 l 1
 4 28 l 1
20 4 m 1x76
 20 0 l 1
 4 0 l 1xb6
 4 4 l 1xba
 0 4 l 1
 0 8 l 1
 4 8 l 1x7a
 4 4 l 1
 16 4 l 1xba
 16 8 l 1
 4 8 l 1x7a
 4 12 l 1
 16 12 l 1
 16 16 l 1
 20 16 l 1
 20 8 l 1
 20 4 l 1x76
EndSplineSet
Validated: 5
EndChar

StartChar: aring
Encoding: 229 229 198
Width: 36
Flags: W
HStem: 0 4<4 24> 4 4<0 4> 8 4<4 8> 12 4<8 24> 20 8<12 20>
VStem: 0 4<4 8> 4 4<8 12> 12 8<20 28> 24 4<4 12>
LayerCount: 2
Fore
SplineSet
8 16 m 1x1b80
 28 16 l 1
 28 12 l 1x1b80
 28 8 l 1x2b80
 28 4 l 1x4b80
 28 0 l 1
 4 0 l 1x8b80
 4 4 l 1x8d80
 0 4 l 1
 0 8 l 1
 4 8 l 1x4d80
 4 4 l 1
 24 4 l 1
 24 8 l 1xad80
 24 12 l 1x1d80
 8 12 l 1
 8 8 l 1x2b80
 4 8 l 1x4d80
 4 12 l 1
 8 12 l 1x2b80
 8 16 l 1x1b80
12 28 m 1
 20 28 l 1
 20 20 l 1
 12 20 l 1
 12 28 l 1
EndSplineSet
Validated: 5
EndChar

StartChar: ae
Encoding: 230 230 199
Width: 40
Flags: W
HStem: 0 4<8 12 20 32> 8 8<28 32> 8 4<8 12 20 24> 16 4<4 12 20 24>
VStem: 0 8<4 8> 12 8<4 8 12 16> 24 8<12 16>
CounterMasks: 1 0e
LayerCount: 2
Fore
SplineSet
4 20 m 1xbe
 28 20 l 1xbe
 28 16 l 1
 32 16 l 1xce
 32 12 l 1xae
 32 8 l 1xce
 20 8 l 1
 20 4 l 1
 16 4 l 1
 16 0 l 1
 4 0 l 1
 4 4 l 1
 0 4 l 1
 0 8 l 1
 4 8 l 1
 4 12 l 1
 12 12 l 1
 12 16 l 1
 4 16 l 1
 4 20 l 1xbe
20 4 m 1
 32 4 l 1
 32 0 l 1
 20 0 l 1
 20 4 l 1
12 4 m 1
 12 8 l 1
 8 8 l 1
 8 4 l 1
 12 4 l 1
24 12 m 1
 24 16 l 1
 20 16 l 1
 20 12 l 1
 24 12 l 1
EndSplineSet
Validated: 5
EndChar

StartChar: ccedilla
Encoding: 231 231 200
Width: 28
Flags: W
HStem: -4 8<8 16> 0 4<4 8> 4 4<16 20> 12 4<16 20> 16 4<4 16>
VStem: 0 4<4 16> 4 12<0 4 16 20> 16 4<4 8 12 16>
LayerCount: 2
Fore
SplineSet
16 8 m 1x21
 20 8 l 1
 20 4 l 1x21
 16 4 l 1x82
 16 8 l 1x21
4 20 m 1x2a
 16 20 l 1x2a
 16 16 l 1x12
 20 16 l 1
 20 12 l 1
 16 12 l 1x11
 16 16 l 1x12
 4 16 l 1
 4 4 l 1x4c
 0 4 l 1
 0 16 l 1
 4 16 l 1x2c
 4 20 l 1x2a
16 4 m 1x82
 16 -4 l 1
 8 -4 l 1x81
 8 0 l 1
 4 0 l 1x42
 4 4 l 1x44
 16 4 l 1x82
EndSplineSet
Validated: 5
EndChar

StartChar: egrave
Encoding: 232 232 201
Width: 28
Flags: W
HStem: 0 4<4 16> 8 8<16 20> 8 4<4 16> 16 4<4 16> 24 4<0 12>
VStem: 0 4<4 8 12 16> 4 12<0 4 16 20> 16 4<12 16>
LayerCount: 2
Fore
SplineSet
4 20 m 1x9a
 16 20 l 1x9a
 16 16 l 1xca
 20 16 l 1xc9
 20 12 l 1xa9
 20 8 l 1xc9
 4 8 l 1
 4 4 l 1
 0 4 l 1
 0 8 l 1
 0 16 l 1
 4 16 l 1
 4 12 l 1
 16 12 l 1xbd
 16 16 l 1xca
 4 16 l 1x9c
 4 20 l 1x9a
0 28 m 1x8c
 12 28 l 1
 12 24 l 1
 0 24 l 1
 0 28 l 1x8c
4 4 m 1
 16 4 l 1
 16 0 l 1
 4 0 l 1x8a
 4 4 l 1
EndSplineSet
Validated: 5
EndChar

StartChar: eacute
Encoding: 233 233 202
Width: 32
Flags: W
HStem: 0 4<4 16> 8 8<16 20> 8 4<4 16> 16 4<4 16> 24 4<12 24>
VStem: 0 4<4 8 12 16> 4 12<0 4 16 20> 16 4<12 16>
LayerCount: 2
Fore
SplineSet
4 20 m 1x9a
 16 20 l 1x9a
 16 16 l 1xca
 20 16 l 1xc9
 20 12 l 1xa9
 20 8 l 1xc9
 4 8 l 1
 4 4 l 1
 0 4 l 1
 0 8 l 1
 0 16 l 1
 4 16 l 1
 4 12 l 1
 16 12 l 1xbd
 16 16 l 1xca
 4 16 l 1x9c
 4 20 l 1x9a
12 28 m 1
 24 28 l 1
 24 24 l 1
 12 24 l 1
 12 28 l 1
4 4 m 1x8c
 16 4 l 1
 16 0 l 1
 4 0 l 1x8a
 4 4 l 1x8c
EndSplineSet
Validated: 5
EndChar

StartChar: ecircumflex
Encoding: 234 234 203
Width: 32
Flags: W
HStem: 0 4<4 20> 4 8<0 4> 8 8<4 20> 8 4<20 24> 20 4<4 8 12 16>
VStem: 0 4<4 8> 4 4<20 24> 12 4<20 24>
LayerCount: 2
Fore
SplineSet
4 16 m 1x2b
 20 16 l 1x2b
 20 12 l 1
 24 12 l 1
 24 8 l 1x1b
 4 8 l 1
 4 4 l 1xad
 0 4 l 1x4d
 0 8 l 1x1d
 0 12 l 1x4d
 4 12 l 1x4b
 4 16 l 1x2b
8 28 m 1
 12 28 l 1
 12 24 l 1
 16 24 l 1
 16 20 l 1
 12 20 l 1
 12 24 l 1
 8 24 l 1
 8 20 l 1
 4 20 l 1
 4 24 l 1
 8 24 l 1
 8 28 l 1
4 4 m 1x8d
 20 4 l 1
 20 0 l 1
 4 0 l 1x8b
 4 4 l 1x8d
EndSplineSet
Validated: 5
EndChar

StartChar: edieresis
Encoding: 235 235 204
Width: 28
Flags: W
HStem: 0 4<4 16> 8 8<16 20> 8 4<4 16> 16 4<4 16> 24 4<4 8 16 20>
VStem: 0 4<4 8 12 16> 4 12<0 4 16 20> 4 4<24 28> 16 4<12 16 24 28>
LayerCount: 2
Fore
SplineSet
4 20 m 1x9a
 16 20 l 1x9a
 16 16 l 1xca
 20 16 l 1xc880
 20 12 l 1xa880
 20 8 l 1xc880
 4 8 l 1
 4 4 l 1
 0 4 l 1
 0 8 l 1
 0 16 l 1
 4 16 l 1
 4 12 l 1
 16 12 l 1xbc80
 16 16 l 1xca
 4 16 l 1x9c
 4 20 l 1x9a
16 28 m 1x8880
 20 28 l 1
 20 24 l 1
 16 24 l 1
 16 28 l 1x8880
4 28 m 1x89
 8 28 l 1
 8 24 l 1
 4 24 l 1
 4 28 l 1x89
4 4 m 1x8c
 16 4 l 1
 16 0 l 1
 4 0 l 1x8a
 4 4 l 1x8c
EndSplineSet
Validated: 5
EndChar

StartChar: igrave
Encoding: 236 236 205
Width: 24
Flags: W
HStem: 0 4<4 8 12 16> 16 4<4 8> 24 4<0 12>
VStem: 4 8<16 20> 8 4<4 16>
LayerCount: 2
Fore
SplineSet
4 20 m 1xf0
 12 20 l 1xf0
 12 4 l 1xe8
 16 4 l 1
 16 0 l 1
 4 0 l 1
 4 4 l 1xf0
 8 4 l 1
 8 16 l 1xe8
 4 16 l 1
 4 20 l 1xf0
0 28 m 1
 12 28 l 1
 12 24 l 1xe8
 0 24 l 1
 0 28 l 1
EndSplineSet
Validated: 1
EndChar

StartChar: iacute
Encoding: 237 237 206
Width: 28
Flags: W
HStem: 0 4<0 4 8 12> 16 4<0 4> 24 4<8 20>
VStem: 0 8<16 20> 4 4<4 16>
LayerCount: 2
Fore
SplineSet
0 20 m 1xf0
 8 20 l 1xf0
 8 4 l 1xe8
 12 4 l 1
 12 0 l 1
 0 0 l 1
 0 4 l 1xf0
 4 4 l 1
 4 16 l 1xe8
 0 16 l 1
 0 20 l 1xf0
8 28 m 1xe8
 20 28 l 1
 20 24 l 1
 8 24 l 1
 8 28 l 1xe8
EndSplineSet
Validated: 1
EndChar

StartChar: icircumflex
Encoding: 238 238 207
Width: 20
Flags: W
HStem: 0 4<0 4 8 12> 12 4<0 4> 20 4<0 4 8 12>
VStem: 0 4<20 24> 4 4<4 12 24 28>
LayerCount: 2
Fore
SplineSet
0 16 m 1xf0
 8 16 l 1
 8 4 l 1xe8
 12 4 l 1
 12 0 l 1
 0 0 l 1
 0 4 l 1xf0
 4 4 l 1
 4 12 l 1xe8
 0 12 l 1
 0 16 l 1xf0
4 28 m 1
 8 28 l 1
 8 24 l 1
 12 24 l 1
 12 20 l 1
 8 20 l 1
 8 24 l 1xe8
 4 24 l 1
 4 20 l 1
 0 20 l 1
 0 24 l 1
 4 24 l 1xf0
 4 28 l 1
EndSplineSet
Validated: 5
EndChar

StartChar: idieresis
Encoding: 239 239 208
Width: 24
Flags: W
HStem: 0 4<0 4 8 12> 16 4<0 4> 24 4<0 4 12 16>
VStem: 0 4<24 28> 4 4<4 16> 12 4<24 28>
LayerCount: 2
Fore
SplineSet
0 20 m 1xf4
 8 20 l 1
 8 4 l 1xec
 12 4 l 1
 12 0 l 1
 0 0 l 1
 0 4 l 1xf4
 4 4 l 1
 4 16 l 1xec
 0 16 l 1
 0 20 l 1xf4
12 28 m 1
 16 28 l 1
 16 24 l 1
 12 24 l 1
 12 28 l 1
0 28 m 1xf4
 4 28 l 1
 4 24 l 1
 0 24 l 1
 0 28 l 1xf4
EndSplineSet
Validated: 1
EndChar

StartChar: eth
Encoding: 240 240 209
Width: 36
Flags: W
HStem: 0 4<8 16> 4 8<0 4> 12 4<8 16> 20 4<8 16 24 28>
VStem: 0 8<4 12> 16 8<4 12 16 20 24 28>
LayerCount: 2
Fore
SplineSet
16 28 m 1x3c
 24 28 l 1
 24 24 l 1
 28 24 l 1
 28 20 l 1
 24 20 l 1
 24 12 l 1x3c
 24 4 l 1
 20 4 l 1x5c
 20 0 l 1
 4 0 l 1x9c
 4 4 l 1
 0 4 l 1
 0 12 l 1
 4 12 l 1x5c
 4 16 l 1
 16 16 l 1
 16 20 l 1
 8 20 l 1
 8 24 l 1
 16 24 l 1
 16 28 l 1x3c
16 4 m 1xbc
 16 12 l 1
 8 12 l 1
 8 4 l 1
 16 4 l 1xbc
EndSplineSet
Validated: 1
EndChar

StartChar: ntilde
Encoding: 241 241 210
Width: 36
Flags: W
HStem: 12 4<8 24> 20 4<0 4 12 24> 24 4<4 12 24 28>
VStem: 0 4<20 24> 4 8<24 28> 4 4<0 12> 24 4<0 12 24 28>
LayerCount: 2
Fore
SplineSet
4 16 m 1x86
 24 16 l 1
 24 12 l 1
 28 12 l 1
 28 0 l 1
 24 0 l 1
 24 12 l 1
 8 12 l 1
 8 0 l 1
 4 0 l 1
 4 12 l 1
 4 16 l 1x86
24 28 m 1xaa
 28 28 l 1
 28 24 l 1xaa
 24 24 l 1
 24 20 l 1
 12 20 l 1
 12 24 l 1
 24 24 l 1xca
 24 28 l 1xaa
4 28 m 1
 12 28 l 1xaa
 12 24 l 1xca
 4 24 l 1
 4 20 l 1
 0 20 l 1
 0 24 l 1
 4 24 l 1xd2
 4 28 l 1
EndSplineSet
Validated: 5
EndChar

StartChar: ograve
Encoding: 242 242 211
Width: 32
Flags: W
HStem: 0 4<8 16> 4 12<0 4 20 24> 16 4<8 16> 24 4<0 12>
VStem: 0 8<4 16> 16 8<4 16>
LayerCount: 2
Fore
SplineSet
4 20 m 1x3c
 20 20 l 1x3c
 20 16 l 1
 24 16 l 1
 24 4 l 1
 20 4 l 1x5c
 20 0 l 1
 4 0 l 1x9c
 4 4 l 1
 0 4 l 1
 0 16 l 1
 4 16 l 1x5c
 4 20 l 1x3c
0 28 m 1
 12 28 l 1
 12 24 l 1
 0 24 l 1
 0 28 l 1
16 4 m 1xbc
 16 16 l 1
 8 16 l 1
 8 4 l 1
 16 4 l 1xbc
EndSplineSet
Validated: 1
EndChar

StartChar: oacute
Encoding: 243 243 212
Width: 32
Flags: W
HStem: 0 4<8 16> 4 12<0 4 20 24> 16 4<8 16> 24 4<12 24>
VStem: 0 8<4 16> 16 8<4 16>
LayerCount: 2
Fore
SplineSet
4 20 m 1x3c
 20 20 l 1x3c
 20 16 l 1
 24 16 l 1
 24 4 l 1
 20 4 l 1x5c
 20 0 l 1
 4 0 l 1x9c
 4 4 l 1
 0 4 l 1
 0 16 l 1
 4 16 l 1x5c
 4 20 l 1x3c
12 28 m 1
 24 28 l 1
 24 24 l 1
 12 24 l 1
 12 28 l 1
16 4 m 1xbc
 16 16 l 1
 8 16 l 1
 8 4 l 1
 16 4 l 1xbc
EndSplineSet
Validated: 1
EndChar

StartChar: ocircumflex
Encoding: 244 244 213
Width: 32
Flags: W
HStem: 0 4<8 16> 4 8<0 4 20 24> 12 4<8 16> 20 4<4 8 12 16>
VStem: 0 8<4 12> 4 4<20 24> 12 4<20 24> 16 8<4 12>
LayerCount: 2
Fore
SplineSet
4 16 m 1x34
 20 16 l 1x34
 20 12 l 1
 24 12 l 1
 24 4 l 1
 20 4 l 1x55
 20 0 l 1
 4 0 l 1x95
 4 4 l 1x55
 0 4 l 1
 0 12 l 1x58
 4 12 l 1x54
 4 16 l 1x34
8 28 m 1
 12 28 l 1
 12 24 l 1
 16 24 l 1
 16 20 l 1
 12 20 l 1
 12 24 l 1x16
 8 24 l 1
 8 20 l 1
 4 20 l 1
 4 24 l 1
 8 24 l 1
 8 28 l 1
16 4 m 1xb9
 16 12 l 1
 8 12 l 1
 8 4 l 1
 16 4 l 1xb9
EndSplineSet
Validated: 5
EndChar

StartChar: otilde
Encoding: 245 245 214
Width: 36
Flags: W
HStem: 0 4<12 20> 4 8<4 8 24 28> 12 4<12 20> 20 4<0 4 12 24> 24 4<4 12 24 28>
VStem: 0 4<20 24> 4 8<4 12 24 28> 20 8<4 12> 24 4<24 28>
LayerCount: 2
Fore
SplineSet
8 16 m 1x2280
 24 16 l 1x2280
 24 12 l 1x4280
 28 12 l 1
 28 4 l 1x41
 24 4 l 1x4080
 24 0 l 1
 8 0 l 1x8080
 8 4 l 1
 4 4 l 1
 4 12 l 1
 8 12 l 1x4280
 8 16 l 1x2280
24 28 m 1x0a80
 28 28 l 1
 28 24 l 1x0a80
 24 24 l 1
 24 20 l 1
 12 20 l 1
 12 24 l 1
 24 24 l 1x1280
 24 28 l 1x0a80
4 28 m 1
 12 28 l 1x0a
 12 24 l 1x12
 4 24 l 1
 4 20 l 1
 0 20 l 1
 0 24 l 1
 4 24 l 1x14
 4 28 l 1
20 4 m 1xa3
 20 12 l 1
 12 12 l 1
 12 4 l 1
 20 4 l 1xa3
EndSplineSet
Validated: 5
EndChar

StartChar: odieresis
Encoding: 246 246 215
Width: 32
Flags: W
HStem: 0 4<8 16> 4 12<0 4 20 24> 16 4<8 16> 24 4<4 8 16 20>
VStem: 0 8<4 16> 4 4<24 28> 16 8<4 16> 16 4<24 28>
LayerCount: 2
Fore
SplineSet
4 20 m 1x34
 20 20 l 1x35
 20 16 l 1x55
 24 16 l 1
 24 4 l 1x52
 20 4 l 1x51
 20 0 l 1
 4 0 l 1x95
 4 4 l 1x55
 0 4 l 1
 0 16 l 1x58
 4 16 l 1x54
 4 20 l 1x34
16 28 m 1
 20 28 l 1
 20 24 l 1
 16 24 l 1
 16 28 l 1
4 28 m 1
 8 28 l 1
 8 24 l 1
 4 24 l 1
 4 28 l 1
16 4 m 1xba
 16 16 l 1
 8 16 l 1
 8 4 l 1
 16 4 l 1xba
EndSplineSet
Validated: 1
EndChar

StartChar: divide
Encoding: 247 247 216
Width: 32
Flags: W
HStem: 0 8<8 16> 12 4<0 24> 20 8<8 16>
VStem: 8 8<0 8 20 28>
CounterMasks: 1 e0
LayerCount: 2
Fore
SplineSet
8 8 m 1
 16 8 l 1
 16 0 l 1
 8 0 l 1
 8 8 l 1
0 16 m 1
 24 16 l 1
 24 12 l 1
 0 12 l 1
 0 16 l 1
8 28 m 1
 16 28 l 1
 16 20 l 1
 8 20 l 1
 8 28 l 1
EndSplineSet
Validated: 1
EndChar

StartChar: oslash
Encoding: 248 248 217
Width: 36
Flags: W
HStem: -4 4<0 4> 0 8<8 12> 0 4<12 20> 4 12<0 4 24 28> 12 8<16 20> 16 4<8 16> 20 4<24 28>
VStem: 0 8<8 16> 0 4<-4 0> 12 4<8 12> 20 8<4 12> 24 4<20 24>
LayerCount: 2
Fore
SplineSet
24 24 m 1x92d0
 28 24 l 1
 28 20 l 1
 24 20 l 1
 24 16 l 1
 28 16 l 1x92d0
 28 12 l 1x0860
 28 4 l 1x1060
 24 4 l 1x1050
 24 0 l 1x2050
 4 0 l 1
 4 -4 l 1
 0 -4 l 1
 0 0 l 1
 4 0 l 1
 4 4 l 1
 0 4 l 1x90d0
 0 16 l 1x9140
 4 16 l 1
 4 20 l 1
 24 20 l 1
 24 24 l 1x92d0
16 12 m 1x4840
 16 8 l 1
 12 8 l 1
 12 12 l 1
 16 12 l 1x4840
16 12 m 1
 16 16 l 1
 8 16 l 1
 8 8 l 1
 12 8 l 1x4560
 12 4 l 1
 20 4 l 1
 20 12 l 1x2960
 16 12 l 1
EndSplineSet
Validated: 5
EndChar

StartChar: ugrave
Encoding: 249 249 218
Width: 28
Flags: W
HStem: 0 20G<0 4 16 20> 0 4<4 16> 24 4<0 12>
VStem: 0 4<4 20> 16 4<4 20>
LayerCount: 2
Fore
SplineSet
16 20 m 1xb8
 20 20 l 1xb8
 20 4 l 1
 16 4 l 1x78
 16 20 l 1xb8
0 20 m 1
 4 20 l 1xb8
 4 4 l 1
 0 4 l 1x78
 0 20 l 1
0 28 m 1
 12 28 l 1
 12 24 l 1
 0 24 l 1
 0 28 l 1
16 4 m 1x78
 16 0 l 1
 4 0 l 1xb8
 4 4 l 1
 16 4 l 1x78
EndSplineSet
Validated: 5
EndChar

StartChar: uacute
Encoding: 250 250 219
Width: 32
Flags: W
HStem: 0 20G<0 4 16 20> 0 4<4 16> 24 4<12 24>
VStem: 0 4<4 20> 16 4<4 20>
LayerCount: 2
Fore
SplineSet
16 20 m 1xb8
 20 20 l 1xb8
 20 4 l 1
 16 4 l 1x78
 16 20 l 1xb8
0 20 m 1
 4 20 l 1xb8
 4 4 l 1
 0 4 l 1x78
 0 20 l 1
12 28 m 1
 24 28 l 1
 24 24 l 1
 12 24 l 1
 12 28 l 1
16 4 m 1x78
 16 0 l 1
 4 0 l 1xb8
 4 4 l 1
 16 4 l 1x78
EndSplineSet
Validated: 5
EndChar

StartChar: ucircumflex
Encoding: 251 251 220
Width: 28
Flags: W
HStem: 0 4<4 16> 4 12<0 4 16 20> 20 4<4 8 12 16>
VStem: 0 4<4 16> 4 4<20 24> 12 4<20 24> 16 4<4 16>
LayerCount: 2
Fore
SplineSet
16 16 m 1x62
 20 16 l 1
 20 4 l 1x62
 16 4 l 1xa2
 16 16 l 1x62
0 16 m 1x70
 4 16 l 1x70
 4 4 l 1xb0
 0 4 l 1
 0 16 l 1x70
8 28 m 1x2c
 12 28 l 1
 12 24 l 1
 16 24 l 1
 16 20 l 1
 12 20 l 1
 12 24 l 1
 8 24 l 1
 8 20 l 1
 4 20 l 1
 4 24 l 1
 8 24 l 1
 8 28 l 1x2c
16 4 m 1xb2
 16 0 l 1
 4 0 l 1xaa
 4 4 l 1
 16 4 l 1xb2
EndSplineSet
Validated: 5
EndChar

StartChar: udieresis
Encoding: 252 252 221
Width: 28
Flags: W
HStem: 0 20G<0 4 16 20> 0 4<4 16> 24 4<4 8 16 20>
VStem: 0 4<4 20> 4 4<24 28> 16 4<4 20 24 28>
LayerCount: 2
Fore
SplineSet
16 20 m 1xa4
 20 20 l 1xa4
 20 4 l 1
 16 4 l 1x64
 16 20 l 1xa4
0 20 m 1xb4
 4 20 l 1xb4
 4 4 l 1
 0 4 l 1x74
 0 20 l 1xb4
16 28 m 1
 20 28 l 1
 20 24 l 1
 16 24 l 1
 16 28 l 1
4 28 m 1x2c
 8 28 l 1
 8 24 l 1
 4 24 l 1
 4 28 l 1x2c
16 4 m 1x74
 16 0 l 1
 4 0 l 1xac
 4 4 l 1
 16 4 l 1x74
EndSplineSet
Validated: 5
EndChar

StartChar: yacute
Encoding: 253 253 222
Width: 32
Flags: W
HStem: -4 4<4 16> 0 20G<0 4 16 20> 4 4<4 16> 24 4<12 24>
VStem: 0 4<8 20> 16 4<0 4 8 20>
LayerCount: 2
Fore
SplineSet
16 20 m 1x5c
 20 20 l 1x5c
 20 8 l 1x3c
 20 0 l 1x5c
 16 0 l 1
 16 -4 l 1
 4 -4 l 1
 4 0 l 1
 16 0 l 1
 16 4 l 1
 4 4 l 1
 4 8 l 1
 0 8 l 1xbc
 0 20 l 1
 4 20 l 1x5c
 4 8 l 1
 16 8 l 1x3c
 16 20 l 1x5c
12 28 m 1
 24 28 l 1
 24 24 l 1
 12 24 l 1
 12 28 l 1
EndSplineSet
Validated: 5
EndChar

StartChar: thorn
Encoding: 254 254 223
Width: 32
Flags: W
HStem: 4 4<8 16> 8 8<20 24> 16 4<8 16>
VStem: 0 8<-4 4 8 16 20 28> 16 8<8 16>
LayerCount: 2
Fore
SplineSet
0 28 m 1xb8
 8 28 l 1
 8 20 l 1
 20 20 l 1xb8
 20 16 l 1
 24 16 l 1
 24 8 l 1
 20 8 l 1x58
 20 4 l 1
 8 4 l 1
 8 -4 l 1
 0 -4 l 1
 0 4 l 1
 0 16 l 1
 0 28 l 1xb8
16 8 m 1
 16 16 l 1
 8 16 l 1
 8 8 l 1
 16 8 l 1
EndSplineSet
Validated: 1
EndChar

StartChar: ydieresis
Encoding: 255 255 224
Width: 28
Flags: W
HStem: -4 4<4 16> 0 20G<0 4 16 20> 4 4<4 16> 24 4<4 8 16 20>
VStem: 0 4<8 20> 4 4<24 28> 16 4<0 4 8 20 24 28>
LayerCount: 2
Fore
SplineSet
16 20 m 1x5a
 20 20 l 1x5a
 20 8 l 1x3a
 20 0 l 1x5a
 16 0 l 1
 16 -4 l 1
 4 -4 l 1
 4 0 l 1
 16 0 l 1
 16 4 l 1
 4 4 l 1xb6
 4 8 l 1
 0 8 l 1xba
 0 20 l 1
 4 20 l 1x5a
 4 8 l 1
 16 8 l 1x3a
 16 20 l 1x5a
16 28 m 1
 20 28 l 1
 20 24 l 1
 16 24 l 1
 16 28 l 1
4 28 m 1x16
 8 28 l 1
 8 24 l 1
 4 24 l 1
 4 28 l 1x16
EndSplineSet
Validated: 5
EndChar

StartChar: Amacron
Encoding: 256 256 225
Width: 32
Flags: W
HStem: 8 4<4 20> 16 4<4 20> 24 4<0 24>
VStem: 0 4<0 8 12 16> 20 4<0 8 12 16>
CounterMasks: 1 e0
LayerCount: 2
Fore
SplineSet
4 20 m 1
 20 20 l 1
 20 16 l 1
 24 16 l 1
 24 12 l 1
 24 8 l 1
 24 0 l 1
 20 0 l 1
 20 8 l 1
 4 8 l 1
 4 0 l 1
 0 0 l 1
 0 8 l 1
 0 16 l 1
 4 16 l 1
 4 12 l 1
 20 12 l 1
 20 16 l 1
 4 16 l 1
 4 20 l 1
0 28 m 1
 24 28 l 1
 24 24 l 1
 0 24 l 1
 0 28 l 1
EndSplineSet
Validated: 5
EndChar

StartChar: amacron
Encoding: 257 257 226
Width: 32
Flags: W
HStem: 0 4<4 16> 4 4<0 4> 16 4<4 16> 24 4<0 24>
VStem: 0 4<4 8> 16 4<4 8 12 16>
LayerCount: 2
Fore
SplineSet
4 20 m 1x3c
 16 20 l 1
 16 16 l 1
 4 16 l 1
 4 20 l 1x3c
0 28 m 1
 24 28 l 1
 24 24 l 1
 0 24 l 1
 0 28 l 1
20 4 m 1x7c
 20 0 l 1
 4 0 l 1
 4 4 l 1xbc
 0 4 l 1
 0 8 l 1
 4 8 l 1x7c
 4 4 l 1
 16 4 l 1xbc
 16 8 l 1
 4 8 l 1
 4 12 l 1
 16 12 l 1
 16 16 l 1
 20 16 l 1
 20 8 l 1
 20 4 l 1x7c
EndSplineSet
Validated: 5
EndChar

StartChar: Abreve
Encoding: 258 258 227
Width: 36
Flags: W
HStem: 0 12<4 8 24 28> 12 4<8 24> 20 4<4 24> 24 4<0 4 24 28>
VStem: 0 4<24 28> 4 4<0 4 8 12> 24 4<0 4 8 12 24 28>
LayerCount: 2
Fore
SplineSet
8 16 m 1x46
 24 16 l 1x46
 24 12 l 1
 28 12 l 1
 28 8 l 1
 28 4 l 1
 28 0 l 1
 24 0 l 1
 24 4 l 1
 8 4 l 1
 8 0 l 1
 4 0 l 1
 4 4 l 1
 4 12 l 1
 8 12 l 1
 8 8 l 1
 24 8 l 1
 24 12 l 1
 8 12 l 1x86
 8 16 l 1x46
24 28 m 1x12
 28 28 l 1
 28 24 l 1x12
 24 24 l 1x22
 24 28 l 1x12
0 28 m 1x1a
 4 28 l 1x1a
 4 24 l 1x2a
 0 24 l 1
 0 28 l 1x1a
24 24 m 1x2a
 24 20 l 1
 4 20 l 1x26
 4 24 l 1
 24 24 l 1x2a
EndSplineSet
Validated: 5
EndChar

StartChar: abreve
Encoding: 259 259 228
Width: 36
Flags: W
HStem: 0 4<4 24> 4 4<0 4> 8 4<4 8> 12 4<8 24> 20 4<4 24> 24 4<0 4 24 28>
VStem: 0 4<4 8 24 28> 24 4<4 12 24 28>
LayerCount: 2
Fore
SplineSet
8 16 m 1x13
 28 16 l 1
 28 12 l 1x13
 28 8 l 1x23
 28 4 l 1x43
 28 0 l 1
 4 0 l 1
 4 4 l 1x83
 0 4 l 1
 0 8 l 1
 4 8 l 1x43
 4 4 l 1
 24 4 l 1
 24 8 l 1xa3
 24 12 l 1x13
 8 12 l 1
 8 8 l 1x23
 4 8 l 1x43
 4 12 l 1
 8 12 l 1x23
 8 16 l 1x13
24 28 m 1x07
 28 28 l 1
 28 24 l 1x07
 24 24 l 1x0b
 24 28 l 1x07
0 28 m 1
 4 28 l 1x07
 4 24 l 1x0b
 0 24 l 1
 0 28 l 1
24 24 m 1x0b
 24 20 l 1
 4 20 l 1
 4 24 l 1
 24 24 l 1x0b
EndSplineSet
Validated: 5
EndChar

StartChar: Aogonek
Encoding: 260 260 229
Width: 32
Flags: W
HStem: -4 4<12 20> 0 20G<0 4> 12 4<4 20> 20 4<4 8 16 20>
VStem: 0 4<0 12 16 20> 16 4<20 24> 20 4<0 12 16 20>
LayerCount: 2
Fore
SplineSet
8 28 m 1x1c
 16 28 l 1
 16 24 l 1
 20 24 l 1
 20 20 l 1x1c
 24 20 l 1
 24 16 l 1
 24 12 l 1
 24 -4 l 1
 12 -4 l 1
 12 0 l 1
 20 0 l 1
 20 12 l 1
 4 12 l 1xba
 4 0 l 1
 0 0 l 1x4a
 0 12 l 1x2a
 0 20 l 1
 4 20 l 1x4a
 4 16 l 1
 20 16 l 1x2a
 20 20 l 1
 16 20 l 1
 16 24 l 1
 8 24 l 1
 8 20 l 1x3c
 4 20 l 1x4c
 4 24 l 1
 8 24 l 1
 8 28 l 1x1c
EndSplineSet
Validated: 5
EndChar

StartChar: aogonek
Encoding: 261 261 230
Width: 32
Flags: W
HStem: -4 4<20 24> 0 4<4 12> 4 4<0 4> 16 4<4 16>
VStem: 0 4<4 8> 16 4<4 8 12 16>
LayerCount: 2
Fore
SplineSet
4 20 m 1x1c
 16 20 l 1
 16 16 l 1
 4 16 l 1
 4 20 l 1x1c
20 4 m 1x3c
 20 0 l 1
 24 0 l 1
 24 -4 l 1
 12 -4 l 1xbc
 12 0 l 1
 4 0 l 1
 4 4 l 1x5c
 0 4 l 1
 0 8 l 1
 4 8 l 1x3c
 4 4 l 1x5c
 16 4 l 1
 16 8 l 1
 4 8 l 1
 4 12 l 1
 16 12 l 1
 16 16 l 1
 20 16 l 1
 20 8 l 1
 20 4 l 1x3c
EndSplineSet
Validated: 5
EndChar

StartChar: Cacute
Encoding: 262 262 231
Width: 36
Flags: W
HStem: 0 4<4 28> 16 4<4 28> 24 4<16 28>
VStem: 0 4<4 16>
LayerCount: 2
Fore
SplineSet
4 20 m 1
 28 20 l 1
 28 16 l 1
 4 16 l 1
 4 4 l 1
 0 4 l 1
 0 16 l 1
 4 16 l 1
 4 20 l 1
16 28 m 1
 28 28 l 1
 28 24 l 1
 16 24 l 1
 16 28 l 1
4 4 m 1
 28 4 l 1
 28 0 l 1
 4 0 l 1
 4 4 l 1
EndSplineSet
Validated: 5
EndChar

StartChar: cacute
Encoding: 263 263 232
Width: 32
Flags: W
HStem: 0 4<4 16> 4 4<16 20> 12 4<16 20> 16 4<4 16> 24 4<12 24>
VStem: 0 4<4 16> 4 12<0 4 16 20> 16 4<4 8 12 16>
LayerCount: 2
Fore
SplineSet
16 8 m 1x49
 20 8 l 1
 20 4 l 1x49
 16 4 l 1x8a
 16 8 l 1x49
4 20 m 1x5a
 16 20 l 1x5a
 16 16 l 1x2a
 20 16 l 1
 20 12 l 1
 16 12 l 1x29
 16 16 l 1x2a
 4 16 l 1
 4 4 l 1x9c
 0 4 l 1
 0 16 l 1
 4 16 l 1x5c
 4 20 l 1x5a
12 28 m 1
 24 28 l 1
 24 24 l 1
 12 24 l 1
 12 28 l 1
16 4 m 1x8a
 16 0 l 1
 4 0 l 1x8a
 4 4 l 1x8c
 16 4 l 1x8a
EndSplineSet
Validated: 5
EndChar

StartChar: Ccircumflex
Encoding: 264 264 233
Width: 36
Flags: W
HStem: 0 4<4 28> 4 8<0 4> 12 4<4 28> 20 4<8 12 16 20>
VStem: 0 4<4 12> 8 4<20 24> 16 4<20 24>
CounterMasks: 1 0e
LayerCount: 2
Fore
SplineSet
4 16 m 1x3e
 28 16 l 1
 28 12 l 1x3e
 4 12 l 1x5e
 4 4 l 1x9e
 0 4 l 1
 0 12 l 1
 4 12 l 1x5e
 4 16 l 1x3e
12 28 m 1
 16 28 l 1
 16 24 l 1
 20 24 l 1
 20 20 l 1
 16 20 l 1
 16 24 l 1
 12 24 l 1
 12 20 l 1
 8 20 l 1
 8 24 l 1
 12 24 l 1
 12 28 l 1
4 4 m 1x9e
 28 4 l 1
 28 0 l 1
 4 0 l 1
 4 4 l 1x9e
EndSplineSet
Validated: 5
EndChar

StartChar: ccircumflex
Encoding: 265 265 234
Width: 28
Flags: W
HStem: 0 4<4 20> 4 8<0 4> 12 4<4 20> 20 4<4 8 12 16>
VStem: 0 4<4 12> 4 4<20 24> 12 4<20 24>
LayerCount: 2
Fore
SplineSet
4 16 m 1x36
 20 16 l 1
 20 12 l 1x36
 4 12 l 1x5a
 4 4 l 1x9a
 0 4 l 1
 0 12 l 1
 4 12 l 1x5a
 4 16 l 1x36
8 28 m 1
 12 28 l 1
 12 24 l 1
 16 24 l 1
 16 20 l 1
 12 20 l 1
 12 24 l 1
 8 24 l 1
 8 20 l 1
 4 20 l 1
 4 24 l 1
 8 24 l 1
 8 28 l 1
4 4 m 1x9a
 20 4 l 1
 20 0 l 1
 4 0 l 1x96
 4 4 l 1x9a
EndSplineSet
Validated: 5
EndChar

StartChar: Cdotaccent
Encoding: 266 266 235
Width: 36
Flags: W
HStem: 0 4<4 28> 16 4<4 28> 24 4<12 20>
VStem: 0 4<4 16> 12 8<24 28>
LayerCount: 2
Fore
SplineSet
4 20 m 1
 28 20 l 1
 28 16 l 1
 4 16 l 1
 4 4 l 1
 0 4 l 1
 0 16 l 1
 4 16 l 1
 4 20 l 1
12 28 m 1
 20 28 l 1
 20 24 l 1
 12 24 l 1
 12 28 l 1
4 4 m 1
 28 4 l 1
 28 0 l 1
 4 0 l 1
 4 4 l 1
EndSplineSet
Validated: 5
EndChar

StartChar: cdotaccent
Encoding: 267 267 236
Width: 28
Flags: W
HStem: 0 4<4 16> 4 4<16 20> 12 4<16 20> 16 4<4 16> 24 4<8 16>
VStem: 0 4<4 16> 4 12<0 4 16 20> 16 4<4 8 12 16>
LayerCount: 2
Fore
SplineSet
16 8 m 1x49
 20 8 l 1
 20 4 l 1x49
 16 4 l 1x8a
 16 8 l 1x49
4 20 m 1x5a
 16 20 l 1x5a
 16 16 l 1x2a
 20 16 l 1
 20 12 l 1
 16 12 l 1x29
 16 16 l 1x2a
 4 16 l 1
 4 4 l 1x9c
 0 4 l 1
 0 16 l 1
 4 16 l 1x5c
 4 20 l 1x5a
8 28 m 1
 16 28 l 1
 16 24 l 1x09
 8 24 l 1
 8 28 l 1
16 4 m 1x8a
 16 0 l 1
 4 0 l 1x8a
 4 4 l 1x8c
 16 4 l 1x8a
EndSplineSet
Validated: 5
EndChar

StartChar: Ccaron
Encoding: 268 268 237
Width: 36
Flags: W
HStem: 0 4<4 28> 4 8<0 4> 12 4<4 28> 20 4<12 16> 24 4<8 12 16 20>
VStem: 0 4<4 12> 8 4<24 28> 12 4<20 24> 16 4<24 28>
LayerCount: 2
Fore
SplineSet
4 16 m 1x24
 28 16 l 1
 28 12 l 1x24
 4 12 l 1x44
 4 4 l 1x84
 0 4 l 1
 0 12 l 1
 4 12 l 1x44
 4 16 l 1x24
16 28 m 1x0c80
 20 28 l 1
 20 24 l 1x0c80
 16 24 l 1x15
 16 28 l 1x0c80
8 28 m 1x0e
 12 28 l 1x0e
 12 24 l 1x16
 8 24 l 1
 8 28 l 1x0e
4 4 m 1x84
 28 4 l 1
 28 0 l 1
 4 0 l 1
 4 4 l 1x84
16 24 m 1x15
 16 20 l 1
 12 20 l 1x15
 12 24 l 1x16
 16 24 l 1x15
EndSplineSet
Validated: 5
EndChar

StartChar: ccaron
Encoding: 269 269 238
Width: 28
Flags: W
HStem: 0 4<4 20> 4 8<0 4> 12 4<4 20> 20 4<8 12> 24 4<4 8 12 16>
VStem: 0 4<4 12> 4 4<24 28> 8 4<20 24> 12 4<24 28>
LayerCount: 2
Fore
SplineSet
4 16 m 1x22
 20 16 l 1
 20 12 l 1x22
 4 12 l 1x44
 4 4 l 1x84
 0 4 l 1
 0 12 l 1
 4 12 l 1x44
 4 16 l 1x22
12 28 m 1x0880
 16 28 l 1
 16 24 l 1x0880
 12 24 l 1x11
 12 28 l 1x0880
4 28 m 1x0a
 8 28 l 1x0a
 8 24 l 1x12
 4 24 l 1
 4 28 l 1x0a
4 4 m 1x84
 20 4 l 1
 20 0 l 1
 4 0 l 1x82
 4 4 l 1x84
12 24 m 1x11
 12 20 l 1
 8 20 l 1x11
 8 24 l 1x12
 12 24 l 1x11
EndSplineSet
Validated: 5
EndChar

StartChar: Dcaron
Encoding: 270 270 239
Width: 32
Flags: W
HStem: 0 4<8 16> 12 4<8 16> 20 4<8 12> 24 4<4 8 12 16>
VStem: 0 8<4 12> 4 4<24 28> 8 4<20 24> 12 4<24 28> 16 8<4 12>
LayerCount: 2
Fore
SplineSet
0 16 m 1xc880
 20 16 l 1
 20 12 l 1
 24 12 l 1
 24 4 l 1
 20 4 l 1
 20 0 l 1
 0 0 l 1
 0 12 l 1
 0 16 l 1xc880
12 28 m 1xd1
 16 28 l 1
 16 24 l 1xd1
 12 24 l 1xe2
 12 28 l 1xd1
4 28 m 1xd4
 8 28 l 1xd4
 8 24 l 1xe4
 4 24 l 1
 4 28 l 1xd4
16 4 m 1xc880
 16 12 l 1
 8 12 l 1
 8 4 l 1
 16 4 l 1xc880
12 24 m 1xe2
 12 20 l 1
 8 20 l 1xe2
 8 24 l 1xe4
 12 24 l 1xe2
EndSplineSet
Validated: 5
EndChar

StartChar: dcaron
Encoding: 271 271 240
Width: 36
Flags: W
HStem: 0 4<8 12> 16 4<8 12> 20 8<24 28>
VStem: 0 8<4 16> 12 8<4 16 20 28> 24 4<20 28>
LayerCount: 2
Fore
SplineSet
24 28 m 1xbc
 28 28 l 1
 28 20 l 1
 24 20 l 1
 24 28 l 1xbc
12 28 m 1
 20 28 l 1xbc
 20 16 l 1
 20 4 l 1
 20 0 l 1
 4 0 l 1
 4 4 l 1
 0 4 l 1
 0 16 l 1
 4 16 l 1xdc
 4 20 l 1xbc
 12 20 l 1xdc
 12 28 l 1
12 4 m 1
 12 16 l 1
 8 16 l 1xdc
 8 4 l 1
 12 4 l 1
EndSplineSet
Validated: 1
EndChar

StartChar: Dcroat
Encoding: 272 272 241
Width: 36
Flags: W
HStem: 0 8<16 20> 0 4<12 16> 12 4<0 4 12 16> 20 8<16 20> 24 4<12 16>
VStem: 4 8<4 12 16 24> 16 8<4 8 20 24>
LayerCount: 2
Fore
SplineSet
4 28 m 1x6e
 20 28 l 1x36
 20 24 l 1
 24 24 l 1x2e
 24 20 l 1
 28 20 l 1
 28 12 l 1
 28 8 l 1
 24 8 l 1xb6
 24 4 l 1
 20 4 l 1x66
 20 0 l 1xa6
 4 0 l 1
 4 12 l 1
 0 12 l 1
 0 16 l 1
 4 16 l 1
 4 24 l 1
 4 28 l 1x6e
20 8 m 1xa6
 20 12 l 1
 20 20 l 1
 16 20 l 1xb6
 16 24 l 1
 12 24 l 1
 12 16 l 1
 16 16 l 1
 16 12 l 1
 12 12 l 1
 12 4 l 1
 16 4 l 1x6e
 16 8 l 1
 20 8 l 1xa6
EndSplineSet
Validated: 1
EndChar

StartChar: dcroat
Encoding: 273 273 242
Width: 36
Flags: W
HStem: 0 4<8 16> 4 8<0 4> 12 4<8 16> 20 4<8 16 24 28>
VStem: 0 8<4 12> 16 8<4 12 16 20 24 28>
LayerCount: 2
Fore
SplineSet
16 28 m 1x3c
 24 28 l 1
 24 24 l 1
 28 24 l 1
 28 20 l 1
 24 20 l 1
 24 12 l 1x3c
 24 4 l 1x5c
 24 0 l 1
 4 0 l 1x9c
 4 4 l 1
 0 4 l 1
 0 12 l 1
 4 12 l 1x5c
 4 16 l 1
 16 16 l 1
 16 20 l 1
 8 20 l 1
 8 24 l 1
 16 24 l 1
 16 28 l 1x3c
16 4 m 1xbc
 16 12 l 1
 8 12 l 1
 8 4 l 1
 16 4 l 1xbc
EndSplineSet
Validated: 1
EndChar

StartChar: Emacron
Encoding: 274 274 243
Width: 36
Flags: W
HStem: 0 4<8 28> 8 4<8 20> 16 4<8 28> 24 4<4 28>
VStem: 0 8<4 8 12 16>
LayerCount: 2
Fore
SplineSet
0 20 m 1
 28 20 l 1
 28 16 l 1
 8 16 l 1
 8 12 l 1
 20 12 l 1
 20 8 l 1
 8 8 l 1
 8 4 l 1
 28 4 l 1
 28 0 l 1
 0 0 l 1
 0 8 l 1
 0 16 l 1
 0 20 l 1
4 28 m 1
 28 28 l 1
 28 24 l 1
 4 24 l 1
 4 28 l 1
EndSplineSet
Validated: 1
EndChar

StartChar: emacron
Encoding: 275 275 244
Width: 32
Flags: W
HStem: 0 4<4 16> 8 8<16 20> 8 4<4 16> 16 4<4 16> 24 4<0 24>
VStem: 0 4<4 8 12 16> 4 12<0 4 16 20> 16 4<12 16>
LayerCount: 2
Fore
SplineSet
4 20 m 1x9a
 16 20 l 1x9a
 16 16 l 1xca
 20 16 l 1xc9
 20 12 l 1xa9
 20 8 l 1xc9
 4 8 l 1
 4 4 l 1
 0 4 l 1
 0 8 l 1
 0 16 l 1
 4 16 l 1
 4 12 l 1
 16 12 l 1xbd
 16 16 l 1xca
 4 16 l 1x9c
 4 20 l 1x9a
0 28 m 1x8c
 24 28 l 1
 24 24 l 1
 0 24 l 1
 0 28 l 1x8c
4 4 m 1
 16 4 l 1
 16 0 l 1
 4 0 l 1x8a
 4 4 l 1
EndSplineSet
Validated: 5
EndChar

StartChar: Ebreve
Encoding: 276 276 245
Width: 36
Flags: W
HStem: 0 4<8 28> 8 8<8 16> 12 4<16 28> 20 4<4 24> 24 4<0 4 24 28>
VStem: 0 8<4 8> 0 4<24 28> 24 4<24 28>
LayerCount: 2
Fore
SplineSet
0 16 m 1xa3
 28 16 l 1
 28 12 l 1
 16 12 l 1xa3
 16 8 l 1
 8 8 l 1
 8 4 l 1xc5
 28 4 l 1
 28 0 l 1
 0 0 l 1xc3
 0 8 l 1xc5
 0 12 l 1
 0 16 l 1xa3
24 28 m 1x89
 28 28 l 1
 28 24 l 1x89
 24 24 l 1x91
 24 28 l 1x89
0 28 m 1x8b
 4 28 l 1x8b
 4 24 l 1x93
 0 24 l 1
 0 28 l 1x8b
24 24 m 1x93
 24 20 l 1
 4 20 l 1
 4 24 l 1
 24 24 l 1x93
EndSplineSet
Validated: 5
EndChar

StartChar: ebreve
Encoding: 277 277 246
Width: 36
Flags: W
HStem: 0 4<8 24> 4 8<4 8> 8 8<8 24> 8 4<24 28> 20 4<4 24> 24 4<0 4 24 28>
VStem: 0 4<24 28> 4 4<4 8> 24 4<24 28>
LayerCount: 2
Fore
SplineSet
8 16 m 1x2180
 24 16 l 1x2180
 24 12 l 1
 28 12 l 1
 28 8 l 1x1180
 8 8 l 1
 8 4 l 1xa180
 4 4 l 1x4180
 4 8 l 1x1180
 4 12 l 1
 8 12 l 1x4180
 8 16 l 1x2180
24 28 m 1x0480
 28 28 l 1
 28 24 l 1x0480
 24 24 l 1x0880
 24 28 l 1x0480
0 28 m 1x0680
 4 28 l 1x0680
 4 24 l 1x0a80
 0 24 l 1
 0 28 l 1x0680
8 4 m 1x8180
 24 4 l 1
 24 0 l 1
 8 0 l 1
 8 4 l 1x8180
24 24 m 1x0a80
 24 20 l 1
 4 20 l 1x0980
 4 24 l 1
 24 24 l 1x0a80
EndSplineSet
Validated: 5
EndChar

StartChar: Edotaccent
Encoding: 278 278 247
Width: 32
Flags: W
HStem: 8 4<8 16> 16 4<8 16> 24 4<8 16>
VStem: 0 8<0 8 12 16> 8 8<24 28> 16 8<0 8 12 16>
CounterMasks: 1 e0
LayerCount: 2
Fore
SplineSet
4 20 m 1xf4
 20 20 l 1
 20 16 l 1
 24 16 l 1
 24 12 l 1
 24 8 l 1
 24 0 l 1
 16 0 l 1
 16 8 l 1
 8 8 l 1
 8 0 l 1
 0 0 l 1
 0 8 l 1
 0 16 l 1
 4 16 l 1
 4 20 l 1xf4
8 28 m 1xe8
 16 28 l 1
 16 24 l 1
 8 24 l 1
 8 28 l 1xe8
16 12 m 1xf4
 16 16 l 1
 8 16 l 1
 8 12 l 1
 16 12 l 1xf4
EndSplineSet
Validated: 1
EndChar

StartChar: edotaccent
Encoding: 279 279 248
Width: 28
Flags: W
HStem: 0 4<4 16> 8 8<16 20> 8 4<4 16> 16 4<4 16> 24 4<8 16>
VStem: 0 4<4 8 12 16> 4 12<0 4 16 20> 16 4<12 16>
LayerCount: 2
Fore
SplineSet
4 20 m 1x9a
 16 20 l 1x9a
 16 16 l 1xca
 20 16 l 1xc9
 20 12 l 1xa9
 20 8 l 1xc9
 4 8 l 1
 4 4 l 1
 0 4 l 1
 0 8 l 1
 0 16 l 1
 4 16 l 1
 4 12 l 1
 16 12 l 1xbd
 16 16 l 1xca
 4 16 l 1x9c
 4 20 l 1x9a
8 28 m 1
 16 28 l 1
 16 24 l 1x89
 8 24 l 1
 8 28 l 1
4 4 m 1x8c
 16 4 l 1
 16 0 l 1
 4 0 l 1x8a
 4 4 l 1x8c
EndSplineSet
Validated: 5
EndChar

StartChar: Eogonek
Encoding: 280 280 249
Width: 32
Flags: W
HStem: -4 8<12 24> 0 4<4 12> 12 4<4 16> 24 4<4 24>
VStem: 0 4<4 12 16 24>
LayerCount: 2
Fore
SplineSet
0 28 m 1x78
 24 28 l 1
 24 24 l 1
 4 24 l 1
 4 16 l 1
 16 16 l 1
 16 12 l 1
 4 12 l 1
 4 4 l 1x78
 24 4 l 1
 24 -4 l 1
 12 -4 l 1xb8
 12 0 l 1
 0 0 l 1
 0 12 l 1
 0 24 l 1
 0 28 l 1x78
EndSplineSet
Validated: 1
EndChar

StartChar: eogonek
Encoding: 281 281 250
Width: 32
Flags: W
HStem: -4 4<16 24> 0 4<4 12> 8 8<16 20> 8 4<4 16> 16 4<4 16>
VStem: 0 4<4 8 12 16> 4 12<0 4 16 20> 16 4<12 16>
LayerCount: 2
Fore
SplineSet
4 20 m 1x0a
 16 20 l 1x0a
 16 16 l 1x22
 20 16 l 1x21
 20 12 l 1x11
 20 8 l 1x21
 4 8 l 1
 4 4 l 1
 0 4 l 1
 0 8 l 1
 0 16 l 1
 4 16 l 1
 4 12 l 1
 16 12 l 1x5d
 16 16 l 1x22
 4 16 l 1x0c
 4 20 l 1x0a
4 4 m 1x44
 16 4 l 1x42
 16 0 l 1
 24 0 l 1
 24 -4 l 1
 12 -4 l 1x82
 12 0 l 1
 4 0 l 1x42
 4 4 l 1x44
EndSplineSet
Validated: 5
EndChar

StartChar: Ecaron
Encoding: 282 282 251
Width: 36
Flags: W
HStem: 0 4<8 28> 8 8<8 16> 12 4<16 28> 20 4<12 16> 24 4<8 12 16 20>
VStem: 0 8<4 8> 8 4<24 28> 12 4<20 24> 16 4<24 28>
LayerCount: 2
Fore
SplineSet
0 16 m 1xa480
 28 16 l 1
 28 12 l 1
 16 12 l 1xa480
 16 8 l 1
 8 8 l 1
 8 4 l 1
 28 4 l 1
 28 0 l 1
 0 0 l 1
 0 8 l 1xc480
 0 12 l 1
 0 16 l 1xa480
16 28 m 1x8880
 20 28 l 1
 20 24 l 1x8880
 16 24 l 1x91
 16 28 l 1x8880
8 28 m 1x8a
 12 28 l 1x8a
 12 24 l 1x92
 8 24 l 1
 8 28 l 1x8a
16 24 m 1x91
 16 20 l 1
 12 20 l 1x91
 12 24 l 1x92
 16 24 l 1x91
EndSplineSet
Validated: 5
EndChar

StartChar: ecaron
Encoding: 283 283 252
Width: 32
Flags: W
HStem: 0 4<4 20> 4 8<0 4> 8 8<4 20> 8 4<20 24> 20 4<8 12> 24 4<4 8 12 16>
VStem: 0 4<4 8> 4 4<24 28> 8 4<20 24> 12 4<24 28>
LayerCount: 2
Fore
SplineSet
4 16 m 1x21
 20 16 l 1x21
 20 12 l 1
 24 12 l 1
 24 8 l 1x11
 4 8 l 1
 4 4 l 1xa2
 0 4 l 1x42
 0 8 l 1x12
 0 12 l 1x42
 4 12 l 1x41
 4 16 l 1x21
12 28 m 1x0440
 16 28 l 1
 16 24 l 1x0440
 12 24 l 1x0880
 12 28 l 1x0440
4 28 m 1x05
 8 28 l 1x05
 8 24 l 1x09
 4 24 l 1
 4 28 l 1x05
4 4 m 1x82
 20 4 l 1
 20 0 l 1
 4 0 l 1x81
 4 4 l 1x82
12 24 m 1x0880
 12 20 l 1
 8 20 l 1x0880
 8 24 l 1x09
 12 24 l 1x0880
EndSplineSet
Validated: 5
EndChar

StartChar: Gcircumflex
Encoding: 284 284 253
Width: 32
Flags: W
HStem: 0 8<16 24> 0 4<4 16> 4 8<0 4> 12 4<4 24> 20 4<4 8 12 16>
VStem: 0 4<4 12> 4 4<20 24> 12 4<20 24> 16 8<4 8>
LayerCount: 2
Fore
SplineSet
16 8 m 1x8c80
 24 8 l 1x8c80
 24 4 l 1x2c80
 24 0 l 1x8c80
 4 0 l 1x4a80
 4 4 l 1x4c
 0 4 l 1
 0 12 l 1
 4 12 l 1x2c
 4 4 l 1
 16 4 l 1x4c80
 16 8 l 1x8c80
4 16 m 1x1a
 24 16 l 1
 24 12 l 1x1a80
 4 12 l 1x2c80
 4 16 l 1x1a
8 28 m 1
 12 28 l 1
 12 24 l 1
 16 24 l 1
 16 20 l 1
 12 20 l 1
 12 24 l 1x0b
 8 24 l 1
 8 20 l 1
 4 20 l 1
 4 24 l 1
 8 24 l 1
 8 28 l 1
EndSplineSet
Validated: 5
EndChar

StartChar: gcircumflex
Encoding: 285 285 254
Width: 28
Flags: W
HStem: -4 4<4 16> 4 4<4 16> 8 4<0 4> 12 4<4 16> 20 4<4 8 12 16>
VStem: 0 4<8 12> 4 4<20 24> 12 4<20 24> 16 4<0 4 8 12>
LayerCount: 2
Fore
SplineSet
4 16 m 1x9a
 20 16 l 1
 20 12 l 1x9a80
 20 8 l 1xaa80
 20 0 l 1
 16 0 l 1
 16 -4 l 1
 4 -4 l 1
 4 0 l 1
 16 0 l 1
 16 4 l 1
 4 4 l 1xca80
 4 8 l 1xcc
 0 8 l 1
 0 12 l 1
 4 12 l 1xac
 4 8 l 1
 16 8 l 1
 16 12 l 1xdc80
 4 12 l 1xac80
 4 16 l 1x9a
8 28 m 1
 12 28 l 1
 12 24 l 1
 16 24 l 1
 16 20 l 1
 12 20 l 1
 12 24 l 1x8b
 8 24 l 1
 8 20 l 1
 4 20 l 1
 4 24 l 1
 8 24 l 1
 8 28 l 1
EndSplineSet
Validated: 5
EndChar

StartChar: Gbreve
Encoding: 286 286 255
Width: 36
Flags: W
HStem: 0 8<20 28> 0 4<8 20> 4 8<4 8> 12 4<8 28> 20 4<4 24> 24 4<0 4 24 28>
VStem: 0 4<24 28> 4 4<4 12> 20 8<4 8> 24 4<24 28>
LayerCount: 2
Fore
SplineSet
20 8 m 1x8180
 28 8 l 1x8180
 28 4 l 1x2180
 28 0 l 1x8040
 8 0 l 1
 8 4 l 1x4140
 4 4 l 1
 4 12 l 1
 8 12 l 1x2140
 8 4 l 1
 20 4 l 1x4180
 20 8 l 1x8180
8 16 m 1x1140
 28 16 l 1
 28 12 l 1x1140
 8 12 l 1x2140
 8 16 l 1x1140
24 28 m 1x0440
 28 28 l 1
 28 24 l 1x0440
 24 24 l 1x0840
 24 28 l 1x0440
0 28 m 1x06
 4 28 l 1x06
 4 24 l 1x0a
 0 24 l 1
 0 28 l 1x06
24 24 m 1x0a40
 24 20 l 1
 4 20 l 1x0940
 4 24 l 1
 24 24 l 1x0a40
EndSplineSet
Validated: 5
EndChar

StartChar: gbreve
Encoding: 287 287 256
Width: 36
Flags: W
HStem: -4 4<8 20> 4 4<8 20> 8 4<4 8> 12 4<8 20> 20 4<4 24> 24 4<0 4 24 28>
VStem: 0 4<24 28> 4 4<8 12> 20 4<0 4 8 12>
LayerCount: 2
Fore
SplineSet
8 16 m 1x9180
 24 16 l 1
 24 12 l 1x9180
 24 8 l 1xa180
 24 0 l 1
 20 0 l 1
 20 -4 l 1
 8 -4 l 1
 8 0 l 1
 20 0 l 1
 20 4 l 1
 8 4 l 1
 8 8 l 1xc180
 4 8 l 1
 4 12 l 1
 8 12 l 1xa180
 8 8 l 1
 20 8 l 1
 20 12 l 1xd180
 8 12 l 1xa180
 8 16 l 1x9180
24 28 m 1x8480
 28 28 l 1
 28 24 l 1x8480
 24 24 l 1x8880
 24 28 l 1x8480
0 28 m 1x8680
 4 28 l 1x8680
 4 24 l 1x8a80
 0 24 l 1
 0 28 l 1x8680
24 24 m 1x8a80
 24 20 l 1
 4 20 l 1x8980
 4 24 l 1
 24 24 l 1x8a80
EndSplineSet
Validated: 5
EndChar

StartChar: Gdotaccent
Encoding: 288 288 257
Width: 32
Flags: W
HStem: 0 4<4 20> 8 4<12 20> 16 4<4 24> 24 4<8 16>
VStem: 0 4<4 16> 8 8<24 28> 20 4<4 8>
CounterMasks: 1 0e
LayerCount: 2
Fore
SplineSet
12 12 m 1
 24 12 l 1
 24 4 l 1
 24 0 l 1
 4 0 l 1
 4 4 l 1
 0 4 l 1
 0 16 l 1
 4 16 l 1
 4 4 l 1
 20 4 l 1
 20 8 l 1
 12 8 l 1
 12 12 l 1
4 20 m 1
 24 20 l 1
 24 16 l 1
 4 16 l 1
 4 20 l 1
8 28 m 1
 16 28 l 1
 16 24 l 1
 8 24 l 1
 8 28 l 1
EndSplineSet
Validated: 5
EndChar

StartChar: gdotaccent
Encoding: 289 289 258
Width: 28
Flags: W
HStem: -4 4<4 16> 4 4<4 16> 8 8<0 4> 16 4<4 16> 24 4<8 16>
VStem: 0 4<8 16> 8 8<24 28> 16 4<0 4 8 16>
LayerCount: 2
Fore
SplineSet
4 20 m 1x9d
 20 20 l 1
 20 16 l 1x9d
 20 8 l 1xad
 20 0 l 1
 16 0 l 1
 16 -4 l 1
 4 -4 l 1
 4 0 l 1
 16 0 l 1
 16 4 l 1
 4 4 l 1
 4 8 l 1xcd
 0 8 l 1
 0 16 l 1
 4 16 l 1xad
 4 8 l 1
 16 8 l 1
 16 16 l 1xdd
 4 16 l 1xad
 4 20 l 1x9d
8 28 m 1x8e
 16 28 l 1
 16 24 l 1
 8 24 l 1
 8 28 l 1x8e
EndSplineSet
Validated: 5
EndChar

StartChar: uni0122
Encoding: 290 290 259
Width: 32
Flags: W
HStem: -4 4<0 4> 0 4<12 16> 12 4<12 16> 20 4<20 24> 24 4<8 16>
VStem: 0 8<4 24> 16 8<4 12 20 24>
LayerCount: 2
Fore
SplineSet
12 16 m 1x6e
 24 16 l 1
 24 4 l 1
 24 0 l 1
 12 0 l 1x6e
 12 -4 l 1
 0 -4 l 1
 0 0 l 1
 4 0 l 1xa6
 4 4 l 1
 0 4 l 1
 0 24 l 1
 4 24 l 1
 4 28 l 1
 20 28 l 1x6e
 20 24 l 1
 24 24 l 1
 24 20 l 1
 16 20 l 1x36
 16 24 l 1
 8 24 l 1
 8 4 l 1
 16 4 l 1
 16 12 l 1
 12 12 l 1
 12 16 l 1x6e
EndSplineSet
Validated: 1
EndChar

StartChar: uni0123
Encoding: 291 291 260
Width: 32
Flags: W
HStem: -4 4<0 16> 4 4<8 16> 8 4<0 4> 12 4<8 16> 20 8<8 12> 20 4<12 16>
VStem: 0 8<8 12> 8 8<20 24> 8 4<24 28> 16 8<0 4 8 12>
LayerCount: 2
Fore
SplineSet
4 16 m 1x9240
 24 16 l 1
 24 12 l 1x9240
 24 8 l 1xa240
 24 0 l 1
 20 0 l 1
 20 -4 l 1
 0 -4 l 1
 0 0 l 1
 16 0 l 1
 16 4 l 1
 4 4 l 1xc240
 4 8 l 1
 0 8 l 1
 0 12 l 1
 4 12 l 1xa240
 4 16 l 1x9240
8 28 m 1x8880
 12 28 l 1x8880
 12 24 l 1x8480
 16 24 l 1
 16 20 l 1x85
 8 20 l 1x89
 8 28 l 1x8880
16 8 m 1xd240
 16 12 l 1
 8 12 l 1
 8 8 l 1
 16 8 l 1xd240
EndSplineSet
Validated: 1
EndChar

StartChar: Hcircumflex
Encoding: 292 292 261
Width: 32
Flags: W
HStem: 0 16<0 8 16 24> 8 4<8 16> 20 4<4 8 12 16>
VStem: 0 8<0 8 12 16> 12 4<20 24> 16 8<0 8 12 16>
LayerCount: 2
Fore
SplineSet
16 16 m 1xb4
 24 16 l 1xb4
 24 12 l 1
 24 8 l 1x74
 24 0 l 1
 16 0 l 1xb4
 16 8 l 1
 8 8 l 1x74
 8 0 l 1
 0 0 l 1xb4
 0 8 l 1x74
 0 16 l 1
 8 16 l 1xb4
 8 12 l 1
 16 12 l 1x74
 16 16 l 1xb4
8 28 m 1
 12 28 l 1
 12 24 l 1
 16 24 l 1
 16 20 l 1
 12 20 l 1
 12 24 l 1x38
 8 24 l 1
 8 20 l 1
 4 20 l 1
 4 24 l 1
 8 24 l 1
 8 28 l 1
EndSplineSet
Validated: 5
EndChar

StartChar: hcircumflex
Encoding: 293 293 262
Width: 36
Flags: W
HStem: 12 4<8 20> 20 4<12 16 24 28>
VStem: 0 8<0 12 16 28> 12 4<20 24> 16 8<24 28> 20 8<0 12> 24 4<20 24>
LayerCount: 2
Fore
SplineSet
16 28 m 1xe8
 24 28 l 1
 24 24 l 1xe8
 28 24 l 1
 28 20 l 1
 24 20 l 1xe2
 24 24 l 1xe8
 16 24 l 1
 16 20 l 1
 12 20 l 1
 12 24 l 1
 16 24 l 1xf0
 16 28 l 1xe8
0 28 m 1
 8 28 l 1
 8 16 l 1
 24 16 l 1
 24 12 l 1xe2
 28 12 l 1
 28 0 l 1
 20 0 l 1
 20 12 l 1xe4
 8 12 l 1
 8 0 l 1
 0 0 l 1
 0 12 l 1
 0 28 l 1
EndSplineSet
Validated: 5
EndChar

StartChar: Hbar
Encoding: 294 294 263
Width: 40
Flags: W
HStem: 12 4<12 20> 20 4<0 4 12 20 28 32>
VStem: 4 8<0 12 16 20 24 28> 20 8<0 12 16 20 24 28>
LayerCount: 2
Fore
SplineSet
20 28 m 1
 28 28 l 1
 28 24 l 1
 32 24 l 1
 32 20 l 1
 28 20 l 1
 28 16 l 1
 28 12 l 1
 28 0 l 1
 20 0 l 1
 20 12 l 1
 12 12 l 1
 12 0 l 1
 4 0 l 1
 4 12 l 1
 4 20 l 1
 0 20 l 1
 0 24 l 1
 4 24 l 1
 4 28 l 1
 12 28 l 1
 12 24 l 1
 20 24 l 1
 20 28 l 1
20 16 m 1
 20 20 l 1
 12 20 l 1
 12 16 l 1
 20 16 l 1
EndSplineSet
Validated: 1
EndChar

StartChar: hbar
Encoding: 295 295 264
Width: 32
Flags: W
HStem: 12 4<8 16> 20 4<8 16>
VStem: 0 8<0 12 16 20 24 28> 16 8<0 12>
LayerCount: 2
Fore
SplineSet
0 28 m 1
 8 28 l 1
 8 24 l 1
 16 24 l 1
 16 20 l 1
 8 20 l 1
 8 16 l 1
 20 16 l 1
 20 12 l 1
 24 12 l 1
 24 0 l 1
 16 0 l 1
 16 12 l 1
 8 12 l 1
 8 0 l 1
 0 0 l 1
 0 12 l 1
 0 20 l 1
 0 28 l 1
EndSplineSet
Validated: 1
EndChar

StartChar: Itilde
Encoding: 296 296 265
Width: 36
Flags: W
HStem: 0 4<8 12 16 20> 12 4<8 12 16 20> 20 4<0 4 12 24> 24 4<4 12 24 28>
VStem: 0 4<20 24> 4 8<24 28> 8 12<0 4 12 16> 24 4<24 28>
LayerCount: 2
Fore
SplineSet
8 16 m 1xc3
 20 16 l 1
 20 12 l 1
 16 12 l 1
 16 4 l 1
 20 4 l 1
 20 0 l 1
 8 0 l 1
 8 4 l 1xc3
 12 4 l 1
 12 12 l 1xc5
 8 12 l 1
 8 16 l 1xc3
24 28 m 1xd5
 28 28 l 1
 28 24 l 1xd5
 24 24 l 1
 24 20 l 1
 12 20 l 1
 12 24 l 1
 24 24 l 1xe5
 24 28 l 1xd5
4 28 m 1
 12 28 l 1xd5
 12 24 l 1xe5
 4 24 l 1
 4 20 l 1
 0 20 l 1
 0 24 l 1
 4 24 l 1xe9
 4 28 l 1
EndSplineSet
Validated: 5
EndChar

StartChar: itilde
Encoding: 297 297 266
Width: 36
Flags: W
HStem: 0 4<8 12 16 20> 12 4<8 12> 20 4<0 4 12 24> 24 4<4 12 24 28>
VStem: 0 4<20 24> 4 8<24 28> 8 8<12 16> 12 4<4 12> 24 4<24 28>
LayerCount: 2
Fore
SplineSet
8 16 m 1xc280
 16 16 l 1xc280
 16 4 l 1xc180
 20 4 l 1
 20 0 l 1
 8 0 l 1
 8 4 l 1xc280
 12 4 l 1
 12 12 l 1xc180
 8 12 l 1
 8 16 l 1xc280
24 28 m 1xd480
 28 28 l 1
 28 24 l 1xd480
 24 24 l 1
 24 20 l 1
 12 20 l 1xe180
 12 24 l 1
 24 24 l 1xe480
 24 28 l 1xd480
4 28 m 1
 12 28 l 1xd480
 12 24 l 1xe480
 4 24 l 1
 4 20 l 1
 0 20 l 1
 0 24 l 1
 4 24 l 1xe880
 4 28 l 1
EndSplineSet
Validated: 5
EndChar

StartChar: Imacron
Encoding: 298 298 267
Width: 32
Flags: W
HStem: 0 4<4 8 12 16> 16 4<4 8 12 16> 24 4<0 24>
VStem: 4 12<0 4 16 20>
LayerCount: 2
Fore
SplineSet
4 20 m 1
 16 20 l 1
 16 16 l 1
 12 16 l 1
 12 4 l 1
 16 4 l 1
 16 0 l 1
 4 0 l 1
 4 4 l 1
 8 4 l 1
 8 16 l 1
 4 16 l 1
 4 20 l 1
0 28 m 1
 24 28 l 1
 24 24 l 1
 0 24 l 1
 0 28 l 1
EndSplineSet
Validated: 1
EndChar

StartChar: imacron
Encoding: 299 299 268
Width: 32
Flags: W
HStem: 0 4<4 8 12 16> 16 4<4 8> 24 4<0 24>
VStem: 4 8<16 20> 8 4<4 16>
LayerCount: 2
Fore
SplineSet
4 20 m 1xf0
 12 20 l 1xf0
 12 4 l 1xe8
 16 4 l 1
 16 0 l 1
 4 0 l 1
 4 4 l 1xf0
 8 4 l 1
 8 16 l 1xe8
 4 16 l 1
 4 20 l 1xf0
0 28 m 1
 24 28 l 1
 24 24 l 1
 0 24 l 1
 0 28 l 1
EndSplineSet
Validated: 1
EndChar

StartChar: Ibreve
Encoding: 300 300 269
Width: 36
Flags: W
HStem: 0 4<8 12 16 20> 12 4<8 12 16 20> 20 4<4 24> 24 4<0 4 24 28>
VStem: 0 4<24 28> 8 12<0 4 12 16> 24 4<24 28>
CounterMasks: 1 0e
LayerCount: 2
Fore
SplineSet
8 16 m 1xce
 20 16 l 1
 20 12 l 1
 16 12 l 1
 16 4 l 1
 20 4 l 1
 20 0 l 1
 8 0 l 1
 8 4 l 1
 12 4 l 1
 12 12 l 1
 8 12 l 1
 8 16 l 1xce
24 28 m 1xde
 28 28 l 1
 28 24 l 1xde
 24 24 l 1xee
 24 28 l 1xde
0 28 m 1
 4 28 l 1xde
 4 24 l 1xee
 0 24 l 1
 0 28 l 1
24 24 m 1xee
 24 20 l 1
 4 20 l 1
 4 24 l 1
 24 24 l 1xee
EndSplineSet
Validated: 5
EndChar

StartChar: ibreve
Encoding: 301 301 270
Width: 36
Flags: W
HStem: 0 4<8 12 16 20> 12 4<8 12> 20 4<4 24> 24 4<0 4 24 28>
VStem: 0 4<24 28> 8 8<12 16> 12 4<4 12> 24 4<24 28>
LayerCount: 2
Fore
SplineSet
8 16 m 1xcd
 16 16 l 1xcd
 16 4 l 1xcb
 20 4 l 1
 20 0 l 1
 8 0 l 1
 8 4 l 1xcd
 12 4 l 1
 12 12 l 1xcb
 8 12 l 1
 8 16 l 1xcd
24 28 m 1xd9
 28 28 l 1
 28 24 l 1xd9
 24 24 l 1xe9
 24 28 l 1xd9
0 28 m 1
 4 28 l 1xd9
 4 24 l 1xe9
 0 24 l 1
 0 28 l 1
24 24 m 1xe9
 24 20 l 1
 4 20 l 1
 4 24 l 1
 24 24 l 1xe9
EndSplineSet
Validated: 5
EndChar

StartChar: Iogonek
Encoding: 302 302 271
Width: 28
Flags: W
HStem: -4 4<12 20> 0 4<0 4> 24 4<0 4 8 12>
VStem: 0 12<0 4 24 28>
LayerCount: 2
Fore
SplineSet
0 28 m 1x70
 12 28 l 1
 12 24 l 1
 8 24 l 1
 8 4 l 1
 12 4 l 1x70
 12 0 l 1
 20 0 l 1
 20 -4 l 1
 8 -4 l 1xb0
 8 0 l 1
 0 0 l 1
 0 4 l 1
 4 4 l 1
 4 24 l 1
 0 24 l 1
 0 28 l 1x70
EndSplineSet
Validated: 1
EndChar

StartChar: iogonek
Encoding: 303 303 272
Width: 28
Flags: W
HStem: -4 4<12 20> 0 4<0 4> 16 4<0 4> 24 4<4 8>
VStem: 0 8<16 20> 4 4<4 16 24 28>
LayerCount: 2
Fore
SplineSet
0 20 m 1x78
 8 20 l 1x78
 8 4 l 1
 12 4 l 1x74
 12 0 l 1
 20 0 l 1
 20 -4 l 1
 8 -4 l 1xb4
 8 0 l 1x74
 0 0 l 1
 0 4 l 1x78
 4 4 l 1
 4 16 l 1x74
 0 16 l 1
 0 20 l 1x78
4 28 m 1x34
 8 28 l 1
 8 24 l 1
 4 24 l 1
 4 28 l 1x34
EndSplineSet
Validated: 1
EndChar

StartChar: Idotaccent
Encoding: 304 304 273
Width: 20
Flags: W
HStem: 0 4<0 4 8 12> 16 4<0 4 8 12> 24 4<4 12>
VStem: 0 12<0 4 16 20> 4 4<4 16>
LayerCount: 2
Fore
SplineSet
0 20 m 1xf0
 12 20 l 1
 12 16 l 1xf0
 8 16 l 1
 8 4 l 1xe8
 12 4 l 1
 12 0 l 1
 0 0 l 1
 0 4 l 1xf0
 4 4 l 1
 4 16 l 1xe8
 0 16 l 1
 0 20 l 1xf0
4 28 m 1xe8
 12 28 l 1
 12 24 l 1xf0
 4 24 l 1
 4 28 l 1xe8
EndSplineSet
Validated: 1
EndChar

StartChar: dotlessi
Encoding: 305 305 274
Width: 20
Flags: W
HStem: 0 4<0 4 8 12> 16 4<0 4>
VStem: 0 8<16 20> 4 4<4 16>
LayerCount: 2
Fore
SplineSet
0 20 m 1xe0
 8 20 l 1xe0
 8 4 l 1xd0
 12 4 l 1
 12 0 l 1
 0 0 l 1
 0 4 l 1xe0
 4 4 l 1
 4 16 l 1xd0
 0 16 l 1
 0 20 l 1xe0
EndSplineSet
Validated: 1
EndChar

StartChar: IJ
Encoding: 306 306 275
Width: 36
Flags: W
HStem: 0 4<16 20> 4 4<12 16>
VStem: 0 8<0 28> 12 4<4 8> 16 8<0 4> 20 8<4 28>
LayerCount: 2
Fore
SplineSet
12 8 m 1x70
 16 8 l 1x70
 16 4 l 1xb0
 12 4 l 1
 12 8 l 1x70
20 28 m 1x74
 28 28 l 1
 28 8 l 1
 28 4 l 1x74
 24 4 l 1x68
 24 0 l 1
 16 0 l 1xa8
 16 4 l 1
 20 4 l 1xb4
 20 8 l 1
 20 28 l 1x74
0 28 m 1
 8 28 l 1
 8 0 l 1
 0 0 l 1xa0
 0 28 l 1
EndSplineSet
Validated: 5
EndChar

StartChar: ij
Encoding: 307 307 276
Width: 32
Flags: W
HStem: -4 4<12 16> 0 20G<0 8 16 24> 24 4<0 8 16 24>
VStem: 0 8<0 20 24 28> 12 8<-4 0> 16 8<0 20 24 28>
LayerCount: 2
Fore
SplineSet
16 20 m 1x74
 24 20 l 1
 24 0 l 1x74
 20 0 l 1x78
 20 -4 l 1
 12 -4 l 1
 12 0 l 1xb8
 16 0 l 1xb4
 16 20 l 1x74
0 20 m 1
 8 20 l 1
 8 0 l 1
 0 0 l 1
 0 20 l 1
16 28 m 1
 24 28 l 1
 24 24 l 1
 16 24 l 1
 16 28 l 1
0 28 m 1
 8 28 l 1
 8 24 l 1
 0 24 l 1
 0 28 l 1
EndSplineSet
Validated: 1
EndChar

StartChar: Jcircumflex
Encoding: 308 308 277
Width: 36
Flags: W
HStem: 0 4<0 20> 20 4<8 12 16 20>
VStem: 8 4<20 24> 16 4<20 24> 20 8<4 16>
LayerCount: 2
Fore
SplineSet
20 16 m 1xe8
 28 16 l 1
 28 4 l 1
 24 4 l 1
 24 0 l 1
 0 0 l 1
 0 4 l 1
 20 4 l 1
 20 16 l 1xe8
12 28 m 1
 16 28 l 1
 16 24 l 1
 20 24 l 1
 20 20 l 1
 16 20 l 1
 16 24 l 1xf0
 12 24 l 1
 12 20 l 1
 8 20 l 1
 8 24 l 1
 12 24 l 1
 12 28 l 1
EndSplineSet
Validated: 5
EndChar

StartChar: jcircumflex
Encoding: 309 309 278
Width: 28
Flags: W
HStem: -4 4<4 16> 0 4<0 4> 12 4<12 16> 20 4<4 8 12 16>
VStem: 0 4<0 4> 4 4<20 24> 12 4<20 24> 16 4<0 12>
LayerCount: 2
Fore
SplineSet
0 4 m 1x78
 4 4 l 1x78
 4 0 l 1xb8
 0 0 l 1
 0 4 l 1x78
12 16 m 1x72
 20 16 l 1
 20 4 l 1
 20 0 l 1x71
 16 0 l 1xb1
 16 4 l 1
 16 12 l 1x71
 12 12 l 1
 12 16 l 1x72
8 28 m 1x36
 12 28 l 1
 12 24 l 1
 16 24 l 1
 16 20 l 1
 12 20 l 1
 12 24 l 1
 8 24 l 1
 8 20 l 1
 4 20 l 1
 4 24 l 1
 8 24 l 1
 8 28 l 1x36
16 0 m 1xb9
 16 -4 l 1
 4 -4 l 1xb5
 4 0 l 1
 16 0 l 1xb9
EndSplineSet
Validated: 5
EndChar

StartChar: uni0136
Encoding: 310 310 279
Width: 32
Flags: W
HStem: -4 4<8 12> 0 4<20 24> 4 4<16 20> 8 4<12 16> 12 4<4 12> 16 4<12 16> 20 4<16 20> 24 4<20 24>
VStem: 0 4<0 12 16 28> 8 8<-4 0> 12 4<0 4 8 12 16 20> 16 4<4 8 20 24> 20 4<0 4 24 28>
LayerCount: 2
Fore
SplineSet
20 28 m 1x0188
 24 28 l 1
 24 24 l 1x0188
 20 24 l 1
 20 20 l 1x0290
 16 20 l 1
 16 16 l 1x04a0
 12 16 l 1x08a0
 12 20 l 1
 16 20 l 1x04a0
 16 24 l 1
 20 24 l 1x0290
 20 28 l 1x0188
0 28 m 1
 4 28 l 1
 4 16 l 1
 12 16 l 1x49a0
 12 12 l 1
 16 12 l 1x10a0
 16 8 l 1x20a0
 12 8 l 1
 12 12 l 1x10a0
 4 12 l 1
 4 0 l 1
 0 0 l 1
 0 12 l 1x48a0
 0 28 l 1
16 4 m 1xa0a0
 16 -4 l 1
 8 -4 l 1
 8 0 l 1xa0c0
 12 0 l 1
 12 4 l 1
 16 4 l 1xa0a0
16 4 m 1x20a0
 16 8 l 1x20a0
 20 8 l 1x2090
 20 4 l 1x4090
 24 4 l 1
 24 0 l 1
 20 0 l 1x4088
 20 4 l 1x4090
 16 4 l 1x20a0
EndSplineSet
Validated: 5
EndChar

StartChar: uni0137
Encoding: 311 311 280
Width: 28
Flags: W
HStem: -4 4<8 12> 0 4<16 20> 8 4<4 12> 12 4<12 16> 16 4<16 20>
VStem: 0 4<0 8 12 28> 8 8<-4 0> 12 4<4 8 12 16>
LayerCount: 2
Fore
SplineSet
16 20 m 1x0d
 20 20 l 1
 20 16 l 1x0d
 16 16 l 1
 16 12 l 1x15
 12 12 l 1x25
 12 16 l 1
 16 16 l 1x15
 16 20 l 1x0d
0 28 m 1
 4 28 l 1
 4 12 l 1
 12 12 l 1
 12 8 l 1
 16 8 l 1
 16 4 l 1x65
 20 4 l 1
 20 0 l 1
 16 0 l 1x66
 16 -4 l 1
 8 -4 l 1
 8 0 l 1x86
 12 0 l 1x85
 12 8 l 1
 4 8 l 1
 4 0 l 1
 0 0 l 1
 0 8 l 1x65
 0 28 l 1
EndSplineSet
Validated: 5
EndChar

StartChar: kgreenlandic
Encoding: 312 312 281
Width: 32
Flags: W
HStem: 0 8<16 20> 0 4<20 24> 8 4<8 12> 12 8<16 20> 16 4<20 24>
VStem: 0 8<0 8 12 20> 12 8<4 8 12 16> 16 8<0 4 16 20>
LayerCount: 2
Fore
SplineSet
16 20 m 1x15
 24 20 l 1
 24 16 l 1x0d
 20 16 l 1x0e
 20 12 l 1x16
 16 12 l 1
 16 8 l 1x95
 20 8 l 1x96
 20 4 l 1x46
 24 4 l 1
 24 0 l 1x45
 16 0 l 1x85
 16 4 l 1x45
 12 4 l 1
 12 8 l 1
 8 8 l 1
 8 0 l 1
 0 0 l 1
 0 8 l 1
 0 20 l 1
 8 20 l 1
 8 12 l 1
 12 12 l 1
 12 16 l 1x6e
 16 16 l 1x6d
 16 20 l 1x15
EndSplineSet
Validated: 1
EndChar

StartChar: Lacute
Encoding: 313 313 282
Width: 32
Flags: W
HStem: 0 20G<0 8> 0 4<8 24> 24 4<12 24>
VStem: 0 8<4 20>
LayerCount: 2
Fore
SplineSet
0 20 m 1xb0
 8 20 l 1xb0
 8 4 l 1
 24 4 l 1
 24 0 l 1x70
 0 0 l 1
 0 20 l 1xb0
12 28 m 1
 24 28 l 1
 24 24 l 1
 12 24 l 1
 12 28 l 1
EndSplineSet
Validated: 1
EndChar

StartChar: lacute
Encoding: 314 314 283
Width: 28
Flags: W
HStem: 0 4<0 4 12 20> 16 4<0 4> 24 4<8 20>
VStem: 4 8<4 16>
LayerCount: 2
Fore
SplineSet
0 20 m 1
 12 20 l 1
 12 4 l 1
 20 4 l 1
 20 0 l 1
 0 0 l 1
 0 4 l 1
 4 4 l 1
 4 16 l 1
 0 16 l 1
 0 20 l 1
8 28 m 1
 20 28 l 1
 20 24 l 1
 8 24 l 1
 8 28 l 1
EndSplineSet
Validated: 1
EndChar

StartChar: uni013B
Encoding: 315 315 284
Width: 32
Flags: W
HStem: -4 8<8 16> 0 4<4 8 16 24>
VStem: 0 4<4 28> 8 8<-4 0>
LayerCount: 2
Fore
SplineSet
0 28 m 1x70
 4 28 l 1
 4 4 l 1
 24 4 l 1
 24 0 l 1
 16 0 l 1x70
 16 -4 l 1
 8 -4 l 1xb0
 8 0 l 1
 0 0 l 1
 0 28 l 1x70
EndSplineSet
Validated: 1
EndChar

StartChar: uni013C
Encoding: 316 316 285
Width: 28
Flags: W
HStem: -4 4<0 4> 0 4<16 20> 24 4<4 8>
VStem: 8 8<4 24>
LayerCount: 2
Fore
SplineSet
4 28 m 1x70
 16 28 l 1
 16 4 l 1
 20 4 l 1
 20 0 l 1
 12 0 l 1x70
 12 -4 l 1
 0 -4 l 1
 0 0 l 1
 4 0 l 1xb0
 4 4 l 1
 8 4 l 1
 8 24 l 1
 4 24 l 1
 4 28 l 1x70
EndSplineSet
Validated: 1
EndChar

StartChar: Lcaron
Encoding: 317 317 286
Width: 32
Flags: W
HStem: 0 4<8 24> 20 4<12 16> 24 4<20 24>
VStem: 0 8<4 28> 12 8<20 24> 16 8<24 28>
LayerCount: 2
Fore
SplineSet
16 28 m 1xb4
 24 28 l 1
 24 24 l 1xb4
 20 24 l 1xb8
 20 20 l 1
 12 20 l 1
 12 24 l 1xd8
 16 24 l 1xd4
 16 28 l 1xb4
0 28 m 1
 8 28 l 1
 8 4 l 1
 24 4 l 1
 24 0 l 1
 0 0 l 1
 0 28 l 1
EndSplineSet
Validated: 1
EndChar

StartChar: lcaron
Encoding: 318 318 287
Width: 36
Flags: W
HStem: 0 4<0 4 12 16> 20 4<16 20> 24 4<0 4 24 28>
VStem: 4 8<4 24> 16 8<20 24> 20 8<24 28>
LayerCount: 2
Fore
SplineSet
20 28 m 1xb4
 28 28 l 1
 28 24 l 1xb4
 24 24 l 1xb8
 24 20 l 1
 16 20 l 1
 16 24 l 1xd8
 20 24 l 1xd4
 20 28 l 1xb4
0 28 m 1
 12 28 l 1
 12 4 l 1
 16 4 l 1
 16 0 l 1xb8
 0 0 l 1
 0 4 l 1
 4 4 l 1
 4 24 l 1
 0 24 l 1
 0 28 l 1
EndSplineSet
Validated: 1
EndChar

StartChar: Ldot
Encoding: 319 319 288
Width: 32
Flags: W
HStem: 0 4<8 24> 12 4<12 20>
VStem: 0 8<4 28> 12 8<12 16>
LayerCount: 2
Fore
SplineSet
12 16 m 1
 20 16 l 1
 20 12 l 1
 12 12 l 1
 12 16 l 1
0 28 m 1
 8 28 l 1
 8 4 l 1
 24 4 l 1
 24 0 l 1
 0 0 l 1
 0 28 l 1
EndSplineSet
Validated: 1
EndChar

StartChar: ldot
Encoding: 320 320 289
Width: 28
Flags: W
HStem: 0 4<0 4 12 20> 16 4<0 4> 24 4<8 20>
VStem: 4 8<4 16>
LayerCount: 2
Fore
SplineSet
0 20 m 1
 12 20 l 1
 12 4 l 1
 20 4 l 1
 20 0 l 1
 0 0 l 1
 0 4 l 1
 4 4 l 1
 4 16 l 1
 0 16 l 1
 0 20 l 1
8 28 m 1
 20 28 l 1
 20 24 l 1
 8 24 l 1
 8 28 l 1
EndSplineSet
Validated: 1
EndChar

StartChar: Lslash
Encoding: 321 321 290
Width: 36
Flags: W
HStem: 0 4<16 28> 8 8<4 8> 8 4<0 4> 12 8<16 20> 16 4<20 24>
VStem: 8 8<4 8 20 28>
LayerCount: 2
Fore
SplineSet
8 28 m 1xc4
 16 28 l 1
 16 20 l 1x94
 24 20 l 1
 24 16 l 1
 20 16 l 1x8c
 20 12 l 1
 16 12 l 1x94
 16 4 l 1
 28 4 l 1
 28 0 l 1
 8 0 l 1
 8 8 l 1xc4
 0 8 l 1
 0 12 l 1
 4 12 l 1xa4
 4 16 l 1
 8 16 l 1
 8 28 l 1xc4
EndSplineSet
Validated: 1
EndChar

StartChar: lslash
Encoding: 322 322 291
Width: 32
Flags: W
HStem: 0 4<16 24> 8 8<4 8> 8 4<0 4> 12 8<16 20> 16 4<20 24> 24 4<0 8>
VStem: 8 8<4 8 20 24>
LayerCount: 2
Fore
SplineSet
0 28 m 1xc6
 16 28 l 1
 16 20 l 1x96
 24 20 l 1
 24 16 l 1
 20 16 l 1x8e
 20 12 l 1
 16 12 l 1x96
 16 4 l 1
 24 4 l 1
 24 0 l 1
 8 0 l 1
 8 8 l 1xc6
 0 8 l 1
 0 12 l 1
 4 12 l 1xa6
 4 16 l 1
 8 16 l 1
 8 24 l 1
 0 24 l 1
 0 28 l 1xc6
EndSplineSet
Validated: 1
EndChar

StartChar: Nacute
Encoding: 323 323 292
Width: 32
Flags: W
HStem: 0 20G<0 4 20 24> 0 4<16 20> 4 4<12 16> 8 4<8 12> 24 4<12 24>
VStem: 0 8<12 16> 0 4<0 12 16 20> 8 4<8 12> 12 4<4 8> 16 8<0 4> 20 4<4 20>
LayerCount: 2
Fore
SplineSet
20 20 m 1x88a0
 24 20 l 1x88a0
 24 12 l 1x18a0
 24 4 l 1x2840
 24 0 l 1x8840
 16 0 l 1x4840
 16 4 l 1x4880
 12 4 l 1x2880
 12 8 l 1x29
 8 8 l 1x19
 8 12 l 1x1c
 12 12 l 1x19
 12 8 l 1x29
 16 8 l 1x2880
 16 4 l 1
 20 4 l 1
 20 12 l 1x58a0
 20 20 l 1x88a0
0 20 m 1x8a
 4 20 l 1
 4 16 l 1x8a
 8 16 l 1
 8 12 l 1x1c
 4 12 l 1x1a
 4 0 l 1
 0 0 l 1x8a
 0 12 l 1x1c
 0 20 l 1x8a
12 28 m 1x08a0
 24 28 l 1
 24 24 l 1
 12 24 l 1
 12 28 l 1x08a0
EndSplineSet
Validated: 5
EndChar

StartChar: nacute
Encoding: 324 324 293
Width: 32
Flags: W
HStem: 16 4<4 16> 24 4<12 24>
VStem: 0 4<0 16> 16 4<0 16>
LayerCount: 2
Fore
SplineSet
0 20 m 1
 16 20 l 1
 16 16 l 1
 20 16 l 1
 20 0 l 1
 16 0 l 1
 16 16 l 1
 4 16 l 1
 4 0 l 1
 0 0 l 1
 0 16 l 1
 0 20 l 1
12 28 m 1
 24 28 l 1
 24 24 l 1
 12 24 l 1
 12 28 l 1
EndSplineSet
Validated: 5
EndChar

StartChar: uni0145
Encoding: 325 325 294
Width: 32
Flags: W
HStem: -4 8<12 16> -4 4<8 12> 8 4<16 20> 12 4<12 16> 16 4<8 12>
VStem: 0 8<20 24> 0 4<0 20 24 28> 8 4<16 20> 12 4<0 4 12 16> 16 8<8 12> 20 4<0 8 12 28>
LayerCount: 2
Fore
SplineSet
12 4 m 1x8080
 16 4 l 1x8080
 16 -4 l 1x8040
 8 -4 l 1
 8 0 l 1x4140
 12 0 l 1x4080
 12 4 l 1x8080
20 28 m 1x28a0
 24 28 l 1
 24 20 l 1x28a0
 24 12 l 1x1040
 24 4 l 1x9020
 24 0 l 1
 20 0 l 1x4020
 20 4 l 1
 20 8 l 1xa020
 16 8 l 1xa040
 16 12 l 1xa080
 12 12 l 1x1080
 12 16 l 1x11
 8 16 l 1x09
 8 20 l 1x0c
 12 20 l 1x09
 12 16 l 1x11
 16 16 l 1x1080
 16 12 l 1
 20 12 l 1
 20 20 l 1
 20 28 l 1x28a0
0 28 m 1x4a
 4 28 l 1
 4 24 l 1x4a
 8 24 l 1
 8 20 l 1x4c
 4 20 l 1
 4 0 l 1
 0 0 l 1x4a
 0 20 l 1x4c
 0 28 l 1x4a
EndSplineSet
Validated: 5
EndChar

StartChar: uni0146
Encoding: 326 326 295
Width: 28
Flags: W
HStem: -4 8<12 16> -4 4<8 12> 16 4<4 16>
VStem: 0 4<0 16> 8 8<-4 0> 12 8<0 4> 16 4<4 16>
LayerCount: 2
Fore
SplineSet
0 20 m 1x72
 16 20 l 1
 16 16 l 1
 20 16 l 1x72
 20 0 l 1x74
 16 0 l 1x78
 16 -4 l 1xb8
 8 -4 l 1
 8 0 l 1x78
 12 0 l 1x74
 12 4 l 1xb4
 16 4 l 1xb2
 16 16 l 1
 4 16 l 1
 4 0 l 1
 0 0 l 1
 0 16 l 1
 0 20 l 1x72
EndSplineSet
Validated: 5
EndChar

StartChar: Ncaron
Encoding: 327 327 296
Width: 28
Flags: W
HStem: 4 4<12 16> 8 4<4 8> 20 4<8 12> 24 4<4 8 12 16>
VStem: 0 4<0 8 12 16> 8 4<20 24> 12 4<24 28> 16 4<0 4 8 16>
LayerCount: 2
Fore
SplineSet
16 16 m 1x89
 20 16 l 1
 20 8 l 1x49
 20 0 l 1
 16 0 l 1
 16 4 l 1
 8 4 l 1x8d
 8 8 l 1x4d
 4 8 l 1
 4 0 l 1
 0 0 l 1
 0 8 l 1
 0 16 l 1
 4 16 l 1
 4 12 l 1
 12 12 l 1x4a
 12 8 l 1x8a
 16 8 l 1
 16 16 l 1x89
12 28 m 1x1a
 16 28 l 1
 16 24 l 1x1a
 12 24 l 1x2c
 12 28 l 1x1a
4 28 m 1
 8 28 l 1x1c
 8 24 l 1x2c
 4 24 l 1
 4 28 l 1
12 24 m 1x2c
 12 20 l 1
 8 20 l 1
 8 24 l 1
 12 24 l 1x2c
EndSplineSet
Validated: 5
EndChar

StartChar: ncaron
Encoding: 328 328 297
Width: 32
Flags: W
HStem: 12 4<4 20> 20 4<8 12> 24 4<4 8 12 16>
VStem: 0 4<0 12> 4 4<24 28> 8 4<20 24> 12 4<24 28> 20 4<0 12>
LayerCount: 2
Fore
SplineSet
0 16 m 1x91
 20 16 l 1
 20 12 l 1
 24 12 l 1
 24 0 l 1
 20 0 l 1
 20 12 l 1
 4 12 l 1
 4 0 l 1
 0 0 l 1
 0 12 l 1
 0 16 l 1x91
12 28 m 1xa3
 16 28 l 1
 16 24 l 1xa3
 12 24 l 1xc5
 12 28 l 1xa3
4 28 m 1xa9
 8 28 l 1xa9
 8 24 l 1xc9
 4 24 l 1
 4 28 l 1xa9
12 24 m 1xc5
 12 20 l 1
 8 20 l 1xc5
 8 24 l 1xc9
 12 24 l 1xc5
EndSplineSet
Validated: 5
EndChar

StartChar: napostrophe
Encoding: 329 329 298
Width: 36
Flags: W
HStem: 12 8<0 4> 16 4<16 20>
VStem: 0 4<12 20> 8 8<0 16> 20 8<0 16>
LayerCount: 2
Fore
SplineSet
8 20 m 1x78
 24 20 l 1
 24 16 l 1
 28 16 l 1
 28 0 l 1
 20 0 l 1
 20 16 l 1
 16 16 l 1
 16 0 l 1
 8 0 l 1
 8 16 l 1
 8 20 l 1x78
0 20 m 1xb8
 4 20 l 1
 4 12 l 1
 0 12 l 1
 0 20 l 1xb8
EndSplineSet
Validated: 1
EndChar

StartChar: Eng
Encoding: 330 330 299
Width: 36
Flags: W
HStem: -4 8<16 20> -4 4<12 16> 24 4<8 20>
VStem: 0 8<0 24> 12 8<-4 0> 16 8<0 4> 20 8<4 24>
LayerCount: 2
Fore
SplineSet
0 28 m 1x72
 24 28 l 1
 24 24 l 1x74
 28 24 l 1
 28 4 l 1xb2
 24 4 l 1xb4
 24 0 l 1x74
 20 0 l 1x78
 20 -4 l 1xb8
 12 -4 l 1
 12 0 l 1x78
 16 0 l 1x74
 16 4 l 1xb4
 20 4 l 1xb2
 20 24 l 1
 8 24 l 1
 8 0 l 1
 0 0 l 1
 0 24 l 1
 0 28 l 1x72
EndSplineSet
Validated: 1
EndChar

StartChar: eng
Encoding: 331 331 300
Width: 32
Flags: W
HStem: -4 4<12 16> 16 4<8 16>
VStem: 0 8<0 16> 12 8<-4 0> 16 8<0 16>
LayerCount: 2
Fore
SplineSet
0 20 m 1xe8
 20 20 l 1
 20 16 l 1xf0
 24 16 l 1
 24 0 l 1xe8
 20 0 l 1
 20 -4 l 1
 12 -4 l 1
 12 0 l 1xf0
 16 0 l 1
 16 16 l 1
 8 16 l 1
 8 0 l 1
 0 0 l 1
 0 16 l 1
 0 20 l 1xe8
EndSplineSet
Validated: 1
EndChar

StartChar: Omacron
Encoding: 332 332 301
Width: 32
Flags: W
HStem: 0 4<4 20> 4 12<0 4 20 24> 16 4<4 20> 24 4<0 24>
VStem: 0 4<4 16> 20 4<4 16>
LayerCount: 2
Fore
SplineSet
4 20 m 1x3c
 20 20 l 1x3c
 20 16 l 1
 24 16 l 1
 24 4 l 1x5c
 20 4 l 1x9c
 20 16 l 1
 4 16 l 1x5c
 4 4 l 1x9c
 0 4 l 1
 0 16 l 1
 4 16 l 1x5c
 4 20 l 1x3c
0 28 m 1
 24 28 l 1
 24 24 l 1
 0 24 l 1
 0 28 l 1
20 4 m 1x9c
 20 0 l 1
 4 0 l 1
 4 4 l 1
 20 4 l 1x9c
EndSplineSet
Validated: 5
EndChar

StartChar: omacron
Encoding: 333 333 302
Width: 32
Flags: W
HStem: 0 4<8 16> 4 12<0 4 20 24> 16 4<8 16> 24 4<0 24>
VStem: 0 8<4 16> 16 8<4 16>
LayerCount: 2
Fore
SplineSet
4 20 m 1x3c
 20 20 l 1x3c
 20 16 l 1
 24 16 l 1
 24 4 l 1
 20 4 l 1x5c
 20 0 l 1
 4 0 l 1x9c
 4 4 l 1
 0 4 l 1
 0 16 l 1
 4 16 l 1x5c
 4 20 l 1x3c
0 28 m 1
 24 28 l 1
 24 24 l 1
 0 24 l 1
 0 28 l 1
16 4 m 1xbc
 16 16 l 1
 8 16 l 1
 8 4 l 1
 16 4 l 1xbc
EndSplineSet
Validated: 1
EndChar

StartChar: Obreve
Encoding: 334 334 303
Width: 36
Flags: W
HStem: 0 4<8 24> 4 8<4 8 24 28> 12 4<8 24> 20 4<4 24> 24 4<0 4 24 28>
VStem: 0 4<24 28> 4 4<4 12> 24 4<4 12 24 28>
LayerCount: 2
Fore
SplineSet
8 16 m 1x23
 24 16 l 1x23
 24 12 l 1
 28 12 l 1
 28 4 l 1x43
 24 4 l 1x83
 24 12 l 1
 8 12 l 1x43
 8 4 l 1x83
 4 4 l 1
 4 12 l 1
 8 12 l 1x43
 8 16 l 1x23
24 28 m 1x09
 28 28 l 1
 28 24 l 1x09
 24 24 l 1x11
 24 28 l 1x09
0 28 m 1x0d
 4 28 l 1x0d
 4 24 l 1x15
 0 24 l 1
 0 28 l 1x0d
24 4 m 1x83
 24 0 l 1
 8 0 l 1
 8 4 l 1
 24 4 l 1x83
24 24 m 1x15
 24 20 l 1
 4 20 l 1x13
 4 24 l 1
 24 24 l 1x15
EndSplineSet
Validated: 5
EndChar

StartChar: obreve
Encoding: 335 335 304
Width: 36
Flags: W
HStem: 0 4<12 20> 4 8<4 8 24 28> 12 4<12 20> 20 4<4 24> 24 4<0 4 24 28>
VStem: 0 4<24 28> 4 8<4 12> 20 8<4 12> 24 4<24 28>
LayerCount: 2
Fore
SplineSet
8 16 m 1x2280
 24 16 l 1x2280
 24 12 l 1x4280
 28 12 l 1
 28 4 l 1x41
 24 4 l 1x4080
 24 0 l 1
 8 0 l 1x8080
 8 4 l 1
 4 4 l 1
 4 12 l 1
 8 12 l 1x4280
 8 16 l 1x2280
24 28 m 1x0880
 28 28 l 1
 28 24 l 1x0880
 24 24 l 1x1080
 24 28 l 1x0880
0 28 m 1x0c
 4 28 l 1x0c
 4 24 l 1x14
 0 24 l 1
 0 28 l 1x0c
20 4 m 1xa3
 20 12 l 1
 12 12 l 1
 12 4 l 1
 20 4 l 1xa3
24 24 m 1x1480
 24 20 l 1
 4 20 l 1x1280
 4 24 l 1
 24 24 l 1x1480
EndSplineSet
Validated: 5
EndChar

StartChar: Ohungarumlaut
Encoding: 336 336 305
Width: 32
Flags: W
HStem: 0 4<4 20> 4 8<0 4 20 24> 12 4<4 20> 20 4<0 4 16 20> 24 4<4 8 20 24>
VStem: 0 4<4 12 20 24> 16 4<20 24> 20 4<4 12 24 28>
LayerCount: 2
Fore
SplineSet
4 16 m 1x25
 20 16 l 1x25
 20 12 l 1
 24 12 l 1
 24 4 l 1x45
 20 4 l 1x85
 20 12 l 1
 4 12 l 1x45
 4 4 l 1x85
 0 4 l 1
 0 12 l 1
 4 12 l 1x45
 4 16 l 1x25
20 28 m 1x0d
 24 28 l 1
 24 24 l 1x0d
 20 24 l 1
 20 20 l 1
 16 20 l 1
 16 24 l 1
 20 24 l 1x16
 20 28 l 1x0d
4 28 m 1
 8 28 l 1
 8 24 l 1x0c
 4 24 l 1
 4 20 l 1
 0 20 l 1
 0 24 l 1
 4 24 l 1x14
 4 28 l 1
20 4 m 1x85
 20 0 l 1
 4 0 l 1
 4 4 l 1
 20 4 l 1x85
EndSplineSet
Validated: 5
EndChar

StartChar: ohungarumlaut
Encoding: 337 337 306
Width: 32
Flags: W
HStem: 0 4<8 16> 4 8<0 4 20 24> 12 4<8 16> 20 4<0 4 16 20> 24 4<4 8 20 24>
VStem: 0 4<20 24> 4 4<24 28> 16 4<20 24> 20 4<24 28>
LayerCount: 2
Fore
SplineSet
4 16 m 1x22
 20 16 l 1x2280
 20 12 l 1
 24 12 l 1
 24 4 l 1
 20 4 l 1x4280
 20 0 l 1
 4 0 l 1x8280
 4 4 l 1x4280
 0 4 l 1
 0 12 l 1x44
 4 12 l 1x42
 4 16 l 1x22
20 28 m 1x0880
 24 28 l 1
 24 24 l 1x0880
 20 24 l 1
 20 20 l 1
 16 20 l 1
 16 24 l 1
 20 24 l 1x11
 20 28 l 1x0880
4 28 m 1x0a
 8 28 l 1
 8 24 l 1x0a
 4 24 l 1
 4 20 l 1
 0 20 l 1
 0 24 l 1
 4 24 l 1x14
 4 28 l 1x0a
16 4 m 1xa3
 16 12 l 1
 8 12 l 1
 8 4 l 1
 16 4 l 1xa3
EndSplineSet
Validated: 5
EndChar

StartChar: OE
Encoding: 338 338 307
Width: 36
Flags: W
HStem: 0 4<8 16 24 28> 12 4<24 28> 24 4<8 16 24 28>
VStem: 0 8<4 24> 16 8<4 12 16 24>
CounterMasks: 1 e0
LayerCount: 2
Fore
SplineSet
4 28 m 1
 28 28 l 1
 28 24 l 1
 24 24 l 1
 24 16 l 1
 28 16 l 1
 28 12 l 1
 24 12 l 1
 24 4 l 1
 28 4 l 1
 28 0 l 1
 4 0 l 1
 4 4 l 1
 0 4 l 1
 0 24 l 1
 4 24 l 1
 4 28 l 1
16 12 m 1
 16 24 l 1
 8 24 l 1
 8 4 l 1
 16 4 l 1
 16 12 l 1
EndSplineSet
Validated: 1
EndChar

StartChar: oe
Encoding: 339 339 308
Width: 36
Flags: W
HStem: 0 4<8 12 20 28> 8 8<24 28> 8 4<20 24> 16 4<8 12 20 24>
VStem: 0 8<4 16> 4 8<16 20> 12 8<4 8 12 16> 20 8<0 4> 24 4<12 16>
LayerCount: 2
Fore
SplineSet
16 20 m 1xb4
 24 20 l 1xb480
 24 16 l 1
 28 16 l 1xc480
 28 12 l 1xa480
 28 8 l 1xc480
 20 8 l 1
 20 4 l 1xa280
 16 4 l 1
 16 0 l 1
 4 0 l 1
 4 4 l 1xa4
 0 4 l 1
 0 16 l 1xb8
 4 16 l 1
 4 20 l 1
 12 20 l 1
 12 16 l 1
 16 16 l 1
 16 20 l 1xb4
20 4 m 1x82
 28 4 l 1
 28 0 l 1
 20 0 l 1x81
 20 4 l 1x82
12 8 m 1xba
 12 16 l 1xb4
 8 16 l 1
 8 4 l 1
 12 4 l 1
 12 8 l 1xba
24 12 m 1xb280
 24 16 l 1xc280
 20 16 l 1
 20 12 l 1
 24 12 l 1xb280
EndSplineSet
Validated: 5
EndChar

StartChar: Racute
Encoding: 340 340 309
Width: 32
Flags: W
HStem: 0 8<20 24> 8 4<8 16> 12 4<20 24> 16 4<8 16> 24 4<12 24>
VStem: 0 8<0 8 12 16> 16 8<0 8 12 16>
LayerCount: 2
Fore
SplineSet
0 20 m 1x5e
 20 20 l 1x5e
 20 16 l 1
 24 16 l 1
 24 12 l 1
 20 12 l 1
 20 8 l 1
 24 8 l 1
 24 0 l 1
 16 0 l 1xae
 16 8 l 1
 8 8 l 1x4e
 8 0 l 1
 0 0 l 1x8e
 0 8 l 1
 0 16 l 1
 0 20 l 1x5e
12 28 m 1
 24 28 l 1
 24 24 l 1
 12 24 l 1
 12 28 l 1
16 12 m 1
 16 16 l 1
 8 16 l 1
 8 12 l 1
 16 12 l 1
EndSplineSet
Validated: 1
EndChar

StartChar: racute
Encoding: 341 341 310
Width: 32
Flags: W
HStem: 16 4<8 20> 24 4<12 24>
VStem: 0 8<12 16> 0 4<0 12 16 20>
LayerCount: 2
Fore
SplineSet
8 20 m 1xe0
 20 20 l 1
 20 16 l 1
 8 16 l 1
 8 20 l 1xe0
0 20 m 1xd0
 4 20 l 1
 4 16 l 1xd0
 8 16 l 1
 8 12 l 1xe0
 4 12 l 1
 4 0 l 1
 0 0 l 1xd0
 0 12 l 1xe0
 0 20 l 1xd0
12 28 m 1
 24 28 l 1
 24 24 l 1
 12 24 l 1
 12 28 l 1
EndSplineSet
Validated: 5
EndChar

StartChar: uni0156
Encoding: 342 342 311
Width: 36
Flags: W
HStem: -4 8<12 16> -4 4<8 12> 0 8<24 28> 8 8<16 20> 16 8<24 28> 24 4<8 20>
VStem: 0 8<0 12 16 24> 8 8<-4 0> 12 4<0 4> 16 8<8 12> 20 8<0 8 16 24>
LayerCount: 2
Fore
SplineSet
12 4 m 1x8280
 16 4 l 1x8280
 16 0 l 1x21
 16 -4 l 1x81
 8 -4 l 1x41
 8 0 l 1x42
 0 0 l 1
 0 12 l 1
 0 24 l 1
 0 28 l 1
 24 28 l 1x2640
 24 24 l 1x0a40
 28 24 l 1
 28 16 l 1x0820
 24 16 l 1
 24 12 l 1
 24 8 l 1x2840
 28 8 l 1x2820
 28 4 l 1x8020
 28 0 l 1
 20 0 l 1x2020
 20 4 l 1
 20 8 l 1x9020
 16 8 l 1
 16 12 l 1x9040
 8 12 l 1
 8 0 l 1
 12 0 l 1x5280
 12 4 l 1x8280
20 16 m 1x1220
 20 24 l 1
 8 24 l 1x1620
 8 16 l 1x0a20
 20 16 l 1x1220
EndSplineSet
Validated: 5
EndChar

StartChar: uni0157
Encoding: 343 343 312
Width: 32
Flags: W
HStem: -4 4<8 12> 12 4<20 24> 16 4<8 16>
VStem: 0 8<0 16> 16 8<12 16>
LayerCount: 2
Fore
SplineSet
0 20 m 1xb8
 20 20 l 1xb8
 20 16 l 1
 24 16 l 1
 24 12 l 1
 16 12 l 1xd8
 16 16 l 1
 8 16 l 1
 8 0 l 1
 12 0 l 1
 12 -4 l 1
 0 -4 l 1
 0 16 l 1
 0 20 l 1xb8
EndSplineSet
Validated: 1
EndChar

StartChar: Rcaron
Encoding: 344 344 313
Width: 32
Flags: W
HStem: 0 4<20 24> 4 4<8 16> 8 4<20 24> 12 4<8 16> 20 4<8 12> 24 4<4 8 12 16>
VStem: 0 8<0 4 8 12> 8 4<20 24> 12 4<24 28> 16 8<0 4 8 12>
LayerCount: 2
Fore
SplineSet
0 16 m 1x5240
 20 16 l 1x5240
 20 12 l 1
 24 12 l 1
 24 8 l 1
 20 8 l 1
 20 4 l 1
 24 4 l 1
 24 0 l 1
 16 0 l 1xa240
 16 4 l 1
 8 4 l 1x4240
 8 0 l 1
 0 0 l 1x8240
 0 4 l 1
 0 12 l 1
 0 16 l 1x5240
12 28 m 1x0480
 16 28 l 1
 16 24 l 1x0480
 12 24 l 1x09
 12 28 l 1x0480
4 28 m 1
 8 28 l 1x05
 8 24 l 1x09
 4 24 l 1
 4 28 l 1
16 8 m 1x5240
 16 12 l 1
 8 12 l 1
 8 8 l 1
 16 8 l 1x5240
12 24 m 1x09
 12 20 l 1
 8 20 l 1
 8 24 l 1
 12 24 l 1x09
EndSplineSet
Validated: 5
EndChar

StartChar: rcaron
Encoding: 345 345 314
Width: 28
Flags: W
HStem: 12 4<8 20> 20 4<8 12> 24 4<4 8 12 16>
VStem: 0 4<0 8 12 16> 8 4<20 24> 12 4<24 28>
LayerCount: 2
Fore
SplineSet
8 16 m 1x98
 20 16 l 1
 20 12 l 1
 8 12 l 1
 8 16 l 1x98
0 16 m 1
 4 16 l 1
 4 12 l 1
 8 12 l 1
 8 8 l 1
 4 8 l 1
 4 0 l 1
 0 0 l 1
 0 8 l 1
 0 16 l 1
12 28 m 1xb4
 16 28 l 1
 16 24 l 1xb4
 12 24 l 1xd8
 12 28 l 1xb4
4 28 m 1
 8 28 l 1xb8
 8 24 l 1xd8
 4 24 l 1
 4 28 l 1
12 24 m 1xd8
 12 20 l 1
 8 20 l 1
 8 24 l 1
 12 24 l 1xd8
EndSplineSet
Validated: 5
EndChar

StartChar: Sacute
Encoding: 346 346 315
Width: 36
Flags: W
HStem: 0 4<0 20> 4 4<24 28> 8 4<8 20> 12 4<0 4> 16 4<8 28> 24 4<16 28>
VStem: 0 8<12 16> 20 8<4 8>
LayerCount: 2
Fore
SplineSet
4 20 m 1x0f
 28 20 l 1
 28 16 l 1
 8 16 l 1
 8 12 l 1x2f
 0 12 l 1
 0 16 l 1
 4 16 l 1x17
 4 20 l 1x0f
16 28 m 1
 28 28 l 1
 28 24 l 1
 16 24 l 1
 16 28 l 1
20 4 m 1x87
 20 8 l 1
 8 8 l 1
 8 12 l 1xa7
 24 12 l 1
 24 8 l 1
 28 8 l 1
 28 4 l 1
 24 4 l 1x57
 24 0 l 1
 0 0 l 1
 0 4 l 1
 20 4 l 1x87
EndSplineSet
Validated: 5
EndChar

StartChar: sacute
Encoding: 347 347 316
Width: 32
Flags: W
HStem: 0 4<0 16> 4 4<16 20> 8 4<4 16> 12 4<0 4> 16 4<4 20> 24 4<12 24>
VStem: 0 4<12 16> 16 4<4 8>
LayerCount: 2
Fore
SplineSet
4 20 m 1x0f
 20 20 l 1
 20 16 l 1x0f
 4 16 l 1x17
 4 12 l 1x27
 0 12 l 1
 0 16 l 1
 4 16 l 1x17
 4 20 l 1x0f
12 28 m 1
 24 28 l 1
 24 24 l 1
 12 24 l 1
 12 28 l 1
16 4 m 1x87
 16 0 l 1
 0 0 l 1
 0 4 l 1
 16 4 l 1x87
16 4 m 1
 16 8 l 1x47
 4 8 l 1
 4 12 l 1
 16 12 l 1x27
 16 8 l 1
 20 8 l 1
 20 4 l 1x47
 16 4 l 1
EndSplineSet
Validated: 5
EndChar

StartChar: Scircumflex
Encoding: 348 348 317
Width: 36
Flags: W
HStem: 0 4<0 20> 4 4<24 28> 8 4<8 20> 12 4<0 4> 16 8<8 12 16 20> 16 4<12 16 20 28> 24 4<12 16>
VStem: 0 8<12 16> 8 4<20 24> 12 4<24 28> 16 4<20 24> 20 8<4 8>
LayerCount: 2
Fore
SplineSet
12 28 m 1x0240
 16 28 l 1x0240
 16 24 l 1x0840
 20 24 l 1x0820
 20 20 l 1x0420
 28 20 l 1
 28 16 l 1x0410
 8 16 l 1
 8 12 l 1x2910
 0 12 l 1
 0 16 l 1
 4 16 l 1x1110
 4 20 l 1
 8 20 l 1x0480
 8 24 l 1
 12 24 l 1x0880
 12 20 l 1
 16 20 l 1x04a0
 16 24 l 1x0840
 12 24 l 1x0880
 12 28 l 1x0240
20 4 m 1x8110
 20 8 l 1
 8 8 l 1xa090
 8 12 l 1xa1
 24 12 l 1
 24 8 l 1
 28 8 l 1
 28 4 l 1
 24 4 l 1x5110
 24 0 l 1
 0 0 l 1
 0 4 l 1
 20 4 l 1x8110
EndSplineSet
Validated: 5
EndChar

StartChar: scircumflex
Encoding: 349 349 318
Width: 28
Flags: W
HStem: 0 4<0 16> 4 4<16 20> 8 4<4 16> 12 4<0 4> 16 8<4 8 12 16> 16 4<8 12 16 20> 24 4<8 12>
VStem: 0 4<12 16> 4 4<20 24> 8 4<24 28> 12 4<20 24> 16 4<4 8>
LayerCount: 2
Fore
SplineSet
8 28 m 1x0240
 12 28 l 1x0240
 12 24 l 1x0840
 16 24 l 1x0820
 16 20 l 1x0420
 20 20 l 1
 20 16 l 1x0410
 4 16 l 1x1110
 4 12 l 1x2110
 0 12 l 1
 0 16 l 1
 4 16 l 1x1110
 4 24 l 1
 8 24 l 1x0880
 8 20 l 1
 12 20 l 1x04a0
 12 24 l 1x0840
 8 24 l 1x0880
 8 28 l 1x0240
16 4 m 1x8110
 16 0 l 1
 0 0 l 1
 0 4 l 1
 16 4 l 1x8110
16 4 m 1
 16 8 l 1x4110
 4 8 l 1x2090
 4 12 l 1
 16 12 l 1x2110
 16 8 l 1
 20 8 l 1
 20 4 l 1x4110
 16 4 l 1
EndSplineSet
Validated: 5
EndChar

StartChar: Scedilla
Encoding: 350 350 319
Width: 32
Flags: W
HStem: -4 4<0 4> 0 4<12 16> 4 8<20 24> 4 4<0 4> 12 4<8 16> 16 8<0 4> 20 4<20 24> 24 4<8 16>
VStem: 0 8<4 8 16 24> 4 16<0 4 12 16 24 28> 16 8<4 12 20 24>
LayerCount: 2
Fore
SplineSet
0 8 m 1x9080
 8 8 l 1
 8 4 l 1x9080
 16 4 l 1x40a0
 16 8 l 1
 16 12 l 1x18a0
 4 12 l 1x1840
 4 16 l 1x0440
 0 16 l 1
 0 24 l 1x0480
 4 24 l 1x0440
 4 28 l 1
 20 28 l 1x0140
 20 24 l 1x0240
 24 24 l 1
 24 20 l 1
 16 20 l 1x0220
 16 24 l 1
 8 24 l 1
 8 16 l 1x09a0
 20 16 l 1
 20 12 l 1x2440
 24 12 l 1x2420
 24 8 l 1x1020
 24 4 l 1x2020
 20 4 l 1x2040
 20 0 l 1
 12 0 l 1x4040
 12 -4 l 1
 0 -4 l 1
 0 0 l 1x8080
 4 0 l 1
 4 4 l 1x9040
 0 4 l 1
 0 8 l 1x9080
EndSplineSet
Validated: 1
EndChar

StartChar: scedilla
Encoding: 351 351 320
Width: 36
Flags: W
HStem: -4 4<0 4> 0 4<12 20> 4 4<24 28> 8 4<12 20> 12 4<4 8> 16 4<12 28>
VStem: 4 8<12 16> 20 8<4 8>
LayerCount: 2
Fore
SplineSet
8 20 m 1x07
 28 20 l 1
 28 16 l 1
 12 16 l 1
 12 12 l 1x17
 24 12 l 1
 24 8 l 1
 28 8 l 1
 28 4 l 1
 24 4 l 1x2b
 24 0 l 1
 12 0 l 1x43
 12 -4 l 1
 0 -4 l 1
 0 0 l 1
 4 0 l 1
 4 4 l 1xa3
 20 4 l 1
 20 8 l 1
 8 8 l 1x53
 8 12 l 1
 4 12 l 1
 4 16 l 1
 8 16 l 1x0b
 8 20 l 1x07
EndSplineSet
Validated: 1
EndChar

StartChar: Scaron
Encoding: 352 352 321
Width: 36
Flags: W
HStem: 0 4<0 12> 4 4<24 28> 8 4<0 4> 12 4<16 28> 20 4<12 16> 24 4<8 12 16 20>
VStem: 8 4<24 28> 12 4<20 24> 16 4<24 28>
LayerCount: 2
Fore
SplineSet
4 16 m 1x11
 28 16 l 1
 28 12 l 1
 16 12 l 1x1080
 16 8 l 1x2080
 28 8 l 1
 28 4 l 1
 24 4 l 1x4080
 24 0 l 1
 0 0 l 1
 0 4 l 1
 12 4 l 1
 12 8 l 1
 0 8 l 1
 0 12 l 1
 4 12 l 1xa1
 4 16 l 1x11
16 28 m 1x0480
 20 28 l 1
 20 24 l 1x0480
 16 24 l 1x09
 16 28 l 1x0480
8 28 m 1x06
 12 28 l 1x06
 12 24 l 1x0a
 8 24 l 1
 8 28 l 1x06
16 24 m 1x09
 16 20 l 1
 12 20 l 1x09
 12 24 l 1x0a
 16 24 l 1x09
EndSplineSet
Validated: 5
EndChar

StartChar: scaron
Encoding: 353 353 322
Width: 32
Flags: W
HStem: 0 4<0 8> 4 4<20 24> 8 4<0 4> 12 4<16 24> 20 4<8 12> 24 4<4 8 12 16>
VStem: 4 4<24 28> 8 4<20 24> 12 4<24 28>
LayerCount: 2
Fore
SplineSet
4 16 m 1x12
 24 16 l 1
 24 12 l 1
 16 12 l 1x1280
 16 8 l 1x2280
 24 8 l 1
 24 4 l 1
 20 4 l 1x4280
 20 0 l 1
 0 0 l 1
 0 4 l 1
 8 4 l 1
 8 8 l 1xa1
 0 8 l 1
 0 12 l 1
 4 12 l 1xa2
 4 16 l 1x12
12 28 m 1x0480
 16 28 l 1
 16 24 l 1x0480
 12 24 l 1x09
 12 28 l 1x0480
4 28 m 1x06
 8 28 l 1x06
 8 24 l 1x0a
 4 24 l 1
 4 28 l 1x06
12 24 m 1x09
 12 20 l 1
 8 20 l 1x09
 8 24 l 1x0a
 12 24 l 1x09
EndSplineSet
Validated: 5
EndChar

StartChar: uni0162
Encoding: 354 354 323
Width: 32
Flags: W
HStem: -4 4<4 8> 24 4<0 8 16 24>
VStem: 8 8<0 24>
LayerCount: 2
Fore
SplineSet
0 28 m 1
 24 28 l 1
 24 24 l 1
 16 24 l 1
 16 -4 l 1
 4 -4 l 1
 4 0 l 1
 8 0 l 1
 8 24 l 1
 0 24 l 1
 0 28 l 1
EndSplineSet
Validated: 1
EndChar

StartChar: uni0163
Encoding: 355 355 324
Width: 28
Flags: W
HStem: -4 4<0 8> 0 4<12 20> 16 4<0 4 12 20>
VStem: 4 8<4 16 20 28>
LayerCount: 2
Fore
SplineSet
4 28 m 1x70
 12 28 l 1
 12 20 l 1
 20 20 l 1
 20 16 l 1
 12 16 l 1
 12 4 l 1
 20 4 l 1
 20 0 l 1
 12 0 l 1x70
 12 -4 l 1
 0 -4 l 1
 0 0 l 1
 8 0 l 1xb0
 8 4 l 1
 4 4 l 1
 4 16 l 1
 0 16 l 1
 0 20 l 1
 4 20 l 1
 4 28 l 1x70
EndSplineSet
Validated: 1
EndChar

StartChar: Tcaron
Encoding: 356 356 325
Width: 32
Flags: W
HStem: 4 20G<8 12> 16 4<0 8 16 24> 24 4<4 8 12 16>
VStem: 4 4<24 28> 8 4<20 24> 12 4<24 28>
LayerCount: 2
Fore
SplineSet
12 28 m 1x24
 16 28 l 1
 16 24 l 1x24
 12 24 l 1x88
 12 28 l 1x24
4 28 m 1x30
 8 28 l 1x30
 8 24 l 1x90
 4 24 l 1
 4 28 l 1x30
16 16 m 1x44
 16 0 l 1x44
 8 0 l 1
 8 16 l 1
 0 16 l 1
 0 20 l 1
 8 20 l 1x48
 8 24 l 1x90
 12 24 l 1x88
 12 20 l 1x48
 24 20 l 1
 24 16 l 1
 16 16 l 1x44
EndSplineSet
Validated: 5
EndChar

StartChar: tcaron
Encoding: 357 357 326
Width: 36
Flags: W
HStem: 0 4<12 20> 12 4<0 4 12 20> 20 4<16 20> 24 4<24 28>
VStem: 4 8<4 12 16 24> 16 8<20 24> 20 8<24 28>
LayerCount: 2
Fore
SplineSet
4 24 m 1xda
 12 24 l 1
 12 16 l 1
 20 16 l 1
 20 12 l 1
 12 12 l 1
 12 4 l 1
 20 4 l 1
 20 0 l 1
 8 0 l 1
 8 4 l 1
 4 4 l 1
 4 12 l 1
 0 12 l 1
 0 16 l 1
 4 16 l 1
 4 24 l 1xda
20 28 m 1
 28 28 l 1
 28 24 l 1xda
 24 24 l 1xdc
 24 20 l 1
 16 20 l 1
 16 24 l 1xec
 20 24 l 1xea
 20 28 l 1
EndSplineSet
Validated: 1
EndChar

StartChar: Tbar
Encoding: 358 358 327
Width: 32
Flags: W
HStem: 12 4<4 8 16 20> 24 4<0 8 16 24>
VStem: 8 8<0 12 16 24>
LayerCount: 2
Fore
SplineSet
0 28 m 1
 24 28 l 1
 24 24 l 1
 16 24 l 1
 16 16 l 1
 20 16 l 1
 20 12 l 1
 16 12 l 1
 16 0 l 1
 8 0 l 1
 8 12 l 1
 4 12 l 1
 4 16 l 1
 8 16 l 1
 8 24 l 1
 0 24 l 1
 0 28 l 1
EndSplineSet
Validated: 1
EndChar

StartChar: tbar
Encoding: 359 359 328
Width: 28
Flags: W
HStem: 0 4<12 20> 8 4<0 4 12 16> 16 4<0 4 12 20>
VStem: 4 8<4 8 12 16 20 28>
CounterMasks: 1 e0
LayerCount: 2
Fore
SplineSet
4 28 m 1
 12 28 l 1
 12 20 l 1
 20 20 l 1
 20 16 l 1
 12 16 l 1
 12 12 l 1
 16 12 l 1
 16 8 l 1
 12 8 l 1
 12 4 l 1
 20 4 l 1
 20 0 l 1
 8 0 l 1
 8 4 l 1
 4 4 l 1
 4 8 l 1
 0 8 l 1
 0 12 l 1
 4 12 l 1
 4 16 l 1
 0 16 l 1
 0 20 l 1
 4 20 l 1
 4 28 l 1
EndSplineSet
Validated: 1
EndChar

StartChar: Utilde
Encoding: 360 360 329
Width: 36
Flags: W
HStem: 0 4<4 24> 4 12<0 4 24 28> 20 4<0 4 12 24> 24 4<4 12 24 28>
VStem: 0 4<4 16 20 24> 4 8<24 28> 24 4<4 16 24 28>
LayerCount: 2
Fore
SplineSet
24 16 m 1x42
 28 16 l 1
 28 4 l 1x42
 24 4 l 1x82
 24 16 l 1x42
0 16 m 1x4a
 4 16 l 1x4a
 4 4 l 1x8a
 0 4 l 1
 0 16 l 1x4a
24 28 m 1x16
 28 28 l 1
 28 24 l 1x16
 24 24 l 1
 24 20 l 1
 12 20 l 1
 12 24 l 1
 24 24 l 1x26
 24 28 l 1x16
4 28 m 1
 12 28 l 1x16
 12 24 l 1x26
 4 24 l 1
 4 20 l 1
 0 20 l 1
 0 24 l 1
 4 24 l 1x2a
 4 28 l 1
24 4 m 1x8a
 24 0 l 1
 4 0 l 1x86
 4 4 l 1
 24 4 l 1x8a
EndSplineSet
Validated: 5
EndChar

StartChar: utilde
Encoding: 361 361 330
Width: 36
Flags: W
HStem: 0 4<8 20> 4 12<4 8 20 24> 20 4<0 4 12 24> 24 4<4 12 24 28>
VStem: 0 4<20 24> 4 8<24 28> 4 4<4 16> 20 4<4 16> 24 4<24 28>
LayerCount: 2
Fore
SplineSet
20 16 m 1x41
 24 16 l 1
 24 4 l 1x41
 20 4 l 1x81
 20 16 l 1x41
4 16 m 1x42
 8 16 l 1x42
 8 4 l 1x82
 4 4 l 1
 4 16 l 1x42
24 28 m 1x1480
 28 28 l 1
 28 24 l 1x1480
 24 24 l 1
 24 20 l 1
 12 20 l 1
 12 24 l 1
 24 24 l 1x2480
 24 28 l 1x1480
4 28 m 1
 12 28 l 1x14
 12 24 l 1x24
 4 24 l 1
 4 20 l 1
 0 20 l 1
 0 24 l 1
 4 24 l 1x28
 4 28 l 1
20 4 m 1x83
 20 0 l 1
 8 0 l 1
 8 4 l 1
 20 4 l 1x83
EndSplineSet
Validated: 5
EndChar

StartChar: Umacron
Encoding: 362 362 331
Width: 36
Flags: W
HStem: 0 20G<0 4 24 28> 0 4<4 24> 24 4<4 28>
VStem: 0 4<4 20> 24 4<4 20>
LayerCount: 2
Fore
SplineSet
24 20 m 1xb8
 28 20 l 1xb8
 28 4 l 1
 24 4 l 1x78
 24 20 l 1xb8
0 20 m 1
 4 20 l 1xb8
 4 4 l 1
 0 4 l 1x78
 0 20 l 1
4 28 m 1
 28 28 l 1
 28 24 l 1
 4 24 l 1
 4 28 l 1
24 4 m 1x78
 24 0 l 1
 4 0 l 1xb8
 4 4 l 1
 24 4 l 1x78
EndSplineSet
Validated: 5
EndChar

StartChar: umacron
Encoding: 363 363 332
Width: 32
Flags: W
HStem: 0 20G<0 4 16 20> 0 4<4 16> 24 4<0 24>
VStem: 0 4<4 20> 16 4<4 20>
LayerCount: 2
Fore
SplineSet
16 20 m 1xb8
 20 20 l 1xb8
 20 4 l 1
 16 4 l 1x78
 16 20 l 1xb8
0 20 m 1
 4 20 l 1xb8
 4 4 l 1
 0 4 l 1x78
 0 20 l 1
0 28 m 1
 24 28 l 1
 24 24 l 1
 0 24 l 1
 0 28 l 1
16 4 m 1x78
 16 0 l 1
 4 0 l 1xb8
 4 4 l 1
 16 4 l 1x78
EndSplineSet
Validated: 5
EndChar

StartChar: Ubreve
Encoding: 364 364 333
Width: 36
Flags: W
HStem: 0 4<4 24> 4 12<0 4 24 28> 20 4<4 24> 24 4<0 4 24 28>
VStem: 0 4<4 16 24 28> 24 4<4 16 24 28>
LayerCount: 2
Fore
SplineSet
24 16 m 1x4c
 28 16 l 1
 28 4 l 1x4c
 24 4 l 1x8c
 24 16 l 1x4c
0 16 m 1
 4 16 l 1x4c
 4 4 l 1x8c
 0 4 l 1
 0 16 l 1
24 28 m 1x1c
 28 28 l 1
 28 24 l 1x1c
 24 24 l 1x2c
 24 28 l 1x1c
0 28 m 1
 4 28 l 1x1c
 4 24 l 1x2c
 0 24 l 1
 0 28 l 1
24 4 m 1x8c
 24 0 l 1
 4 0 l 1
 4 4 l 1
 24 4 l 1x8c
24 24 m 1x2c
 24 20 l 1
 4 20 l 1
 4 24 l 1
 24 24 l 1x2c
EndSplineSet
Validated: 5
EndChar

StartChar: ubreve
Encoding: 365 365 334
Width: 36
Flags: W
HStem: 0 4<8 20> 4 12<4 8 20 24> 20 4<4 24> 24 4<0 4 24 28>
VStem: 0 4<24 28> 4 4<4 16> 20 4<4 16> 24 4<24 28>
LayerCount: 2
Fore
SplineSet
20 16 m 1x42
 24 16 l 1
 24 4 l 1x42
 20 4 l 1x82
 20 16 l 1x42
4 16 m 1x44
 8 16 l 1x44
 8 4 l 1x84
 4 4 l 1
 4 16 l 1x44
24 28 m 1x11
 28 28 l 1
 28 24 l 1x11
 24 24 l 1x21
 24 28 l 1x11
0 28 m 1x18
 4 28 l 1x18
 4 24 l 1x28
 0 24 l 1
 0 28 l 1x18
20 4 m 1x86
 20 0 l 1
 8 0 l 1
 8 4 l 1
 20 4 l 1x86
24 24 m 1x29
 24 20 l 1
 4 20 l 1x25
 4 24 l 1
 24 24 l 1x29
EndSplineSet
Validated: 5
EndChar

StartChar: Uring
Encoding: 366 366 335
Width: 36
Flags: W
HStem: 0 4<8 20> 4 12<0 4 24 28> 20 8<12 20>
VStem: 0 8<4 16> 12 8<20 28> 20 8<4 16>
LayerCount: 2
Fore
SplineSet
20 16 m 1x74
 28 16 l 1
 28 4 l 1
 24 4 l 1x74
 24 0 l 1
 4 0 l 1xb4
 4 4 l 1
 0 4 l 1
 0 16 l 1
 8 16 l 1x74
 8 4 l 1
 20 4 l 1xb4
 20 16 l 1x74
12 28 m 1x38
 20 28 l 1
 20 20 l 1
 12 20 l 1
 12 28 l 1x38
EndSplineSet
Validated: 1
EndChar

StartChar: uring
Encoding: 367 367 336
Width: 28
Flags: W
HStem: 0 4<4 16> 4 12<0 4 16 20> 20 8<8 16>
VStem: 0 4<4 16> 8 8<20 28> 16 4<4 16>
LayerCount: 2
Fore
SplineSet
16 16 m 1x74
 20 16 l 1
 20 4 l 1x74
 16 4 l 1xb4
 16 16 l 1x74
0 16 m 1
 4 16 l 1x70
 4 4 l 1xb0
 0 4 l 1
 0 16 l 1
8 28 m 1x38
 16 28 l 1
 16 20 l 1
 8 20 l 1
 8 28 l 1x38
16 4 m 1xb4
 16 0 l 1
 4 0 l 1
 4 4 l 1
 16 4 l 1xb4
EndSplineSet
Validated: 5
EndChar

StartChar: Uhungarumlaut
Encoding: 368 368 337
Width: 36
Flags: W
HStem: 0 4<4 24> 4 12<0 4 24 28> 20 4<4 8 20 24> 24 4<8 12 24 28>
VStem: 0 4<4 16> 4 4<20 24> 8 4<24 28> 20 4<20 24> 24 4<4 16 24 28>
LayerCount: 2
Fore
SplineSet
24 16 m 1x4080
 28 16 l 1
 28 4 l 1x4080
 24 4 l 1x8080
 24 16 l 1x4080
0 16 m 1x48
 4 16 l 1x48
 4 4 l 1x88
 0 4 l 1
 0 16 l 1x48
24 28 m 1x1080
 28 28 l 1
 28 24 l 1x1080
 24 24 l 1
 24 20 l 1
 20 20 l 1
 20 24 l 1
 24 24 l 1x21
 24 28 l 1x1080
8 28 m 1x12
 12 28 l 1
 12 24 l 1x12
 8 24 l 1
 8 20 l 1
 4 20 l 1
 4 24 l 1
 8 24 l 1x24
 8 28 l 1x12
24 4 m 1x8880
 24 0 l 1
 4 0 l 1x8480
 4 4 l 1
 24 4 l 1x8880
EndSplineSet
Validated: 5
EndChar

StartChar: uhungarumlaut
Encoding: 369 369 338
Width: 32
Flags: W
HStem: 0 4<4 16> 4 12<0 4 16 20> 20 4<0 4 16 20> 24 4<4 8 20 24>
VStem: 0 4<4 16 20 24> 16 4<4 16 20 24>
LayerCount: 2
Fore
SplineSet
16 16 m 1x4c
 20 16 l 1
 20 4 l 1x4c
 16 4 l 1x8c
 16 16 l 1x4c
0 16 m 1
 4 16 l 1x4c
 4 4 l 1x8c
 0 4 l 1
 0 16 l 1
20 28 m 1x1c
 24 28 l 1
 24 24 l 1x1c
 20 24 l 1
 20 20 l 1
 16 20 l 1
 16 24 l 1
 20 24 l 1x2c
 20 28 l 1x1c
4 28 m 1
 8 28 l 1
 8 24 l 1x1c
 4 24 l 1
 4 20 l 1
 0 20 l 1
 0 24 l 1
 4 24 l 1x2c
 4 28 l 1
16 4 m 1x8c
 16 0 l 1
 4 0 l 1
 4 4 l 1
 16 4 l 1x8c
EndSplineSet
Validated: 5
EndChar

StartChar: Uogonek
Encoding: 370 370 339
Width: 32
Flags: W
HStem: -4 4<20 24> 0 4<4 12>
VStem: 0 4<4 28> 20 4<4 28>
LayerCount: 2
Fore
SplineSet
20 28 m 1x70
 24 28 l 1
 24 4 l 1
 20 4 l 1
 20 28 l 1x70
0 28 m 1
 4 28 l 1
 4 4 l 1
 0 4 l 1
 0 28 l 1
20 4 m 1
 20 0 l 1
 24 0 l 1
 24 -4 l 1
 12 -4 l 1xb0
 12 0 l 1
 4 0 l 1
 4 4 l 1
 20 4 l 1
EndSplineSet
Validated: 5
EndChar

StartChar: uogonek
Encoding: 371 371 340
Width: 32
Flags: W
HStem: -4 4<16 24> 0 20G<0 4 16 20> 0 4<4 12>
VStem: 0 4<4 20> 16 4<4 20>
LayerCount: 2
Fore
SplineSet
16 20 m 1x58
 20 20 l 1x58
 20 4 l 1
 16 4 l 1x38
 16 20 l 1x58
0 20 m 1
 4 20 l 1x58
 4 4 l 1
 0 4 l 1x38
 0 20 l 1
16 4 m 1x38
 16 0 l 1
 24 0 l 1
 24 -4 l 1
 12 -4 l 1x98
 12 0 l 1x38
 4 0 l 1x58
 4 4 l 1
 16 4 l 1x38
EndSplineSet
Validated: 5
EndChar

StartChar: Wcircumflex
Encoding: 372 372 341
Width: 36
Flags: W
HStem: 0 16<0 8 20 28> 4 4<8 12 16 20> 20 4<8 12 16 20>
VStem: 0 8<0 4 8 16> 8 4<20 24> 12 4<8 12 24 28> 20 8<0 4 8 16>
LayerCount: 2
Fore
SplineSet
12 12 m 1x76
 16 12 l 1
 16 8 l 1
 20 8 l 1x76
 20 12 l 1
 20 16 l 1
 28 16 l 1xb6
 28 12 l 1
 28 8 l 1
 28 4 l 1x76
 28 0 l 1
 20 0 l 1xb6
 20 4 l 1
 8 4 l 1x76
 8 0 l 1
 0 0 l 1xb6
 0 4 l 1x76
 0 16 l 1
 8 16 l 1xb6
 8 8 l 1
 12 8 l 1
 12 12 l 1x76
12 28 m 1
 16 28 l 1
 16 24 l 1
 20 24 l 1
 20 20 l 1
 16 20 l 1
 16 24 l 1x26
 12 24 l 1
 12 20 l 1
 8 20 l 1
 8 24 l 1
 12 24 l 1x2a
 12 28 l 1
EndSplineSet
Validated: 5
EndChar

StartChar: wcircumflex
Encoding: 373 373 342
Width: 36
Flags: W
HStem: 0 8<8 12 16 20> 8 8<0 4 24 28> 20 4<8 12 16 20>
VStem: 0 8<8 16> 4 8<0 4> 8 4<20 24> 12 4<8 12 24 28> 16 8<0 4> 16 4<20 24> 20 8<8 16>
LayerCount: 2
Fore
SplineSet
12 12 m 1xb2
 16 12 l 1
 16 8 l 1
 20 8 l 1xb240
 20 12 l 1
 20 16 l 1
 28 16 l 1
 28 12 l 1
 28 8 l 1x7240
 24 8 l 1x61
 24 4 l 1
 24 0 l 1
 16 0 l 1
 16 4 l 1
 12 4 l 1
 12 0 l 1
 4 0 l 1xa9
 4 4 l 1
 4 8 l 1x69
 0 8 l 1
 0 16 l 1
 8 16 l 1x70
 8 8 l 1
 12 8 l 1
 12 12 l 1xb2
12 28 m 1
 16 28 l 1
 16 24 l 1x22
 20 24 l 1
 20 20 l 1
 16 20 l 1x2080
 16 24 l 1x22
 12 24 l 1
 12 20 l 1
 8 20 l 1
 8 24 l 1
 12 24 l 1x24
 12 28 l 1
EndSplineSet
Validated: 5
EndChar

StartChar: Ycircumflex
Encoding: 374 374 343
Width: 28
Flags: W
HStem: 8 4<4 8 12 16> 12 4<0 4 16 20> 20 4<4 8 12 16>
VStem: 0 4<12 16> 4 4<20 24> 8 4<0 8 24 28> 16 4<12 16>
LayerCount: 2
Fore
SplineSet
16 16 m 1x62
 20 16 l 1
 20 12 l 1x62
 16 12 l 1xa2
 16 16 l 1x62
0 16 m 1x72
 4 16 l 1x72
 4 12 l 1xb2
 0 12 l 1
 0 16 l 1x72
8 28 m 1x26
 12 28 l 1
 12 24 l 1
 16 24 l 1
 16 20 l 1
 12 20 l 1
 12 24 l 1x26
 8 24 l 1
 8 20 l 1
 4 20 l 1
 4 24 l 1
 8 24 l 1x2a
 8 28 l 1x26
12 8 m 1xb6
 12 0 l 1
 8 0 l 1
 8 8 l 1xb6
 4 8 l 1xaa
 4 12 l 1
 16 12 l 1
 16 8 l 1
 12 8 l 1xb6
EndSplineSet
Validated: 5
EndChar

StartChar: ycircumflex
Encoding: 375 375 344
Width: 28
Flags: W
HStem: -4 4<4 16> 4 4<4 16> 8 8<0 4> 20 4<4 8 12 16>
VStem: 0 4<8 16> 4 4<20 24> 12 4<20 24> 16 4<0 4 8 16>
LayerCount: 2
Fore
SplineSet
16 16 m 1xb9
 20 16 l 1
 20 8 l 1xb9
 20 0 l 1
 16 0 l 1
 16 -4 l 1
 4 -4 l 1
 4 0 l 1
 16 0 l 1
 16 4 l 1
 4 4 l 1xd5
 4 8 l 1xd8
 0 8 l 1
 0 16 l 1
 4 16 l 1xb8
 4 8 l 1
 16 8 l 1xd9
 16 16 l 1xb9
8 28 m 1x96
 12 28 l 1
 12 24 l 1
 16 24 l 1
 16 20 l 1
 12 20 l 1
 12 24 l 1
 8 24 l 1
 8 20 l 1
 4 20 l 1
 4 24 l 1
 8 24 l 1
 8 28 l 1x96
EndSplineSet
Validated: 5
EndChar

StartChar: Ydieresis
Encoding: 376 376 345
Width: 28
Flags: W
HStem: 8 4<4 8 12 16> 12 8<0 4 16 20> 24 4<4 8 16 20>
VStem: 0 4<12 20> 4 4<24 28> 8 4<0 8> 16 4<12 20 24 28>
LayerCount: 2
Fore
SplineSet
16 20 m 1x62
 20 20 l 1
 20 12 l 1x62
 16 12 l 1xa2
 16 20 l 1x62
0 20 m 1x72
 4 20 l 1x72
 4 12 l 1xb2
 0 12 l 1
 0 20 l 1x72
16 28 m 1
 20 28 l 1
 20 24 l 1
 16 24 l 1
 16 28 l 1
4 28 m 1x2a
 8 28 l 1
 8 24 l 1
 4 24 l 1
 4 28 l 1x2a
12 8 m 1xb6
 12 0 l 1
 8 0 l 1
 8 8 l 1xb6
 4 8 l 1xaa
 4 12 l 1
 16 12 l 1
 16 8 l 1
 12 8 l 1xb6
EndSplineSet
Validated: 5
EndChar

StartChar: Zacute
Encoding: 377 377 346
Width: 36
Flags: W
HStem: 0 8<4 8> 0 4<0 4 12 28> 8 4<12 16> 12 8<20 24> 16 4<0 16 24 28> 24 4<16 28>
VStem: 4 8<4 8> 16 8<12 16>
LayerCount: 2
Fore
SplineSet
0 20 m 1x2f
 28 20 l 1
 28 16 l 1
 24 16 l 1x2f
 24 12 l 1
 20 12 l 1x17
 20 8 l 1
 12 8 l 1
 12 4 l 1
 28 4 l 1
 28 0 l 1
 0 0 l 1
 0 4 l 1
 4 4 l 1x67
 4 8 l 1
 8 8 l 1
 8 12 l 1x97
 16 12 l 1
 16 16 l 1
 0 16 l 1
 0 20 l 1x2f
16 28 m 1
 28 28 l 1
 28 24 l 1
 16 24 l 1
 16 28 l 1
EndSplineSet
Validated: 1
EndChar

StartChar: zacute
Encoding: 378 378 347
Width: 32
Flags: W
HStem: 0 8<4 8> 0 4<0 4 8 20> 8 4<8 12> 12 8<12 16> 16 4<0 12 16 20> 24 4<12 24>
VStem: 4 4<4 8> 8 4<8 12> 12 4<12 16>
LayerCount: 2
Fore
SplineSet
0 20 m 1x2c80
 20 20 l 1
 20 16 l 1
 16 16 l 1x2c80
 16 12 l 1x1480
 12 12 l 1
 12 8 l 1x25
 8 8 l 1x86
 8 4 l 1
 20 4 l 1
 20 0 l 1
 0 0 l 1
 0 4 l 1
 4 4 l 1x46
 4 8 l 1
 8 8 l 1x86
 8 12 l 1
 12 12 l 1x25
 12 16 l 1
 0 16 l 1
 0 20 l 1x2c80
12 28 m 1
 24 28 l 1
 24 24 l 1
 12 24 l 1
 12 28 l 1
EndSplineSet
Validated: 5
EndChar

StartChar: Zdotaccent
Encoding: 379 379 348
Width: 36
Flags: W
HStem: 0 8<4 8> 0 4<0 4 12 28> 8 4<12 16> 12 8<20 24> 16 4<0 16 24 28> 24 4<12 20>
VStem: 4 8<4 8> 12 8<24 28> 16 8<12 16>
LayerCount: 2
Fore
SplineSet
0 20 m 1x2e80
 28 20 l 1
 28 16 l 1
 24 16 l 1x2e80
 24 12 l 1x1680
 20 12 l 1x15
 20 8 l 1x25
 12 8 l 1
 12 4 l 1
 28 4 l 1
 28 0 l 1
 0 0 l 1
 0 4 l 1
 4 4 l 1x66
 4 8 l 1
 8 8 l 1
 8 12 l 1x96
 16 12 l 1
 16 16 l 1
 0 16 l 1
 0 20 l 1x2e80
12 28 m 1x05
 20 28 l 1
 20 24 l 1
 12 24 l 1
 12 28 l 1x05
EndSplineSet
Validated: 1
EndChar

StartChar: zdotaccent
Encoding: 380 380 349
Width: 28
Flags: W
HStem: 0 8<4 8> 0 4<0 4 8 20> 8 4<8 12> 12 8<12 16> 16 4<0 12 16 20> 24 4<8 16>
VStem: 4 4<4 8> 8 4<8 12> 12 4<12 16>
LayerCount: 2
Fore
SplineSet
0 20 m 1x2c80
 20 20 l 1
 20 16 l 1
 16 16 l 1x2c80
 16 12 l 1x1480
 12 12 l 1
 12 8 l 1x25
 8 8 l 1x86
 8 4 l 1
 20 4 l 1
 20 0 l 1
 0 0 l 1
 0 4 l 1
 4 4 l 1x46
 4 8 l 1
 8 8 l 1x86
 8 12 l 1
 12 12 l 1x25
 12 16 l 1
 0 16 l 1
 0 20 l 1x2c80
8 28 m 1x05
 16 28 l 1
 16 24 l 1x0480
 8 24 l 1
 8 28 l 1x05
EndSplineSet
Validated: 5
EndChar

StartChar: Zcaron
Encoding: 381 381 350
Width: 32
Flags: W
HStem: 0 8<4 12> 0 4<0 4 12 24> 8 8<12 20> 12 4<0 12 20 24> 20 4<8 12> 24 4<4 8 12 16>
VStem: 4 4<24 28> 8 4<20 24> 12 8<8 12> 12 4<24 28>
LayerCount: 2
Fore
SplineSet
0 16 m 1x9280
 24 16 l 1
 24 12 l 1
 20 12 l 1x9280
 20 8 l 1x2280
 12 8 l 1x8280
 12 4 l 1
 24 4 l 1
 24 0 l 1
 0 0 l 1
 0 4 l 1
 4 4 l 1x4240
 4 8 l 1
 12 8 l 1
 12 12 l 1
 0 12 l 1
 0 16 l 1x9280
12 28 m 1x0440
 16 28 l 1
 16 24 l 1x0440
 12 24 l 1x09
 12 28 l 1x0440
4 28 m 1x06
 8 28 l 1x06
 8 24 l 1x0a
 4 24 l 1
 4 28 l 1x06
12 24 m 1x09
 12 20 l 1
 8 20 l 1x09
 8 24 l 1x0a
 12 24 l 1x09
EndSplineSet
Validated: 5
EndChar

StartChar: zcaron
Encoding: 382 382 351
Width: 32
Flags: W
HStem: 0 8<4 12> 0 4<0 4 12 24> 8 8<12 20> 12 4<0 12 20 24> 20 4<8 12> 24 4<4 8 12 16>
VStem: 4 4<24 28> 8 4<20 24> 12 8<8 12> 12 4<24 28>
LayerCount: 2
Fore
SplineSet
0 16 m 1x9280
 24 16 l 1
 24 12 l 1
 20 12 l 1x9280
 20 8 l 1x2280
 12 8 l 1x8280
 12 4 l 1
 24 4 l 1
 24 0 l 1
 0 0 l 1
 0 4 l 1
 4 4 l 1x4240
 4 8 l 1
 12 8 l 1
 12 12 l 1
 0 12 l 1
 0 16 l 1x9280
12 28 m 1x0440
 16 28 l 1
 16 24 l 1x0440
 12 24 l 1x09
 12 28 l 1x0440
4 28 m 1x06
 8 28 l 1x06
 8 24 l 1x0a
 4 24 l 1
 4 28 l 1x06
12 24 m 1x09
 12 20 l 1
 8 20 l 1x09
 8 24 l 1x0a
 12 24 l 1x09
EndSplineSet
Validated: 5
EndChar

StartChar: longs
Encoding: 383 383 352
Width: 32
Flags: W
HStem: 20 4<20 24> 24 4<8 16>
VStem: 0 8<0 24> 16 8<20 24>
LayerCount: 2
Fore
SplineSet
4 28 m 1x70
 20 28 l 1x70
 20 24 l 1
 24 24 l 1
 24 20 l 1
 16 20 l 1xb0
 16 24 l 1
 8 24 l 1
 8 0 l 1
 0 0 l 1
 0 24 l 1
 4 24 l 1
 4 28 l 1x70
EndSplineSet
Validated: 1
EndChar

StartChar: uni0180
Encoding: 384 384 353
Width: 36
Flags: W
HStem: 0 4<12 20> 4 8<24 28> 12 4<12 20> 20 4<0 4 12 20>
VStem: 4 8<4 12 16 20 24 28> 20 8<4 12>
LayerCount: 2
Fore
SplineSet
4 28 m 1xbc
 12 28 l 1
 12 24 l 1
 20 24 l 1
 20 20 l 1
 12 20 l 1
 12 16 l 1
 24 16 l 1xbc
 24 12 l 1
 28 12 l 1
 28 4 l 1
 24 4 l 1x5c
 24 0 l 1
 4 0 l 1
 4 12 l 1
 4 20 l 1
 0 20 l 1
 0 24 l 1
 4 24 l 1
 4 28 l 1xbc
20 4 m 1
 20 12 l 1
 12 12 l 1
 12 4 l 1
 20 4 l 1
EndSplineSet
Validated: 1
EndChar

StartChar: uni0181
Encoding: 385 385 354
Width: 36
Flags: W
HStem: 0 4<16 20> 4 8<24 28> 12 4<16 20> 16 8<0 4 24 28> 24 4<4 8 16 20>
VStem: 0 4<16 24> 8 8<4 12 16 24> 20 8<4 12 16 24>
LayerCount: 2
Fore
SplineSet
4 28 m 1x0f
 24 28 l 1x0f
 24 24 l 1
 28 24 l 1
 28 16 l 1
 24 16 l 1
 24 12 l 1
 28 12 l 1
 28 4 l 1
 24 4 l 1x57
 24 0 l 1
 8 0 l 1
 8 12 l 1
 8 24 l 1xaf
 4 24 l 1
 4 16 l 1
 0 16 l 1
 0 24 l 1
 4 24 l 1x17
 4 28 l 1x0f
20 4 m 1xa7
 20 12 l 1
 16 12 l 1
 16 4 l 1
 20 4 l 1xa7
20 16 m 1
 20 24 l 1
 16 24 l 1x2f
 16 16 l 1
 20 16 l 1
EndSplineSet
Validated: 5
EndChar

StartChar: uni0182
Encoding: 386 386 355
Width: 32
Flags: W
HStem: 0 4<8 16> 4 8<20 24> 12 4<8 16> 24 4<8 24>
VStem: 0 8<4 12 16 24> 16 8<4 12>
LayerCount: 2
Fore
SplineSet
0 28 m 1xbc
 24 28 l 1
 24 24 l 1
 8 24 l 1
 8 16 l 1
 20 16 l 1xbc
 20 12 l 1
 24 12 l 1
 24 4 l 1
 20 4 l 1x5c
 20 0 l 1
 0 0 l 1
 0 12 l 1
 0 24 l 1
 0 28 l 1xbc
16 4 m 1
 16 12 l 1
 8 12 l 1
 8 4 l 1
 16 4 l 1
EndSplineSet
Validated: 1
EndChar

StartChar: uni0183
Encoding: 387 387 356
Width: 32
Flags: W
HStem: 0 4<8 16> 16 4<8 16> 24 4<8 20>
VStem: 0 8<4 16 20 24> 16 8<4 16>
LayerCount: 2
Fore
SplineSet
0 28 m 1
 20 28 l 1
 20 24 l 1
 8 24 l 1
 8 20 l 1
 20 20 l 1
 20 16 l 1
 24 16 l 1
 24 4 l 1
 20 4 l 1
 20 0 l 1
 0 0 l 1
 0 16 l 1
 0 24 l 1
 0 28 l 1
16 4 m 1
 16 16 l 1
 8 16 l 1
 8 4 l 1
 16 4 l 1
EndSplineSet
Validated: 1
EndChar

StartChar: uni0184
Encoding: 388 388 357
Width: 36
Flags: W
HStem: 0 4<12 20> 4 8<24 28> 12 4<12 20> 20 4<0 4>
VStem: 4 8<4 12 16 20 24 28> 20 8<4 12>
LayerCount: 2
Fore
SplineSet
4 28 m 1xbc
 12 28 l 1
 12 16 l 1
 24 16 l 1xbc
 24 12 l 1
 28 12 l 1
 28 4 l 1
 24 4 l 1x5c
 24 0 l 1
 4 0 l 1
 4 12 l 1
 4 20 l 1
 0 20 l 1
 0 24 l 1
 4 24 l 1
 4 28 l 1xbc
20 4 m 1
 20 12 l 1
 12 12 l 1
 12 4 l 1
 20 4 l 1
EndSplineSet
Validated: 1
EndChar

StartChar: uni0185
Encoding: 389 389 358
Width: 36
Flags: W
HStem: 0 4<12 20> 4 8<24 28> 12 4<12 20> 20 4<0 4>
VStem: 4 8<4 12 16 20 24 28> 20 8<4 12>
LayerCount: 2
Fore
SplineSet
4 28 m 1x3c
 12 28 l 1
 12 16 l 1
 24 16 l 1x3c
 24 12 l 1
 28 12 l 1
 28 4 l 1
 24 4 l 1x5c
 24 0 l 1
 8 0 l 1x9c
 8 4 l 1
 4 4 l 1x5c
 4 12 l 1
 4 20 l 1
 0 20 l 1
 0 24 l 1
 4 24 l 1
 4 28 l 1x3c
20 4 m 1xbc
 20 12 l 1
 12 12 l 1
 12 4 l 1
 20 4 l 1xbc
EndSplineSet
Validated: 1
EndChar

StartChar: uni0186
Encoding: 390 390 359
Width: 32
Flags: W
HStem: 0 4<8 16> 4 4<0 4> 20 4<0 4> 24 4<8 16>
VStem: 0 8<4 8 20 24> 16 8<4 24>
LayerCount: 2
Fore
SplineSet
0 8 m 1x4c
 8 8 l 1x4c
 8 4 l 1
 16 4 l 1x8c
 16 8 l 1
 16 24 l 1
 8 24 l 1x5c
 8 20 l 1
 0 20 l 1
 0 24 l 1
 4 24 l 1x2c
 4 28 l 1
 20 28 l 1
 20 24 l 1
 24 24 l 1
 24 8 l 1
 24 4 l 1
 20 4 l 1x5c
 20 0 l 1
 4 0 l 1x8c
 4 4 l 1
 0 4 l 1
 0 8 l 1x4c
EndSplineSet
Validated: 1
EndChar

StartChar: uni0187
Encoding: 391 391 360
Width: 36
Flags: W
HStem: 0 4<8 28> 20 8<20 28> 20 4<8 20>
VStem: 0 8<4 20> 20 8<24 28>
LayerCount: 2
Fore
SplineSet
20 28 m 1xd8
 28 28 l 1
 28 20 l 1xd8
 8 20 l 1
 8 4 l 1
 28 4 l 1
 28 0 l 1
 4 0 l 1
 4 4 l 1
 0 4 l 1
 0 20 l 1
 4 20 l 1
 4 24 l 1
 20 24 l 1xb8
 20 28 l 1xd8
EndSplineSet
Validated: 1
EndChar

StartChar: uni0188
Encoding: 392 392 361
Width: 36
Flags: W
HStem: 0 4<8 24> 16 8<16 20> 16 4<8 16> 24 4<24 28>
VStem: 0 8<4 16> 16 8<20 24> 20 8<24 28>
LayerCount: 2
Fore
SplineSet
20 28 m 1x9a
 28 28 l 1
 28 24 l 1x9a
 24 24 l 1
 24 16 l 1
 8 16 l 1
 8 4 l 1
 24 4 l 1
 24 0 l 1
 4 0 l 1
 4 4 l 1
 0 4 l 1
 0 16 l 1
 4 16 l 1
 4 20 l 1
 16 20 l 1xbc
 16 24 l 1xcc
 20 24 l 1xca
 20 28 l 1x9a
EndSplineSet
Validated: 1
EndChar

StartChar: uni0189
Encoding: 393 393 362
Width: 36
Flags: W
HStem: 0 8<16 20> 0 4<12 16> 12 4<0 4 12 16> 20 8<16 20> 24 4<12 16>
VStem: 4 8<4 12 16 24> 16 8<4 8 20 24>
LayerCount: 2
Fore
SplineSet
4 28 m 1x6e
 20 28 l 1x36
 20 24 l 1
 24 24 l 1x2e
 24 20 l 1
 28 20 l 1
 28 12 l 1
 28 8 l 1
 24 8 l 1xb6
 24 4 l 1
 20 4 l 1x66
 20 0 l 1xa6
 4 0 l 1
 4 12 l 1
 0 12 l 1
 0 16 l 1
 4 16 l 1
 4 24 l 1
 4 28 l 1x6e
20 8 m 1xa6
 20 12 l 1
 20 20 l 1
 16 20 l 1xb6
 16 24 l 1
 12 24 l 1
 12 16 l 1
 16 16 l 1
 16 12 l 1
 12 12 l 1
 12 4 l 1
 16 4 l 1x6e
 16 8 l 1
 20 8 l 1xa6
EndSplineSet
Validated: 1
EndChar

StartChar: uni018A
Encoding: 394 394 363
Width: 36
Flags: W
HStem: 0 4<4 8 16 20> 16 8<0 4> 24 4<4 8 16 20>
VStem: 0 4<16 24> 8 8<4 24> 20 8<4 24>
LayerCount: 2
Fore
SplineSet
4 28 m 1xbc
 24 28 l 1
 24 24 l 1
 28 24 l 1
 28 4 l 1
 24 4 l 1
 24 0 l 1
 4 0 l 1
 4 4 l 1
 8 4 l 1
 8 24 l 1xbc
 4 24 l 1
 4 16 l 1
 0 16 l 1
 0 24 l 1
 4 24 l 1xdc
 4 28 l 1xbc
20 4 m 1
 20 24 l 1
 16 24 l 1
 16 4 l 1
 20 4 l 1
EndSplineSet
Validated: 5
EndChar

StartChar: uni018B
Encoding: 395 395 364
Width: 32
Flags: W
HStem: 0 4<8 16> 4 8<0 4> 12 4<8 16> 24 4<4 16>
VStem: 0 8<4 12> 16 8<4 12 16 24>
LayerCount: 2
Fore
SplineSet
4 28 m 1x3c
 24 28 l 1
 24 12 l 1x3c
 24 4 l 1x5c
 24 0 l 1
 4 0 l 1x9c
 4 4 l 1
 0 4 l 1
 0 12 l 1
 4 12 l 1x5c
 4 16 l 1
 16 16 l 1
 16 24 l 1
 4 24 l 1
 4 28 l 1x3c
16 4 m 1xbc
 16 12 l 1
 8 12 l 1
 8 4 l 1
 16 4 l 1xbc
EndSplineSet
Validated: 1
EndChar

StartChar: uni018C
Encoding: 396 396 365
Width: 32
Flags: W
HStem: 0 4<8 16> 16 4<8 16> 24 4<4 16>
VStem: 0 8<4 16> 16 8<4 16 20 24>
LayerCount: 2
Fore
SplineSet
4 28 m 1
 24 28 l 1
 24 16 l 1
 24 4 l 1
 24 0 l 1
 4 0 l 1
 4 4 l 1
 0 4 l 1
 0 16 l 1
 4 16 l 1
 4 20 l 1
 16 20 l 1
 16 24 l 1
 4 24 l 1
 4 28 l 1
16 4 m 1
 16 16 l 1
 8 16 l 1
 8 4 l 1
 16 4 l 1
EndSplineSet
Validated: 1
EndChar

StartChar: uni018D
Encoding: 397 397 366
Width: 32
Flags: W
HStem: -4 4<8 16> 0 4<20 24> 4 4<8 16> 8 8<0 4 20 24> 16 4<8 16>
VStem: 0 8<8 16> 16 8<0 4 8 16>
LayerCount: 2
Fore
SplineSet
4 20 m 1x0e
 20 20 l 1x0e
 20 16 l 1
 24 16 l 1
 24 8 l 1
 20 8 l 1
 20 4 l 1
 24 4 l 1
 24 0 l 1
 20 0 l 1x56
 20 -4 l 1
 8 -4 l 1
 8 0 l 1
 16 0 l 1
 16 4 l 1
 4 4 l 1xa6
 4 8 l 1
 0 8 l 1
 0 16 l 1
 4 16 l 1x16
 4 20 l 1x0e
16 8 m 1x2e
 16 16 l 1
 8 16 l 1
 8 8 l 1
 16 8 l 1x2e
EndSplineSet
Validated: 1
EndChar

StartChar: uni018E
Encoding: 398 398 367
Width: 32
Flags: W
HStem: 0 4<0 16> 12 4<4 16> 24 4<0 16>
VStem: 16 8<4 12 16 24>
CounterMasks: 1 e0
LayerCount: 2
Fore
SplineSet
0 28 m 1
 24 28 l 1
 24 0 l 1
 0 0 l 1
 0 4 l 1
 16 4 l 1
 16 12 l 1
 4 12 l 1
 4 16 l 1
 16 16 l 1
 16 24 l 1
 0 24 l 1
 0 28 l 1
EndSplineSet
Validated: 1
EndChar

StartChar: uni018F
Encoding: 399 399 368
Width: 32
Flags: W
HStem: 0 4<8 16> 12 4<8 16> 20 4<0 4> 24 4<8 16>
VStem: 0 8<4 12 20 24> 16 8<4 12 16 24>
LayerCount: 2
Fore
SplineSet
4 28 m 1xdc
 20 28 l 1
 20 24 l 1
 24 24 l 1
 24 12 l 1
 24 4 l 1
 20 4 l 1
 20 0 l 1
 4 0 l 1
 4 4 l 1
 0 4 l 1
 0 12 l 1
 0 16 l 1
 16 16 l 1
 16 24 l 1
 8 24 l 1xdc
 8 20 l 1
 0 20 l 1
 0 24 l 1
 4 24 l 1xec
 4 28 l 1xdc
16 4 m 1
 16 12 l 1
 8 12 l 1
 8 4 l 1
 16 4 l 1
EndSplineSet
Validated: 1
EndChar

StartChar: uni0190
Encoding: 400 400 369
Width: 32
Flags: W
HStem: 0 4<8 16> 4 8<0 4> 4 4<20 24> 12 4<8 16> 16 8<0 4> 20 4<20 24> 24 4<8 16>
VStem: 0 8<4 12 16 24> 16 8<4 8 20 24>
LayerCount: 2
Fore
SplineSet
16 8 m 1x2180
 24 8 l 1
 24 4 l 1
 20 4 l 1x2180
 20 0 l 1
 4 0 l 1x8180
 4 4 l 1
 0 4 l 1
 0 12 l 1
 4 12 l 1
 4 16 l 1
 0 16 l 1
 0 24 l 1
 4 24 l 1x4980
 4 28 l 1
 20 28 l 1x0380
 20 24 l 1
 24 24 l 1
 24 20 l 1
 16 20 l 1x0580
 16 24 l 1
 8 24 l 1
 8 16 l 1
 16 16 l 1
 16 12 l 1
 8 12 l 1
 8 4 l 1
 16 4 l 1x9380
 16 8 l 1x2180
EndSplineSet
Validated: 1
EndChar

StartChar: uni0191
Encoding: 401 401 370
Width: 36
Flags: W
HStem: -4 4<0 4> 12 4<12 24> 24 4<12 28>
VStem: 0 8<-4 0> 4 8<0 12 16 24>
LayerCount: 2
Fore
SplineSet
4 28 m 1xe8
 28 28 l 1
 28 24 l 1
 12 24 l 1
 12 16 l 1
 24 16 l 1
 24 12 l 1
 12 12 l 1
 12 0 l 1xe8
 8 0 l 1
 8 -4 l 1
 0 -4 l 1
 0 0 l 1xf0
 4 0 l 1
 4 12 l 1
 4 24 l 1
 4 28 l 1xe8
EndSplineSet
Validated: 1
EndChar

StartChar: florin
Encoding: 402 402 371
Width: 40
Flags: W
HStem: -4 4<8 12> 0 4<0 4> 12 4<8 12 20 24> 20 4<28 32> 24 4<20 24>
VStem: 0 8<0 4> 12 8<0 12 16 24> 24 8<20 24>
CounterMasks: 1 07
LayerCount: 2
Fore
SplineSet
0 4 m 1x67
 8 4 l 1x67
 8 0 l 1
 12 0 l 1xa7
 12 4 l 1
 12 12 l 1
 8 12 l 1
 8 16 l 1
 12 16 l 1
 12 24 l 1
 16 24 l 1
 16 28 l 1
 28 28 l 1x6f
 28 24 l 1
 32 24 l 1
 32 20 l 1
 24 20 l 1x37
 24 24 l 1
 20 24 l 1
 20 16 l 1
 24 16 l 1
 24 12 l 1
 20 12 l 1
 20 4 l 1
 20 0 l 1
 16 0 l 1x6f
 16 -4 l 1
 4 -4 l 1xa7
 4 0 l 1
 0 0 l 1
 0 4 l 1x67
EndSplineSet
Validated: 1
EndChar

StartChar: uni0193
Encoding: 403 403 372
Width: 36
Flags: W
HStem: 0 4<8 16> 8 4<12 16> 20 4<8 20> 24 4<24 28>
VStem: 0 8<4 20> 16 8<4 8> 20 8<24 28>
LayerCount: 2
Fore
SplineSet
12 12 m 1xec
 24 12 l 1
 24 4 l 1
 24 0 l 1
 4 0 l 1
 4 4 l 1
 0 4 l 1
 0 20 l 1
 4 20 l 1xec
 4 24 l 1xdc
 20 24 l 1xea
 20 28 l 1
 28 28 l 1
 28 24 l 1xda
 24 24 l 1xdc
 24 20 l 1
 8 20 l 1
 8 4 l 1
 16 4 l 1
 16 8 l 1
 12 8 l 1
 12 12 l 1xec
EndSplineSet
Validated: 1
EndChar

StartChar: uni0194
Encoding: 404 404 373
Width: 36
Flags: W
HStem: 0 4<12 16> 4 4<4 8 20 24> 16 12<0 4 24 28>
VStem: 0 8<16 28> 4 8<4 8 12 16> 8 12<0 4 8 12> 16 8<4 8 12 16>
LayerCount: 2
Fore
SplineSet
20 28 m 1x64
 28 28 l 1
 28 16 l 1
 24 16 l 1
 24 12 l 1x62
 20 12 l 1
 20 8 l 1x64
 24 8 l 1
 24 4 l 1x62
 20 4 l 1x64
 20 0 l 1
 8 0 l 1xa4
 8 4 l 1x64
 4 4 l 1
 4 8 l 1x68
 8 8 l 1
 8 12 l 1x64
 4 12 l 1
 4 16 l 1x68
 0 16 l 1
 0 28 l 1
 8 28 l 1
 8 16 l 1x70
 12 16 l 1
 12 12 l 1
 16 12 l 1
 16 16 l 1x6a
 20 16 l 1
 20 28 l 1x64
16 4 m 1xaa
 16 8 l 1
 12 8 l 1x6a
 12 4 l 1
 16 4 l 1xaa
EndSplineSet
Validated: 1
EndChar

StartChar: uni0195
Encoding: 405 405 374
Width: 40
Flags: W
HStem: 0 4<20 24> 16 4<8 12>
VStem: 0 8<0 16 20 28> 12 8<4 16> 24 8<4 20>
CounterMasks: 1 38
LayerCount: 2
Fore
SplineSet
24 20 m 1
 32 20 l 1
 32 16 l 1
 32 4 l 1
 28 4 l 1
 28 0 l 1
 16 0 l 1
 16 4 l 1
 12 4 l 1
 12 16 l 1
 8 16 l 1
 8 0 l 1
 0 0 l 1
 0 16 l 1
 0 28 l 1
 8 28 l 1
 8 20 l 1
 16 20 l 1
 16 16 l 1
 20 16 l 1
 20 4 l 1
 24 4 l 1
 24 16 l 1
 24 20 l 1
EndSplineSet
Validated: 1
EndChar

StartChar: uni0197
Encoding: 407 407 375
Width: 32
Flags: W
HStem: 0 4<0 8 16 24> 12 4<0 8 16 24> 24 4<0 8 16 24>
VStem: 8 8<4 12 16 24>
CounterMasks: 1 e0
LayerCount: 2
Fore
SplineSet
0 28 m 1
 24 28 l 1
 24 24 l 1
 16 24 l 1
 16 16 l 1
 24 16 l 1
 24 12 l 1
 16 12 l 1
 16 4 l 1
 24 4 l 1
 24 0 l 1
 0 0 l 1
 0 4 l 1
 8 4 l 1
 8 12 l 1
 0 12 l 1
 0 16 l 1
 8 16 l 1
 8 24 l 1
 0 24 l 1
 0 28 l 1
EndSplineSet
Validated: 1
EndChar

StartChar: uni0198
Encoding: 408 408 376
Width: 36
Flags: W
HStem: 0 8<20 24> 12 4<8 12> 20 8<24 28> 24 4<20 24>
VStem: 0 8<0 12 16 28> 12 8<8 12 16 24> 24 4<20 24>
LayerCount: 2
Fore
SplineSet
16 28 m 1xde
 28 28 l 1xee
 28 24 l 1xde
 28 20 l 1
 24 20 l 1xee
 24 24 l 1
 20 24 l 1
 20 16 l 1
 16 16 l 1
 16 12 l 1
 20 12 l 1
 20 8 l 1
 24 8 l 1
 24 0 l 1
 16 0 l 1
 16 8 l 1
 12 8 l 1
 12 12 l 1
 8 12 l 1
 8 0 l 1
 0 0 l 1
 0 12 l 1
 0 28 l 1
 8 28 l 1
 8 16 l 1
 12 16 l 1
 12 24 l 1
 16 24 l 1
 16 28 l 1xde
EndSplineSet
Validated: 1
EndChar

StartChar: uni0199
Encoding: 409 409 377
Width: 32
Flags: W
HStem: 0 8<16 20> 0 4<20 24> 8 4<8 12> 12 8<16 20> 16 4<20 24> 24 4<8 20>
VStem: 0 8<0 8 12 24> 12 8<4 8 12 16> 16 8<0 4 16 20>
LayerCount: 2
Fore
SplineSet
16 20 m 1x1680
 24 20 l 1
 24 16 l 1x0e80
 20 16 l 1x0f
 20 12 l 1x17
 16 12 l 1
 16 8 l 1x9680
 20 8 l 1x97
 20 4 l 1x47
 24 4 l 1
 24 0 l 1x4680
 16 0 l 1x8680
 16 4 l 1x4680
 12 4 l 1
 12 8 l 1
 8 8 l 1
 8 0 l 1
 0 0 l 1
 0 8 l 1
 0 24 l 1
 4 24 l 1
 4 28 l 1
 20 28 l 1
 20 24 l 1
 8 24 l 1
 8 12 l 1
 12 12 l 1
 12 16 l 1x6f
 16 16 l 1x6e80
 16 20 l 1x1680
EndSplineSet
Validated: 1
EndChar

StartChar: uni019A
Encoding: 410 410 378
Width: 32
Flags: W
HStem: 0 4<16 24> 12 4<0 8 16 24> 24 4<0 8>
VStem: 8 8<4 12 16 24>
CounterMasks: 1 e0
LayerCount: 2
Fore
SplineSet
0 28 m 1
 16 28 l 1
 16 16 l 1
 24 16 l 1
 24 12 l 1
 16 12 l 1
 16 4 l 1
 24 4 l 1
 24 0 l 1
 8 0 l 1
 8 12 l 1
 0 12 l 1
 0 16 l 1
 8 16 l 1
 8 24 l 1
 0 24 l 1
 0 28 l 1
EndSplineSet
Validated: 1
EndChar

StartChar: uni019B
Encoding: 411 411 379
Width: 36
Flags: W
HStem: 12 4<8 16> 20 4<8 16 24 28>
VStem: 0 8<0 12> 16 8<0 12 16 20 24 28>
LayerCount: 2
Fore
SplineSet
16 28 m 1
 24 28 l 1
 24 24 l 1
 28 24 l 1
 28 20 l 1
 24 20 l 1
 24 12 l 1
 24 0 l 1
 16 0 l 1
 16 12 l 1
 8 12 l 1
 8 0 l 1
 0 0 l 1
 0 12 l 1
 4 12 l 1
 4 16 l 1
 16 16 l 1
 16 20 l 1
 8 20 l 1
 8 24 l 1
 16 24 l 1
 16 28 l 1
EndSplineSet
Validated: 1
EndChar

StartChar: uni019C
Encoding: 412 412 380
Width: 36
Flags: W
HStem: 0 4<8 12 16 20>
VStem: 0 8<4 28> 12 4<4 28> 20 8<4 28>
CounterMasks: 1 70
LayerCount: 2
Fore
SplineSet
20 28 m 1
 28 28 l 1
 28 4 l 1
 28 0 l 1
 4 0 l 1
 4 4 l 1
 0 4 l 1
 0 28 l 1
 8 28 l 1
 8 4 l 1
 12 4 l 1
 12 28 l 1
 16 28 l 1
 16 4 l 1
 20 4 l 1
 20 28 l 1
EndSplineSet
Validated: 1
EndChar

StartChar: uni019D
Encoding: 413 413 381
Width: 36
Flags: W
VStem: 0 8<-4 12 24 28> 20 8<0 4 16 28>
LayerCount: 2
Fore
SplineSet
20 28 m 1
 28 28 l 1
 28 16 l 1
 28 12 l 1
 28 0 l 1
 20 0 l 1
 20 4 l 1
 16 4 l 1
 16 8 l 1
 12 8 l 1
 12 12 l 1
 8 12 l 1
 8 -4 l 1
 0 -4 l 1
 0 12 l 1
 0 28 l 1
 8 28 l 1
 8 24 l 1
 12 24 l 1
 12 20 l 1
 16 20 l 1
 16 16 l 1
 20 16 l 1
 20 28 l 1
EndSplineSet
Validated: 1
EndChar

StartChar: uni019E
Encoding: 414 414 382
Width: 32
Flags: W
HStem: 16 4<8 16>
VStem: 0 8<0 16> 16 8<-4 16>
LayerCount: 2
Fore
SplineSet
0 20 m 1
 20 20 l 1
 20 16 l 1
 24 16 l 1
 24 -4 l 1
 16 -4 l 1
 16 16 l 1
 8 16 l 1
 8 0 l 1
 0 0 l 1
 0 16 l 1
 0 20 l 1
EndSplineSet
Validated: 1
EndChar

StartChar: uni019F
Encoding: 415 415 383
Width: 32
Flags: W
HStem: 0 4<8 16> 12 4<8 16> 24 4<8 16>
VStem: 0 8<4 12 16 24> 16 8<4 12 16 24>
CounterMasks: 1 e0
LayerCount: 2
Fore
SplineSet
4 28 m 1
 20 28 l 1
 20 24 l 1
 24 24 l 1
 24 16 l 1
 24 12 l 1
 24 4 l 1
 20 4 l 1
 20 0 l 1
 4 0 l 1
 4 4 l 1
 0 4 l 1
 0 12 l 1
 0 24 l 1
 4 24 l 1
 4 28 l 1
16 4 m 1
 16 12 l 1
 8 12 l 1
 8 4 l 1
 16 4 l 1
16 16 m 1
 16 24 l 1
 8 24 l 1
 8 16 l 1
 16 16 l 1
EndSplineSet
Validated: 1
EndChar

StartChar: uni01CD
Encoding: 461 461 384
Width: 32
Flags: W
HStem: 0 12<4 8 24 28> 12 4<8 24> 20 4<12 16> 24 4<8 12 16 20>
VStem: 4 4<0 4 8 12> 12 4<20 24> 16 4<24 28> 24 4<0 4 8 12>
LayerCount: 2
Fore
SplineSet
8 16 m 1x49
 24 16 l 1x49
 24 12 l 1
 28 12 l 1
 28 8 l 1
 28 4 l 1
 28 0 l 1
 24 0 l 1
 24 4 l 1
 8 4 l 1
 8 0 l 1
 4 0 l 1
 4 4 l 1
 4 12 l 1
 8 12 l 1
 8 8 l 1
 24 8 l 1
 24 12 l 1
 8 12 l 1x89
 8 16 l 1x49
16 28 m 1x1b
 20 28 l 1
 20 24 l 1x1b
 16 24 l 1x2d
 16 28 l 1x1b
8 28 m 1
 12 28 l 1x1d
 12 24 l 1x2d
 8 24 l 1
 8 28 l 1
16 24 m 1x2d
 16 20 l 1
 12 20 l 1
 12 24 l 1
 16 24 l 1x2d
EndSplineSet
Validated: 5
EndChar

StartChar: uni01CE
Encoding: 462 462 385
Width: 32
Flags: W
HStem: 0 4<4 24> 4 4<0 4> 8 4<4 8> 12 4<8 24> 20 4<12 16> 24 4<8 12 16 20>
VStem: 0 4<4 8> 4 4<8 12> 8 4<24 28> 12 4<20 24> 16 4<24 28> 24 4<4 12>
LayerCount: 2
Fore
SplineSet
8 16 m 1x1090
 28 16 l 1
 28 12 l 1x1090
 28 8 l 1x2090
 28 4 l 1x4090
 28 0 l 1
 4 0 l 1x8110
 4 4 l 1x8210
 0 4 l 1
 0 8 l 1
 4 8 l 1x4210
 4 4 l 1
 24 4 l 1
 24 8 l 1xa210
 24 12 l 1x1210
 8 12 l 1
 8 8 l 1x2110
 4 8 l 1x4210
 4 12 l 1
 8 12 l 1x2110
 8 16 l 1x1090
16 28 m 1x0430
 20 28 l 1
 20 24 l 1x0430
 16 24 l 1x0850
 16 28 l 1x0430
8 28 m 1x0490
 12 28 l 1x0490
 12 24 l 1x0890
 8 24 l 1
 8 28 l 1x0490
16 24 m 1x0850
 16 20 l 1
 12 20 l 1x0850
 12 24 l 1x0890
 16 24 l 1x0850
EndSplineSet
Validated: 5
EndChar

StartChar: uni01CF
Encoding: 463 463 386
Width: 32
Flags: W
HStem: 0 4<8 12 16 20> 12 4<8 12 16 20> 20 4<12 16> 24 4<8 12 16 20>
VStem: 8 4<24 28> 12 4<4 12 20 24>
LayerCount: 2
Fore
SplineSet
8 16 m 1xc8
 20 16 l 1
 20 12 l 1
 16 12 l 1
 16 4 l 1xc4
 20 4 l 1
 20 0 l 1
 8 0 l 1
 8 4 l 1xc8
 12 4 l 1
 12 12 l 1xc4
 8 12 l 1
 8 16 l 1xc8
16 28 m 1xd4
 20 28 l 1
 20 24 l 1xd4
 16 24 l 1xe4
 16 28 l 1xd4
8 28 m 1xd8
 12 28 l 1xd8
 12 24 l 1xe8
 8 24 l 1
 8 28 l 1xd8
16 24 m 1xe4
 16 20 l 1
 12 20 l 1xe4
 12 24 l 1xe8
 16 24 l 1xe4
EndSplineSet
Validated: 5
EndChar

StartChar: uni01D0
Encoding: 464 464 387
Width: 32
Flags: W
HStem: 0 4<8 12 16 20> 12 4<8 12> 20 4<12 16> 24 4<8 12 16 20>
VStem: 8 4<24 28> 12 4<4 12 20 24>
LayerCount: 2
Fore
SplineSet
8 16 m 1xc8
 16 16 l 1
 16 4 l 1xc4
 20 4 l 1
 20 0 l 1
 8 0 l 1
 8 4 l 1xc8
 12 4 l 1
 12 12 l 1xc4
 8 12 l 1
 8 16 l 1xc8
16 28 m 1xd4
 20 28 l 1
 20 24 l 1xd4
 16 24 l 1xe4
 16 28 l 1xd4
8 28 m 1xd8
 12 28 l 1xd8
 12 24 l 1xe8
 8 24 l 1
 8 28 l 1xd8
16 24 m 1xe4
 16 20 l 1
 12 20 l 1xe4
 12 24 l 1xe8
 16 24 l 1xe4
EndSplineSet
Validated: 5
EndChar

StartChar: uni01D1
Encoding: 465 465 388
Width: 32
Flags: W
HStem: 0 4<8 24> 4 8<4 8 24 28> 12 4<8 24> 20 4<12 16> 24 4<8 12 16 20>
VStem: 4 4<4 12> 8 4<24 28> 12 4<20 24> 16 4<24 28> 24 4<4 12>
LayerCount: 2
Fore
SplineSet
8 16 m 1x2240
 24 16 l 1x2240
 24 12 l 1
 28 12 l 1
 28 4 l 1x4240
 24 4 l 1x8240
 24 12 l 1
 8 12 l 1x4440
 8 4 l 1x8440
 4 4 l 1
 4 12 l 1
 8 12 l 1x4440
 8 16 l 1x2240
16 28 m 1x08c0
 20 28 l 1
 20 24 l 1x08c0
 16 24 l 1x1140
 16 28 l 1x08c0
8 28 m 1x0a40
 12 28 l 1x0a40
 12 24 l 1x1240
 8 24 l 1
 8 28 l 1x0a40
24 4 m 1x8440
 24 0 l 1
 8 0 l 1x8240
 8 4 l 1
 24 4 l 1x8440
16 24 m 1x1140
 16 20 l 1
 12 20 l 1x1140
 12 24 l 1x1240
 16 24 l 1x1140
EndSplineSet
Validated: 5
EndChar

StartChar: uni01D2
Encoding: 466 466 389
Width: 32
Flags: W
HStem: 0 4<12 20> 4 8<4 8 24 28> 12 4<12 20> 20 4<12 16> 24 4<8 12 16 20>
VStem: 4 8<4 12> 8 4<24 28> 12 4<20 24> 16 4<24 28> 20 8<4 12>
LayerCount: 2
Fore
SplineSet
8 16 m 1x22
 24 16 l 1x22
 24 12 l 1
 28 12 l 1
 28 4 l 1
 24 4 l 1x4240
 24 0 l 1
 8 0 l 1x8240
 8 4 l 1x4240
 4 4 l 1
 4 12 l 1x44
 8 12 l 1x42
 8 16 l 1x22
16 28 m 1x0880
 20 28 l 1
 20 24 l 1x0880
 16 24 l 1x11
 16 28 l 1x0880
8 28 m 1x0a
 12 28 l 1x0a
 12 24 l 1x12
 8 24 l 1
 8 28 l 1x0a
20 4 m 1xa440
 20 12 l 1
 12 12 l 1
 12 4 l 1
 20 4 l 1xa440
16 24 m 1x11
 16 20 l 1
 12 20 l 1x11
 12 24 l 1x12
 16 24 l 1x11
EndSplineSet
Validated: 5
EndChar

StartChar: uni01D3
Encoding: 467 467 390
Width: 32
Flags: W
HStem: 0 4<4 24> 4 12<0 4 24 28> 20 4<12 16> 24 4<8 12 16 20>
VStem: 0 4<4 16> 8 4<24 28> 12 4<20 24> 16 4<24 28> 24 4<4 16>
LayerCount: 2
Fore
SplineSet
24 16 m 1x4880
 28 16 l 1
 28 4 l 1x4880
 24 4 l 1x8880
 24 16 l 1x4880
0 16 m 1
 4 16 l 1x4880
 4 4 l 1x8880
 0 4 l 1
 0 16 l 1
16 28 m 1x1980
 20 28 l 1
 20 24 l 1x1980
 16 24 l 1x2a80
 16 28 l 1x1980
8 28 m 1x1c80
 12 28 l 1x1c80
 12 24 l 1x2c80
 8 24 l 1
 8 28 l 1x1c80
24 4 m 1x8880
 24 0 l 1
 4 0 l 1
 4 4 l 1
 24 4 l 1x8880
16 24 m 1x2a80
 16 20 l 1
 12 20 l 1x2a80
 12 24 l 1x2c80
 16 24 l 1x2a80
EndSplineSet
Validated: 5
EndChar

